<?xml version="1.0" standalone="no"?><!DOCTYPE svg PUBLIC "-//W3C//DTD SVG 1.1//EN" "http://www.w3.org/Graphics/SVG/1.1/DTD/svg11.dtd" ><svg xmlns="http://www.w3.org/2000/svg"><metadata></metadata><defs><font id="DavidJ.Perry: Cardo Bold: 2003" horiz-adv-x="3276"><font-face font-family="Cardo" font-weight="700" font-stretch="normal" units-per-em="2048" panose-1="2 2 8 4 8 0 0 2 0 3" ascent="2028" descent="-745" x-height="3" bbox="-1926 -660 3236 2336" underline-thickness="115" underline-position="-148" unicode-range="U+0020-02d5" /><missing-glyph horiz-adv-x="1078" d="M120 1410 l838 0 l0 -1410 l-838 0 l0 1410 ZM911 47 l0 1316 l-744 0 l0 -1316 l744 0 ZM389 674 q0 31 12 58.5 q12 27.5 32 47.5 q20 20 47.5 32 q27.5 12 58.5 12 q31 0 58.5 -12 q27.5 -12 47.5 -32 q20 -20 32 -47.5 q12 -27.5 12 -58.5 q0 -31 -12 -58.5 q-12 -27.5 -32 -47.5 q-20 -20 -47.5 -32 q-27.5 -12 -58.5 -12 q-31 0 -58.5 12 q-27.5 12 -47.5 32 q-20 20 -32 47.5 q-12 27.5 -12 58.5 Z" /><glyph glyph-name="space" unicode=" " d="" /><glyph glyph-name="exclam" unicode="!" d="M328 461 q-2 -28 -16 -45.5 q-14 -17.5 -40 -17.5 q-26 0 -40.5 17.5 q-14.5 17.5 -16.5 45.5 l-74 963 l0 53 q0 22 11 31 q11 9 30 9 q5 0 12.5 0.5 q7.5 0.5 17.5 0.5 q13 1 30.5 1 q17.5 0 29.5 0 q17 0 38.5 0 q21.5 0 38.5 -2 q12 0 28.5 -6.5 q16.5 -6.5 24.5 -28.5 l0 -58 l-74 -963 ZM130 103 q0 29 11.5 55 q11.5 26 31 45.5 q19.5 19.5 45 30.5 q25.5 11 54.5 11 q30 0 56 -11.5 q26 -11.5 45 -31.5 q19 -20 30 -46 q11 -26 11 -54 q0 -29 -11 -54.5 q-11 -25.5 -30.5 -45 q-19.5 -19.5 -45.5 -30.5 q-26 -11 -55 -11 q-31 0 -57 11 q-26 11 -45 30.5 q-19 19.5 -29.5 45 q-10.5 25.5 -10.5 55.5 Z" /><glyph glyph-name="quotedbl" unicode="&quot;" d="M204 776 q-9 76 -22 159 q-13 83 -25 159.5 q-12 76.5 -20.5 139.5 q-8.5 63 -8.5 99 q0 21 12.5 40 q12.5 19 32 34 q19.5 15 44.5 23.5 q25 8.5 49 8.5 q27 0 52 -8.5 q25 -8.5 44.5 -23.5 q19.5 -15 31.5 -34 q12 -19 12 -40 q0 -37 -7.5 -100 q-7.5 -63 -19 -139.5 q-11.5 -76.5 -25 -159.5 q-13.5 -83 -24.5 -159 l-126 1 ZM600 776 q-9 76 -22 159 q-13 83 -25 159.5 q-12 76.5 -20.5 139.5 q-8.5 63 -8.5 99 q0 21 12.5 40 q12.5 19 32 34 q19.5 15 44.5 23.5 q25 8.5 49 8.5 q27 0 52 -8.5 q25 -8.5 44.5 -23.5 q19.5 -15 31.5 -34 q12 -19 12 -40 q0 -37 -7.5 -100 q-7.5 -63 -19 -139.5 q-11.5 -76.5 -25 -159.5 q-13.5 -83 -24.5 -159 l-126 1 Z" /><glyph glyph-name="numbersign" unicode="#" d="M139 1105 l270 0 q24 115 50.5 236.5 q26.5 121.5 50.5 236.5 l169 0 l-101 -473 l210 0 q24 115 50.5 236.5 q26.5 121.5 50.5 236.5 l169 0 l-101 -473 l273 0 l-38 -161 l-270 0 q-9 -42 -16.5 -80 q-7.5 -38 -15 -75 q-7.5 -37 -15 -75 q-7.5 -38 -16.5 -80 l276 0 l-37 -161 l-274 0 q-26 -125 -53 -254.5 q-27 -129.5 -53 -253.5 l-175 0 l108 508 l-206 0 q-26 -125 -53 -254.5 q-27 -129.5 -53 -253.5 l-175 0 l108 508 l-270 0 l41 161 l264 0 q9 42 17.5 80 q8.5 38 16.5 75 q8 37 16.5 75 q8.5 38 17.5 80 l-280 0 l44 161 ZM480 634 l206 0 q9 41 17 79 q8 38 16 75.5 q8 37.5 16 75.5 q8 38 17 80 l-209 0 l-63 -310 Z" /><glyph glyph-name="dollar" unicode="$" d="M656 1422 l0 -1641 l-70 0 l0 1641 l70 0 ZM563 529 q-8 4 -15.5 7.5 q-7.5 3.5 -15.5 8.5 q-40 22 -86.5 48.5 q-46.5 26.5 -92 57.5 q-45.5 31 -88 66.5 q-42.5 35.5 -74.5 75.5 q-32 40 -51.5 83.5 q-19.5 43.5 -19.5 91.5 q0 48 17.5 94.5 q17.5 46.5 50.5 86.5 q33 40 81 70 q48 30 109 47 l56 11 q24 3 55 3 q23 0 47 -1.5 q24 -1.5 49 -5.5 l56 -10 q48 -11 97 -27.5 q49 -16.5 88.5 -41 q39.5 -24.5 65 -57 q25.5 -32.5 25.5 -73.5 q0 -18 -8.5 -33 q-8.5 -15 -23 -26.5 q-14.5 -11.5 -32.5 -17.5 q-18 -6 -37 -6 q-23 0 -41.5 8 q-18.5 8 -33.5 21.5 q-15 13.5 -28 30.5 q-13 17 -26 36 q-26 38 -55.5 71.5 q-29.5 33.5 -61.5 40.5 q-20 6 -39.5 8.5 q-19.5 2.5 -42.5 2.5 q-5 0 -11 -0.5 q-6 -0.5 -16 -2 q-10 -1.5 -26 -4 q-16 -2.5 -40 -7.5 q-28 -9 -45 -26 q-17 -17 -26 -37.5 q-9 -20.5 -11.5 -42 q-2.5 -21.5 -2.5 -40.5 q0 -45 21.5 -82.5 q21.5 -37.5 56 -70.5 q34.5 -33 76.5 -61 q42 -28 84 -53 q34 -20 64.5 -38.5 q30.5 -18.5 43.5 -28.5 q6 -4 11.5 -7 q5.5 -3 7.5 -4 q56 -30 108.5 -68.5 q52.5 -38.5 92.5 -83.5 q40 -45 64 -96 q24 -51 24 -106 q0 -74 -24.5 -133.5 q-24.5 -59.5 -68 -104 q-43.5 -44.5 -103 -73.5 q-59.5 -29 -128.5 -41 l-56 -9 q-23 -3 -46.5 -5 q-23.5 -2 -49.5 -2 q-32 0 -54 3 l-56 9 q-53 12 -103 35 q-50 23 -89 55 q-39 32 -62.5 71.5 q-23.5 39.5 -23.5 83.5 q0 42 26.5 67.5 q26.5 25.5 70.5 25.5 q20 0 35 -7.5 q15 -7.5 26.5 -21 q11.5 -13.5 20.5 -31.5 q9 -18 17 -38 q8 -20 17.5 -41 q9.5 -21 22 -41 q12.5 -20 28.5 -37 q16 -17 38 -28 l-5 1 q13 -5 26.5 -10 q13.5 -5 26.5 -9 l-1 0 q32 -10 70 -11 q11 0 24 1 q13 1 27 3 q14 4 27.5 7 q13.5 3 26.5 7 l-3 0 q65 24 103.5 79 q38.5 55 38.5 133 q0 34 -12 64.5 q-12 30.5 -37 60.5 q-25 30 -63.5 60.5 q-38.5 30.5 -91.5 65.5 l4 -1 ZM465 1422 l0 -1641 l-70 0 l0 1641 l70 0 Z" /><glyph glyph-name="ampersand" unicode="&amp;" d="M1183 174 q21 -36 47.5 -63.5 q26.5 -27.5 59.5 -27.5 q10 0 30 6.5 q20 6.5 41.5 15 q21.5 8.5 41.5 15 q20 6.5 31 6.5 q14 0 22.5 -5 q8.5 -5 12.5 -11 q4 -6 5 -11.5 q1 -5.5 1 -7.5 q0 -4 -3 -12.5 q-3 -8.5 -19 -19.5 q-56 -36 -120.5 -63 q-64.5 -27 -140.5 -27 q-48 0 -84 15.5 q-36 15.5 -64.5 40.5 q-28.5 25 -52 57.5 q-23.5 32.5 -45.5 66.5 q-10 14 -19.5 29 q-9.5 15 -20.5 30 q-48 -42 -104.5 -84 q-56.5 -42 -119 -75.5 q-62.5 -33.5 -130 -54.5 q-67.5 -21 -138.5 -21 q-83 0 -154.5 35 q-71.5 35 -124 92 q-52.5 57 -82.5 129.5 q-30 72.5 -30 147.5 q0 76 28.5 137 q28.5 61 79 111.5 q50.5 50.5 118.5 90.5 q68 40 148 74 q-34 34 -61.5 67 q-27.5 33 -46.5 67 q-19 34 -29 71 q-10 37 -10 81 q0 66 29.5 115.5 q29.5 49.5 77.5 83 q48 33.5 109 50 q61 16.5 124 16.5 q55 0 110 -18 q55 -18 99 -50.5 q44 -32.5 71 -79 q27 -46.5 27 -103.5 q0 -46 -19 -85.5 q-19 -39.5 -49 -73 q-30 -33.5 -68 -61 q-38 -27.5 -76 -49.5 q-4 -3 -5.5 -4 q-1.5 -1 -1.5 -4 q0 -5 6 -9 q4 -3 23 -20 q19 -17 56 -54 q37 -37 93 -97 q56 -60 133 -149 l215 325 q9 14 14 26 q5 12 5 30 q0 25 -12 32 q-12 7 -25 9 q-14 3 -27 5.5 q-13 2.5 -23 7 q-10 4.5 -16 12 q-6 7.5 -6 18.5 q0 4 0.5 9.5 q0.5 5.5 5 11 q4.5 5.5 13.5 9 q9 3.5 26 3.5 l391 0 q11 -17 13 -26 q2 -9 2 -11 q0 -22 -12 -29 q-12 -7 -33 -9 q-23 -3 -46.5 -5.5 q-23.5 -2.5 -45.5 -8.5 q-22 -6 -41.5 -18.5 q-19.5 -12.5 -33.5 -34.5 l-290 -460 l120 -206 ZM510 122 q44 0 88 17 q44 17 85.5 41.5 q41.5 24.5 80.5 53 q39 28.5 72 52.5 q11 8 11 15 q0 3 -2 7 q-72 128 -162 229 q-90 101 -196 189 q-5 -2 -17 -9 q-12 -7 -20 -12 q-39 -23 -71.5 -57 q-32.5 -34 -56 -75.5 q-23.5 -41.5 -36.5 -89 q-13 -47.5 -13 -95.5 q0 -51 18.5 -99 q18.5 -48 51 -85 q32.5 -37 75.5 -59.5 q43 -22.5 92 -22.5 ZM467 1115 q0 -35 9.5 -69 q9.5 -34 26 -64 q16.5 -30 39.5 -55.5 q23 -25.5 50 -44.5 q24 9 43 32 q19 23 32 51.5 q13 28.5 20 59 q7 30.5 7 55.5 q0 36 -6.5 67.5 q-6.5 31.5 -21 54.5 q-14.5 23 -37.5 36 q-23 13 -57 13 q-51 0 -78 -39 q-27 -39 -27 -97 Z" /><glyph glyph-name="quotesingle" unicode="&#39;" d="M204 776 q-9 76 -22 159 q-13 83 -25 159.5 q-12 76.5 -20.5 139.5 q-8.5 63 -8.5 99 q0 21 12.5 40 q12.5 19 32 34 q19.5 15 44.5 23.5 q25 8.5 49 8.5 q27 0 52 -8.5 q25 -8.5 44.5 -23.5 q19.5 -15 31.5 -34 q12 -19 12 -40 q0 -37 -7.5 -100 q-7.5 -63 -19 -139.5 q-11.5 -76.5 -25 -159.5 q-13.5 -83 -24.5 -159 l-126 1 Z" /><glyph glyph-name="parenleft" unicode="(" d="M171 608 q0 147 24.5 293.5 q24.5 146.5 72.5 286 q48 139.5 120.5 269 q72.5 129.5 168.5 241.5 q9 11 15.5 15.5 q6.5 4.5 22.5 4.5 q11 0 24 -11 q13 -11 24.5 -26 q11.5 -15 19.5 -29.5 q8 -14.5 8 -21.5 q0 -15 -11 -39 q-144 -220 -222.5 -463 q-78.5 -243 -78.5 -525 q0 -273 78.5 -514.5 q78.5 -241.5 222.5 -461.5 q11 -20 11 -39 q0 -7 -8 -21.5 q-8 -14.5 -19.5 -29.5 q-11.5 -15 -24.5 -26 q-13 -11 -24 -11 q-16 0 -22 4.5 q-6 4.5 -17 16.5 q-94 113 -166 241.5 q-72 128.5 -120.5 267.5 q-48.5 139 -73.5 285 q-25 146 -25 293 Z" /><glyph glyph-name="parenright" unicode=")" d="M524 608 q0 -146 -25.5 -291.5 q-25.5 -145.5 -75 -285 q-49.5 -139.5 -121.5 -269 q-72 -129.5 -165 -242.5 q-8 -10 -15.5 -15 q-7.5 -5 -21.5 -5 q-11 0 -24 11 q-13 11 -24.5 26 q-11.5 15 -19.5 29.5 q-8 14.5 -8 21.5 q0 10 2 20 q2 10 8 19 q145 221 223 462.5 q78 241.5 78 513.5 q0 141 -20 271.5 q-20 130.5 -58 253 q-38 122.5 -94.5 238 q-56.5 115.5 -128.5 225.5 q-6 10 -8 19.5 q-2 9.5 -2 19.5 q0 7 8 21.5 q8 14.5 19.5 29.5 q11.5 15 24.5 26 q13 11 24 11 q15 0 21 -4.5 q6 -4.5 17 -16.5 q97 -111 169.5 -240 q72.5 -129 120.5 -268.5 q48 -139.5 72 -286.5 q24 -147 24 -294 Z" /><glyph glyph-name="asterisk" unicode="*" d="M743 1411 l28 -92 l-224 -116 l111 -225 l-76 -56 l-178 179 l-180 -175 l-80 53 l115 226 l-219 116 l22 93 l251 -38 q11 60 22.5 125.5 q11.5 65.5 20.5 122.5 l96 0 l40 -249 l251 36 Z" /><glyph glyph-name="plus" unicode="+" d="M68 719 l365 0 l0 379 l187 0 l0 -379 l360 0 l0 -187 l-360 0 l0 -375 l-187 0 l0 375 l-365 0 l0 187 Z" /><glyph glyph-name="comma" unicode="," d="M209 -302 q-20 0 -25 13 q-5 13 -5 24 q1 13 8.5 24 q7.5 11 18.5 20 q11 9 22.5 17.5 q11.5 8.5 20.5 16.5 q14 14 29 31 q15 17 27 36 q12 19 20 39 q8 20 8 40 q0 8 -2.5 17 q-2.5 9 -19.5 9 q-32 0 -65.5 10 q-33.5 10 -61.5 30 q-28 20 -45.5 49.5 q-17.5 29.5 -17.5 68.5 q0 38 12 67.5 q12 29.5 34 49.5 q22 20 51.5 30.5 q29.5 10.5 65.5 10.5 q62 0 100.5 -23.5 q38.5 -23.5 59.5 -57 q21 -33.5 28 -70 q7 -36.5 7 -63.5 q0 -54 -17 -106 q-17 -52 -44.5 -98 q-27.5 -46 -63.5 -85 q-36 -39 -74 -67 q-15 -11 -34.5 -22 q-19.5 -11 -36.5 -11 Z" /><glyph glyph-name="hyphen" unicode="-" d="M888 608 l0 -197 l-803 0 l0 197 l803 0 Z" /><glyph glyph-name="period" unicode="." d="M130 130 q0 34 13 64.5 q13 30.5 36 53.5 q23 23 53 36 q30 13 65 13 q34 0 64.5 -13 q30.5 -13 53.5 -36 q23 -23 36 -53.5 q13 -30.5 13 -64.5 q0 -35 -13 -65 q-13 -30 -36 -53 q-23 -23 -53.5 -36 q-30.5 -13 -64.5 -13 q-35 0 -65 13 q-30 13 -53 36 q-23 23 -36 53 q-13 30 -13 65 Z" /><glyph glyph-name="slash" unicode="/" d="M529 1452 l190 0 l-525 -1479 l-189 0 l524 1479 Z" /><glyph glyph-name="zero" unicode="0" d="M531 -26 q-114 0 -201 51.5 q-87 51.5 -145.5 144 q-58.5 92.5 -88.5 221.5 q-30 129 -30 284 q0 82 13.5 166.5 q13.5 84.5 39.5 163 q26 78.5 65.5 147 q39.5 68.5 91 119 q51.5 50.5 115.5 80 q64 29.5 140 29.5 q76 0 139.5 -29 q63.5 -29 113.5 -80 q50 -51 87.5 -119.5 q37.5 -68.5 62 -147 q24.5 -78.5 37 -163 q12.5 -84.5 12.5 -167.5 q0 -155 -28 -284 q-28 -129 -84.5 -221.5 q-56.5 -92.5 -141 -143.5 q-84.5 -51 -198.5 -51 ZM302 674 q0 -78 3 -154.5 q3 -76.5 12 -146 q9 -69.5 24.5 -128.5 q15.5 -59 41 -102 q25.5 -43 62 -67.5 q36.5 -24.5 86.5 -24.5 q50 0 86 25 q36 25 60 68.5 q24 43.5 38 103.5 q14 60 21 129.5 q7 69.5 9 145.5 q2 76 2 153 q0 63 -3.5 134.5 q-3.5 71.5 -12 141 q-8.5 69.5 -23.5 133 q-15 63.5 -39 112 q-24 48.5 -58 77.5 q-34 29 -79 29 q-50 0 -87 -29 q-37 -29 -62.5 -78 q-25.5 -49 -41.5 -113 q-16 -64 -24.5 -134 q-8.5 -70 -11.5 -141 q-3 -71 -3 -134 Z" /><glyph glyph-name="one" unicode="1" d="M247 0 q-31 0 -39 7 q-8 7 -8 16 l0 53 q0 8 7.5 15 q7.5 7 36.5 8 q21 0 50.5 0.5 q29.5 0.5 58.5 2 q29 1.5 52.5 6 q23.5 4.5 32.5 12.5 l0 1011 q-33 -22 -56.5 -37 q-23.5 -15 -44.5 -26.5 q-21 -11.5 -42 -22.5 q-21 -11 -50 -26 q-5 -3 -18 -8.5 q-13 -5.5 -21 -5.5 q-9 0 -14.5 10.5 q-5.5 10.5 -20.5 33.5 q-1 2 -1 5 q0 4 5 7.5 q5 3.5 18 12.5 q30 19 69 51 q39 32 82.5 72 q43.5 40 88.5 86.5 q45 46.5 86 95.5 l76 0 q19 0 30.5 -1.5 q11.5 -1.5 17.5 -5 q6 -3.5 7.5 -9.5 q1.5 -6 1.5 -16 l0 -1145 q0 -14 0.5 -28.5 q0.5 -14.5 1 -26.5 q0.5 -12 2 -20 q1.5 -8 3.5 -8 q12 -8 29.5 -12 q17.5 -4 38 -5.5 q20.5 -1.5 43 -2 q22.5 -0.5 44.5 -0.5 q31 0 39 -8 q8 -8 8 -15 l0 -53 q0 -7 -8 -15 q-8 -8 -39 -8 l-567 0 l0 0 Z" /><glyph glyph-name="two" unicode="2" d="M100 0 q-17 0 -25.5 1 q-8.5 1 -13 5 q-4.5 4 -5 12 q-0.5 8 -0.5 22 q0 17 12 33 q12 16 29 36 q48 57 104 114 q56 57 113 114 q76 76 146 153 q70 77 123.5 153 q53.5 76 85 150.5 q31.5 74.5 31.5 146.5 q0 54 -19.5 106.5 q-19.5 52.5 -52.5 93.5 q-33 41 -76.5 66 q-43.5 25 -91.5 25 q-52 0 -97.5 -20 q-45.5 -20 -82.5 -53.5 q-37 -33.5 -62.5 -77 q-25.5 -43.5 -36.5 -89.5 q-3 -11 -5 -20.5 q-2 -9.5 -7 -16 q-5 -6.5 -16 -10.5 q-11 -4 -30 -4 l-9 0 q-14 0 -21.5 3.5 q-7.5 3.5 -7.5 17.5 q0 5 4.5 37 q4.5 32 16 74 q11.5 42 31 86.5 q19.5 44.5 49.5 74.5 l-1 0 q41 42 80.5 70 q39.5 28 80 45 q40.5 17 83 24.5 q42.5 7.5 90.5 7.5 q97 0 176.5 -31 q79.5 -31 136 -85.5 q56.5 -54.5 87 -128.5 q30.5 -74 30.5 -160 q0 -62 -28 -123.5 q-28 -61.5 -78.5 -125.5 q-50.5 -64 -121 -130.5 q-70.5 -66.5 -155.5 -139.5 q-9 -7 -29 -26 q-20 -19 -46.5 -44.5 q-26.5 -25.5 -56.5 -55 q-30 -29.5 -57.5 -57.5 q-27.5 -28 -50.5 -52 q-23 -24 -35 -39 l543 0 q22 0 36 6.5 q14 6.5 24.5 23 q10.5 16.5 19.5 44.5 q9 28 20 70 l65 0 l-46 -282 q-3 -14 -17 -29 q-14 -15 -49 -15 l-787 0 l0 0 Z" /><glyph glyph-name="three" unicode="3" d="M425 -26 q-31 0 -71 1.5 q-40 1.5 -82 7.5 q-42 6 -82 16.5 q-40 10.5 -71.5 28 q-31.5 17.5 -50.5 43.5 q-19 26 -19 62 q0 22 10 39 q10 17 27 28 q17 11 38.5 17 q21.5 6 45.5 6 q28 0 52.5 -12 q24.5 -12 47 -29.5 q22.5 -17.5 44.5 -38 q22 -20.5 46 -38 q24 -17.5 51 -29.5 q27 -12 59 -12 q59 5 104 41 q45 36 75 89.5 q30 53.5 45 117 q15 63.5 15 123.5 q0 74 -17 126 q-17 52 -42.5 85 q-25.5 33 -56.5 48.5 q-31 15.5 -59 15.5 q-23 0 -40 -5 q-17 -5 -30 -11.5 q-13 -6.5 -22 -14 q-9 -7.5 -17 -12.5 q-7 -5 -15 -8 q-8 -3 -25 -3 q-18 0 -28.5 13.5 q-10.5 13.5 -10.5 24.5 q0 6 12.5 20.5 q12.5 14.5 23.5 24.5 q36 32 75.5 72 q39.5 40 71.5 84 q32 44 53 90 q21 46 21 91 q0 34 -13.5 65.5 q-13.5 31.5 -36 56.5 q-22.5 25 -51 40 q-28.5 15 -58.5 15 q-57 0 -100 -19.5 q-43 -19.5 -74 -48.5 q-31 -29 -52 -61.5 q-21 -32.5 -35 -58.5 q-6 -11 -13.5 -14 q-7.5 -3 -19.5 -3 q-5 0 -12.5 2 q-7.5 2 -14.5 6 q-7 4 -12 10 q-5 6 -5 14 q0 -1 1.5 3 q1.5 4 3.5 9 q2 5 5 12 q25 60 65.5 111 q40.5 51 89.5 87.5 q49 36.5 104 57 q55 20.5 110 20.5 q79 0 143 -16 q64 -16 110 -47 q46 -31 71 -76.5 q25 -45.5 25 -104.5 q0 -45 -18.5 -86 q-18.5 -41 -48 -78.5 q-29.5 -37.5 -67 -70.5 q-37.5 -33 -76.5 -60 q88 -9 151 -42 q63 -33 103.5 -82.5 q40.5 -49.5 59.5 -111.5 q19 -62 19 -128 q0 -74 -24 -140.5 q-24 -66.5 -64 -122 q-40 -55.5 -93.5 -100 q-53.5 -44.5 -112.5 -76 q-59 -31.5 -120.5 -48 q-61.5 -16.5 -117.5 -16.5 Z" /><glyph glyph-name="four" unicode="4" d="M46 395 q0 4 0 10.5 q0 6.5 0.5 13.5 q0.5 7 1 12.5 q0.5 5.5 2.5 7.5 l600 917 q6 9 14 13.5 q8 4.5 17 6.5 q9 2 17.5 2.5 q8.5 0.5 14.5 0.5 q8 0 21.5 -0.5 q13.5 -0.5 26 -3 q12.5 -2.5 22 -7.5 q9.5 -5 9.5 -15 l0 -782 q0 -19 2.5 -22 q2.5 -3 16.5 -3 l167 0 q11 0 21 -2 q10 -2 10 -16 l0 -148 q0 -24 -20 -24 l-182 0 q-11 0 -13 -2.5 q-2 -2.5 -2 -17.5 l0 -325 q0 -5 -3.5 -16 q-3.5 -11 -23.5 -11 l-178 0 q-14 0 -17 9 q-3 9 -3 14 l0 319 q0 11 -0.5 17 q-0.5 6 -4.5 9 q-4 3 -12 3.5 q-8 0.5 -23 0.5 l-437 0 q-19 0 -31.5 12.5 q-12.5 12.5 -12.5 26.5 ZM235 558 q0 -8 6.5 -10 q6.5 -2 25.5 -2 l278 0 q13 0 16.5 6 q3.5 6 5.5 14 l0 401 q0 14 -3.5 26.5 q-3.5 12.5 -14.5 12.5 q-8 0 -15.5 -7.5 q-7.5 -7.5 -13.5 -13.5 l-274 -410 q-2 -2 -3.5 -4.5 q-1.5 -2.5 -3.5 -5.5 q-2 -4 -4 -7 Z" /><glyph glyph-name="five" unicode="5" d="M84 111 q0 21 10.5 37.5 q10.5 16.5 27 28.5 q16.5 12 38 18.5 q21.5 6.5 43.5 6.5 q37 0 69 -23 q32 -23 63.5 -51 q31.5 -28 64 -51 q32.5 -23 70.5 -23 q49 0 85 17 q36 17 62.5 45 q26.5 28 43.5 64 q17 36 27.5 74 q10.5 38 14.5 74.5 q4 36.5 4 66.5 q0 71 -14 122 q-14 51 -37.5 87 q-23.5 36 -53 58 q-29.5 22 -60 34.5 q-30.5 12.5 -59.5 16.5 q-29 4 -51 4 q-25 0 -51 -8 q-26 -8 -49 -19 q-23 -11 -41.5 -22.5 q-18.5 -11.5 -29.5 -18.5 q-6 -2 -10 -4.5 q-4 -2.5 -8.5 -4.5 q-4.5 -2 -10.5 -3.5 q-6 -1.5 -16 -1.5 q-22 0 -35 6.5 q-13 6.5 -14 22.5 l30 676 l556 0 q9 0 14.5 3.5 q5.5 3.5 9 9 q3.5 5.5 6 12.5 q2.5 7 7.5 15 l69 0 l-27 -215 l-538 0 l-15 -307 q18 6 42.5 11 q24.5 5 53 8.5 q28.5 3.5 57.5 6 q29 2.5 56 2.5 q42 0 92 -11 q50 -11 101 -33 q51 -22 98.5 -56 q47.5 -34 84.5 -80.5 q37 -46.5 59 -106 q22 -59.5 22 -131.5 q0 -96 -23 -170 q-23 -74 -62.5 -129 q-39.5 -55 -92 -92 q-52.5 -37 -111.5 -60 q-59 -23 -121.5 -33 q-62.5 -10 -120.5 -10 q-18 0 -49.5 2.5 q-31.5 2.5 -68 8 q-36.5 5.5 -74.5 15.5 q-38 10 -68.5 25 q-30.5 15 -50 36.5 q-19.5 21.5 -19.5 49.5 Z" /><glyph glyph-name="six" unicode="6" d="M60 506 q0 136 42 246 q42 110 126 206.5 q84 96.5 209.5 185 q125.5 88.5 293.5 180.5 q9 5 28 14 q19 9 41 18 q22 9 44.5 15.5 q22.5 6.5 40.5 6.5 q33 0 47.5 -3 q14.5 -3 14.5 -17 q0 -10 -24.5 -28.5 q-24.5 -18.5 -57.5 -38.5 q-33 -20 -65 -39 q-32 -19 -47 -29 q-30 -21 -78 -56.5 q-48 -35.5 -97 -79.5 q-49 -44 -89 -92.5 q-40 -48.5 -55 -94.5 q14 4 34 7 q20 3 47 3 q104 0 190.5 -37 q86.5 -37 148.5 -100.5 q62 -63.5 96.5 -148.5 q34.5 -85 34.5 -181 q0 -98 -35 -183.5 q-35 -85.5 -98 -149 q-63 -63.5 -149.5 -100 q-86.5 -36.5 -188.5 -36.5 q-74 0 -136.5 21 q-62.5 21 -113 58.5 q-50.5 37.5 -89 88.5 q-38.5 51 -64 110 q-25.5 59 -38.5 123.5 q-13 64.5 -13 130.5 ZM526 55 q60 0 100 33.5 q40 33.5 64 86 q24 52.5 34 116.5 q10 64 10 125 q0 78 -11 151.5 q-11 73.5 -39 130 q-28 56.5 -76 91 q-48 34.5 -123 34.5 q-56 0 -92 -28.5 q-36 -28.5 -56 -79 q-20 -50.5 -27.5 -118.5 q-7.5 -68 -7.5 -147 q0 -41 4 -86.5 q4 -45.5 14 -89.5 q10 -44 26.5 -83.5 q16.5 -39.5 41.5 -70 q25 -30.5 59 -48 q34 -17.5 79 -17.5 Z" /><glyph glyph-name="seven" unicode="7" d="M297 10 q21 49 53.5 121 q32.5 72 71.5 157 q39 85 81.5 178 q42.5 93 83.5 183.5 q41 90.5 79 173.5 q38 83 67 148.5 q29 65.5 46.5 108 q17.5 42.5 19.5 52.5 l-537 0 q-27 0 -42 -12.5 q-15 -12.5 -20 -26.5 l-53 -130 q-7 -17 -14 -23 q-7 -6 -30 -6 q-25 0 -35 9 q-10 9 -8 18 l60 345 q1 3 3.5 9 q2.5 6 8.5 11.5 q6 5.5 16 9.5 q10 4 26 4 l759 0 q26 0 46.5 -9 q20.5 -9 20.5 -35 q0 -15 -4.5 -43 q-4.5 -28 -15.5 -52 l-553 -1227 l-130 0 l0 36 Z" /><glyph glyph-name="eight" unicode="8" d="M142 316 q0 62 19 113.5 q19 51.5 51.5 96 q32.5 44.5 76.5 83.5 q44 39 95 77 q-40 40 -77 79.5 q-37 39.5 -65.5 82.5 q-28.5 43 -45.5 91 q-17 48 -17 106 q0 75 24 136.5 q24 61.5 68.5 105.5 q44.5 44 109 68.5 q64.5 24.5 145.5 24.5 q72 0 136 -23 q64 -23 112 -64.5 q48 -41.5 76 -99.5 q28 -58 28 -127 q0 -29 -10.5 -61 q-10.5 -32 -27.5 -63.5 q-17 -31.5 -40 -62.5 q-23 -31 -48.5 -57.5 q-25.5 -26.5 -51.5 -47.5 q-26 -21 -49 -34 q50 -42 96 -82.5 q46 -40.5 81 -88 q35 -47.5 56 -105 q21 -57.5 21 -132.5 q0 -72 -28 -137 q-28 -65 -77.5 -113.5 q-49.5 -48.5 -117 -77.5 q-67.5 -29 -145.5 -29 q-77 0 -148.5 24 q-71.5 24 -126.5 68.5 q-55 44.5 -87.5 107.5 q-32.5 63 -32.5 141 ZM345 310 q0 -54 13 -101.5 q13 -47.5 38 -83.5 q25 -36 61 -57 q36 -21 82 -21 q27 0 55 14.5 q28 14.5 51 46 q23 31.5 37.5 80.5 q14.5 49 14.5 118 q0 44 -24.5 88.5 q-24.5 44.5 -60 85 q-35.5 40.5 -76 75 q-40.5 34.5 -72.5 59.5 q-59 -45 -89 -123 q-30 -78 -30 -181 ZM376 1118 q0 -51 16.5 -94.5 q16.5 -43.5 44 -81 q27.5 -37.5 63.5 -71 q36 -33.5 74 -65.5 q5 -5 9 -5 q4 0 9.5 3.5 q5.5 3.5 15.5 12.5 q21 22 36 51 q15 29 24 61.5 q9 32.5 13.5 67.5 q4.5 35 4.5 70 q0 45 -8.5 89 q-8.5 44 -28 78 q-19.5 34 -50.5 55 q-31 21 -75 21 q-36 0 -64 -15.5 q-28 -15.5 -46.5 -41.5 q-18.5 -26 -28 -61 q-9.5 -35 -9.5 -74 Z" /><glyph glyph-name="nine" unicode="9" d="M82 -7 q0 12 12.5 22 q12.5 10 28.5 18 q60 31 123 67.5 q63 36.5 123 79.5 q60 43 115 93.5 q55 50.5 100 110.5 q6 7 13.5 18.5 q7.5 11.5 15.5 23.5 q8 12 15.5 24 q7.5 12 12.5 21 q-40 -11 -80.5 -18 q-40.5 -7 -86.5 -7 q-102 0 -180.5 40 q-78.5 40 -132 104 q-53.5 64 -81.5 145 q-28 81 -28 164 q0 90 31 176 q31 86 88.5 154 q57.5 68 140 109.5 q82.5 41.5 185.5 41.5 q118 0 210.5 -43 q92.5 -43 156.5 -116 q64 -73 98 -169.5 q34 -96.5 34 -203.5 q0 -138 -44.5 -259.5 q-44.5 -121.5 -123.5 -223 q-79 -101.5 -188 -182 q-109 -80.5 -238 -136.5 q-27 -12 -58.5 -25 q-31.5 -13 -66.5 -24 q-35 -11 -73 -18 q-38 -7 -77 -7 q-23 0 -34 3 q-11 3 -11 17 ZM542 531 q40 0 78.5 13 q38.5 13 70.5 38 q15 11 23.5 45 q8.5 34 13.5 76 q5 42 6.5 84.5 q1.5 42.5 1.5 71.5 q0 41 -2.5 89.5 q-2.5 48.5 -10.5 97.5 q-8 49 -23 94.5 q-15 45.5 -40.5 81 q-25.5 35.5 -63 56.5 q-37.5 21 -89.5 21 q-65 0 -104.5 -40 q-39.5 -40 -60.5 -101.5 q-21 -61.5 -28 -134.5 q-7 -73 -7 -139 q0 -62 15 -125 q15 -63 44.5 -113.5 q29.5 -50.5 73.5 -82.5 q44 -32 102 -32 Z" /><glyph glyph-name="colon" unicode=":" d="M130 775 q0 34 13 64.5 q13 30.5 36 53.5 q23 23 53 36 q30 13 65 13 q34 0 64.5 -13 q30.5 -13 53.5 -36 q23 -23 36 -53.5 q13 -30.5 13 -64.5 q0 -35 -13 -65 q-13 -30 -36 -53 q-23 -23 -53.5 -36 q-30.5 -13 -64.5 -13 q-35 0 -65 13 q-30 13 -53 36 q-23 23 -36 53 q-13 30 -13 65 ZM130 127 q0 34 13 64.5 q13 30.5 36 53.5 q23 23 53 36 q30 13 65 13 q34 0 64.5 -13 q30.5 -13 53.5 -36 q23 -23 36 -53.5 q13 -30.5 13 -64.5 q0 -35 -13 -65 q-13 -30 -36 -53 q-23 -23 -53.5 -36 q-30.5 -13 -64.5 -13 q-35 0 -65 13 q-30 13 -53 36 q-23 23 -36 53 q-13 30 -13 65 Z" /><glyph glyph-name="semicolon" unicode=";" d="M138 772 q0 34 13 64.5 q13 30.5 36 53.5 q23 23 53 36 q30 13 65 13 q34 0 64.5 -13 q30.5 -13 53.5 -36 q23 -23 36 -53.5 q13 -30.5 13 -64.5 q0 -35 -13 -65 q-13 -30 -36 -53 q-23 -23 -53.5 -36 q-30.5 -13 -64.5 -13 q-35 0 -65 13 q-30 13 -53 36 q-23 23 -36 53 q-13 30 -13 65 ZM209 -302 q-20 0 -25 13 q-5 13 -5 24 q1 13 8.5 24 q7.5 11 18.5 20 q11 9 22.5 17.5 q11.5 8.5 20.5 16.5 q14 14 29 31 q15 17 27 36 q12 19 20 39 q8 20 8 40 q0 8 -2.5 17 q-2.5 9 -19.5 9 q-32 0 -65.5 10 q-33.5 10 -61.5 30 q-28 20 -45.5 49.5 q-17.5 29.5 -17.5 68.5 q0 38 12 67.5 q12 29.5 34 49.5 q22 20 51.5 30.5 q29.5 10.5 65.5 10.5 q62 0 100.5 -23.5 q38.5 -23.5 59.5 -57 q21 -33.5 28 -70 q7 -36.5 7 -63.5 q0 -54 -17 -106 q-17 -52 -44.5 -98 q-27.5 -46 -63.5 -85 q-36 -39 -74 -67 q-15 -11 -34.5 -22 q-19.5 -11 -36.5 -11 Z" /><glyph glyph-name="less" unicode="&lt;" d="M438 625 q112 -67 228.5 -136.5 q116.5 -69.5 228.5 -135.5 l0 -224 l-741 441 l0 106 l741 433 l0 -218 l-457 -266 Z" /><glyph glyph-name="equal" unicode="=" d="M980 904 l0 -187 l-910 0 l0 187 l910 0 ZM980 534 l0 -187 l-910 0 l0 187 l910 0 Z" /><glyph glyph-name="greater" unicode="&gt;" d="M154 892 l0 218 l741 -433 l0 -106 l-741 -441 l0 224 q112 66 228.5 135.5 q116.5 69.5 228.5 136.5 l-457 266 Z" /><glyph glyph-name="question" unicode="?" d="M272 358 q-8 0 -19.5 14.5 q-11.5 14.5 -23.5 38 q-12 23.5 -23.5 52.5 q-11.5 29 -21 57.5 q-9.5 28.5 -16 54 q-6.5 25.5 -7.5 41.5 q0 64 25 104 q25 40 64.5 67 q39.5 27 88.5 45 q49 18 96 38 q31 13 58.5 30 q27.5 17 48 39.5 q20.5 22.5 32.5 52 q12 29.5 12 67.5 q0 46 -21 76 q-21 30 -67 47.5 q-46 17.5 -120 24 q-74 6.5 -180 6.5 q-18 1 -37 8.5 q-19 7.5 -34.5 19.5 q-15.5 12 -26 29.5 q-10.5 17.5 -10.5 38.5 q0 30 9 56.5 q9 26.5 29 46.5 q20 20 52.5 31.5 q32.5 11.5 79.5 11.5 q84 0 156 -35 q72 -35 124.5 -94.5 q52.5 -59.5 82.5 -137 q30 -77.5 30 -162.5 q0 -59 -18 -119 q-18 -60 -50 -113.5 q-32 -53.5 -76 -96.5 q-44 -43 -96 -68 q-25 -12 -50.5 -22 q-25.5 -10 -45.5 -24.5 q-20 -14.5 -33 -36.5 q-13 -22 -13 -58 q0 -21 2 -31 q2 -10 6.5 -18.5 q4.5 -8.5 10.5 -19.5 q6 -11 15 -33 q0 -2 -4.5 -7 q-4.5 -5 -10 -9.5 q-5.5 -4.5 -11 -8 q-5.5 -3.5 -7.5 -3.5 ZM116 115 q0 31 12 59 q12 28 32.5 49 q20.5 21 48 33 q27.5 12 59.5 12 q31 0 59 -12 q28 -12 48 -33 q20 -21 32 -49 q12 -28 12 -59 q0 -31 -12 -59 q-12 -28 -32 -49.5 q-20 -21.5 -48 -34 q-28 -12.5 -59 -12.5 q-32 0 -59.5 12.5 q-27.5 12.5 -48 34 q-20.5 21.5 -32.5 49.5 q-12 28 -12 59 Z" /><glyph glyph-name="at" unicode="@" d="M1949 162 q-52 -137 -133.5 -249.5 q-81.5 -112.5 -190 -195.5 q-108.5 -83 -242.5 -132.5 q-134 -49.5 -291 -59.5 q-134 0 -256 31 q-122 31 -227 88.5 q-105 57.5 -189.5 140 q-84.5 82.5 -144.5 184.5 q-60 102 -92.5 222.5 q-32.5 120.5 -32.5 254.5 q0 134 32.5 261.5 q32.5 127.5 92.5 241 q60 113.5 144.5 208.5 q84.5 95 189 164 q104.5 69 226.5 107.5 q122 38.5 256 38.5 q126 0 233 -28.5 q107 -28.5 193.5 -78.5 q86.5 -50 152 -119 q65.5 -69 109.5 -150.5 q44 -81.5 66.5 -171.5 q22.5 -90 22.5 -183 q0 -111 -24 -209 q-24 -98 -66 -180.5 q-42 -82.5 -98.5 -147.5 q-56.5 -65 -121.5 -110.5 q-65 -45.5 -135 -69.5 q-70 -24 -139 -24 q-31 0 -72.5 3 q-41.5 3 -78.5 17 q-37 14 -63 44.5 q-26 30.5 -26 84.5 q0 44 5.5 73 q5.5 29 10.5 53 q-8 -8 -18 -16 q-10 -8 -21 -18 q-34 -30 -75 -65.5 q-41 -35.5 -82 -66 q-41 -30.5 -78 -51 q-37 -20.5 -63 -20.5 q-32 0 -55 15.5 q-23 15.5 -39 41 q-16 25.5 -26 57 q-10 31.5 -15.5 63.5 q-5.5 32 -7.5 60.5 q-2 28.5 -2 48.5 q0 96 33.5 185 q33.5 89 90.5 167 q57 78 133.5 142 q76.5 64 163.5 110 q87 46 179 71.5 q92 25.5 181 25.5 q18 0 27.5 -5.5 q9.5 -5.5 14 -14.5 q4.5 -9 5 -19.5 q0.5 -10.5 0.5 -19.5 l-152 -697 l1 2 l-2 -16 q-1 -6 -1.5 -12 q-0.5 -6 -0.5 -9 q0 -46 25.5 -70.5 q25.5 -24.5 66.5 -24.5 q54 0 103.5 25.5 q49.5 25.5 93 69.5 q43.5 44 79.5 101.5 q36 57.5 61.5 122 q25.5 64.5 39.5 131 q14 66.5 14 127.5 q0 119 -41.5 228 q-41.5 109 -123 194 q-81.5 85 -201.5 138 q-120 53 -277 61 q-111 -7 -214 -44.5 q-103 -37.5 -192.5 -98.5 q-89.5 -61 -163 -142.5 q-73.5 -81.5 -126 -177.5 q-52.5 -96 -81.5 -203.5 q-29 -107.5 -29 -219.5 q0 -173 61 -317 q61 -144 169 -248.5 q108 -104.5 255.5 -162.5 q147.5 -58 320.5 -58 q133 0 246 38.5 q113 38.5 204.5 109.5 q91.5 71 162.5 171.5 q71 100.5 120 223.5 l97 0 l28 -41 ZM772 348 q0 -17 1.5 -38.5 q1.5 -21.5 7 -40.5 q5.5 -19 16.5 -32 q11 -13 31 -13 q33 0 70 25.5 q37 25.5 72 61 q35 35.5 66.5 72 q31.5 36.5 52.5 59.5 l92 404 q-45 -1 -91.5 -14 q-46.5 -13 -88.5 -35.5 q-42 -22.5 -77.5 -54 q-35.5 -31.5 -59.5 -69.5 q-48 -76 -67.5 -156 q-19.5 -80 -24.5 -169 Z" /><glyph glyph-name="A" unicode="a" d="M5 47 q0 8 8 8 q19 1 44.5 5.5 q25.5 4.5 52 19 q26.5 14.5 51.5 43 q25 28.5 42 78.5 l402 1166 q0 -1 0.5 1 q0.5 2 0.5 4 q0 7 -5.5 17.5 q-5.5 10.5 -5.5 15.5 q0 5 4 5 l290 0 q2 -1 5.5 -2 q3.5 -1 5.5 -6 l423 -1187 q10 -28 19 -48 q9 -20 21.5 -35.5 q12.5 -15.5 31.5 -28 q19 -12.5 49 -25.5 q14 -7 38 -15 q24 -8 46 -8 q5 0 6.5 -3 q1.5 -3 1.5 -6 l0 -38 q0 -2 -1.5 -5 q-1.5 -3 -6.5 -3 l-702 0 q-5 0 -6.5 3 q-1.5 3 -1.5 5 l0 39 q0 2 1.5 5 q1.5 3 6.5 3 q4 0 8 0.5 q4 0.5 6 0.5 q11 1 31.5 2 q20.5 1 44.5 3.5 q24 2.5 48.5 8 q24.5 5.5 44.5 16 q20 10.5 33 27.5 q13 17 13 42 q0 6 -2 14 l-131 361 q-1 2 -3.5 9 q-2.5 7 -8 14.5 q-5.5 7.5 -14 13.5 q-8.5 6 -20.5 6 l-361 0 q-13 0 -22 -6 q-9 -6 -15 -13 q-6 -7 -9.5 -14 q-3.5 -7 -3.5 -8 q-32 -94 -54 -158.5 q-22 -64.5 -36.5 -106.5 q-14.5 -42 -22.5 -65 q-8 -23 -11.5 -33.5 q-3.5 -10.5 -4 -13 q-0.5 -2.5 -0.5 -2.5 q0 -3 1 -6.5 q1 -3.5 2 -6.5 q8 -25 29.5 -41.5 q21.5 -16.5 49.5 -26 q28 -9.5 57.5 -13.5 q29.5 -4 52.5 -4 l26 0 q5 0 6.5 -3 q1.5 -3 1.5 -5 l0 -39 q0 -2 -1.5 -5 q-1.5 -3 -6.5 -3 l-541 0 q-8 0 -8 8 l0 39 ZM529 717 q-2 -5 -3 -10 q-1 -5 -1 -10 q0 -6 3 -9.5 q3 -3.5 12 -3.5 l300 0 q11 0 14.5 4.5 q3.5 4.5 3.5 10.5 q0 5 -1 9 q-1 4 -3 9 l-133 365 q-5 14 -15 20.5 q-10 6.5 -18 6.5 q-8 0 -18 -7.5 q-10 -7.5 -15 -20.5 l-126 -364 Z" /><glyph glyph-name="B" unicode="b" d="M10 47 q0 2 1.5 5 q1.5 3 6.5 3 q19 0 48 2 q29 2 61.5 7.5 q32.5 5.5 65.5 15.5 q33 10 59 25 q26 15 42.5 36 q16.5 21 16.5 50 l0 1025 q0 51 -15 79.5 q-15 28.5 -40.5 42.5 q-25.5 14 -59.5 17.5 q-34 3.5 -73 3.5 l-57 0 q-5 0 -6.5 3 q-1.5 3 -1.5 5 l0 40 q0 2 1.5 5 q1.5 3 6.5 3 q1 0 10.5 0.5 q9.5 0.5 33.5 0.5 q24 0 65 0.5 q41 0.5 107 0.5 q14 0 48.5 1 q34.5 1 79 2 q44.5 1 94 2.5 q49.5 1.5 94 2.5 q44.5 1 79.5 2 q35 1 51 1 q51 0 113.5 -3.5 q62.5 -3.5 126 -15.5 q63.5 -12 123.5 -34.5 q60 -22.5 106.5 -60 q46.5 -37.5 74.5 -92.5 q28 -55 28 -132 q0 -46 -14.5 -84 q-14.5 -38 -37 -67.5 q-22.5 -29.5 -48.5 -51 q-26 -21.5 -48.5 -36 q-22.5 -14.5 -39 -21.5 q-16.5 -7 -18.5 -8 q57 -32 108.5 -70 q51.5 -38 90.5 -85.5 q39 -47.5 61.5 -104.5 q22.5 -57 22.5 -126 q0 -81 -22 -143 q-22 -62 -58 -108 q-36 -46 -82.5 -77.5 q-46.5 -31.5 -95.5 -52 q-49 -20.5 -97.5 -32 q-48.5 -11.5 -88.5 -16.5 q-40 -5 -67.5 -6 q-27.5 -1 -35.5 -1 l-812 0 q-5 0 -6.5 3 q-1.5 3 -1.5 5 l0 39 ZM601 266 q0 -39 20 -70.5 q20 -31.5 51 -54 q31 -22.5 69.5 -35 q38.5 -12.5 76.5 -12.5 q64 0 113 24 q49 24 81 67 q32 43 48.5 102.5 q16.5 59.5 16.5 130.5 q0 85 -26 149 q-26 64 -73 107 q-47 43 -112 64.5 q-65 21.5 -143 21.5 l-109 0 q-10 0 -11.5 -3.5 q-1.5 -3.5 -1.5 -7.5 l0 -483 ZM778 852 q48 0 89.5 17.5 q41.5 17.5 72 48.5 q30.5 31 48 73.5 q17.5 42.5 17.5 92.5 q0 76 -18.5 125.5 q-18.5 49.5 -54.5 78.5 q-36 29 -89.5 40.5 q-53.5 11.5 -123.5 11.5 q-15 0 -35.5 -2 q-20.5 -2 -39.5 -7.5 q-19 -5.5 -32 -15.5 q-13 -10 -13 -26 l0 -418 q0 -3 3 -11 q3 -8 20 -8 l156 0 Z" /><glyph glyph-name="C" unicode="c" d="M105 696 q0 112 28 211.5 q28 99.5 79 183.5 q51 84 123 151 q72 67 159.5 113.5 q87.5 46.5 187.5 71.5 q100 25 209 25 q92 0 177.5 -16.5 q85.5 -16.5 176.5 -38.5 q15 -4 31.5 -10 q16.5 -6 31 -11.5 q14.5 -5.5 26.5 -9.5 q12 -4 18 -4 q2 0 13.5 4 q11.5 4 16.5 4 l46 0 q12 0 12 -17 l0 -326 q0 -6 -4.5 -8 q-4.5 -2 -19.5 -2 q-3 0 -15.5 0.5 q-12.5 0.5 -15.5 5.5 q-2 3 -7.5 12 q-5.5 9 -12 18.5 q-6.5 9.5 -12 18 q-5.5 8.5 -6.5 11.5 q-38 75 -83 126.5 q-45 51.5 -99.5 83.5 q-54.5 32 -118.5 46.5 q-64 14.5 -139 14.5 q-95 0 -168.5 -22 q-73.5 -22 -128.5 -62 q-55 -40 -92.5 -96 q-37.5 -56 -61 -122.5 q-23.5 -66.5 -34 -142 q-10.5 -75.5 -10.5 -155.5 q0 -85 12 -168.5 q12 -83.5 39 -159 q27 -75.5 69.5 -140 q42.5 -64.5 102.5 -112 q60 -47.5 140 -74.5 q80 -27 181 -27 q85 0 158.5 25.5 q73.5 25.5 134.5 69 q61 43.5 108.5 100 q47.5 56.5 81.5 118.5 q2 5 4.5 5.5 q2.5 0.5 7.5 0.5 l51 0 q3 0 6.5 -2.5 q3.5 -2.5 3.5 -10.5 q0 -3 -4.5 -15.5 q-4.5 -12.5 -9.5 -21.5 l-138 -304 q-2 -3 -6 -5 q-4 -2 -7 -2 q-24 0 -33.5 4 q-9.5 4 -19.5 4 q-30 0 -79.5 -10.5 q-49.5 -10.5 -107 -22.5 q-57.5 -12 -116 -22.5 q-58.5 -10.5 -104.5 -10.5 q-105 0 -204 23 q-99 23 -186 66.5 q-87 43.5 -159 107 q-72 63.5 -124 143.5 q-52 80 -80.5 176.5 q-28.5 96.5 -28.5 206.5 Z" /><glyph glyph-name="D" unicode="d" d="M53 0 q-6 0 -7 3.5 q-1 3.5 -1 4.5 l0 43 q0 1 1 4.5 q1 3.5 7 3.5 l22 0 q21 0 52 2.5 q31 2.5 60 14 q29 11.5 49.5 35 q20.5 23.5 20.5 64.5 l0 1066 q0 31 -13.5 52.5 q-13.5 21.5 -34 35 q-20.5 13.5 -45.5 19.5 q-25 6 -47 6 l-64 0 q-6 0 -7 3.5 q-1 3.5 -1 4.5 l0 43 q0 1 1 4.5 q1 3.5 7 3.5 l22 0 l411 7 q58 1 125.5 1.5 q67.5 0.5 125.5 0.5 q63 0 113 -1.5 q50 -1.5 96 -6 q46 -4.5 93 -11.5 q47 -7 105 -19 q111 -23 206.5 -85 q95.5 -62 165 -150 q69.5 -88 109 -195 q39.5 -107 39.5 -219 q0 -108 -30 -204.5 q-30 -96.5 -83.5 -178 q-53.5 -81.5 -127 -147 q-73.5 -65.5 -161.5 -111 q-88 -45.5 -187 -70 q-99 -24.5 -203 -24.5 l-790 0 l-29 0 ZM542 155 q0 -29 18.5 -45 q18.5 -16 49 -23.5 q30.5 -7.5 71.5 -8.5 q41 -1 86 -1 q297 0 445.5 164 q148.5 164 148.5 478 q0 138 -33.5 253 q-33.5 115 -102 198 q-68.5 83 -172 129 q-103.5 46 -244.5 46 l-242 0 q-15 0 -20 -6.5 q-5 -6.5 -5 -20.5 l0 -1158 l0 -5 Z" /><glyph glyph-name="E" unicode="e" d="M7 51 q0 1 1 4.5 q1 3.5 7 3.5 l22 0 q42 3 86 3.5 q44 0.5 80 11 q36 10.5 59 37 q23 26.5 23 82.5 l0 1024 q0 39 -16 63.5 q-16 24.5 -42 39.5 q-26 15 -59 22.5 q-33 7.5 -67 12.5 l-21 0 q-5 0 -6.5 3 q-1.5 3 -1.5 5 l0 39 q0 2 1.5 5 q1.5 3 6.5 3 l996 0 q18 0 26 -6.5 q8 -6.5 10 -28.5 l18 -320 q0 -5 -8.5 -7.5 q-8.5 -2.5 -15.5 -2.5 q-8 0 -16 2 q-8 2 -11 6 q-7 10 -10 29.5 q-3 19.5 -6.5 43.5 q-3.5 24 -10 50 q-6.5 26 -19.5 48 q-13 22 -35.5 38.5 q-22.5 16.5 -57.5 22.5 l-357 0 q-13 0 -13 -13 l0 -477 q0 -10 10 -10 l286 0 q25 0 49.5 6.5 q24.5 6.5 43 23.5 q18.5 17 30 47.5 q11.5 30.5 11.5 78.5 q0 8 8 8 l39 0 q8 0 8 -8 l0 -458 q0 -5 -3 -6.5 q-3 -1.5 -5 -1.5 l-39 0 q-5 0 -6.5 3 q-1.5 3 -1.5 5 q0 56 -11.5 90.5 q-11.5 34.5 -30.5 54 q-19 19.5 -43.5 26 q-24.5 6.5 -51.5 6.5 l-283 0 q-10 0 -10 -10 l0 -437 q0 -29 9 -46.5 q9 -17.5 24.5 -26.5 q15.5 -9 35.5 -12 q20 -3 42 -3 l273 0 q58 0 97 26.5 q39 26.5 63 64.5 q24 38 35.5 79 q11.5 41 14.5 70 q2 13 13 20.5 q11 7.5 25 7.5 q5 0 12 -4 q7 -4 7 -9 l-33 -366 q-2 -5 -5.5 -9.5 q-3.5 -4.5 -8.5 -4.5 l-1159 0 q-6 0 -7 3.5 q-1 3.5 -1 4.5 l0 14 l0 29 Z" /><glyph glyph-name="F" unicode="f" d="M888 819 q14 0 37 2.5 q23 2.5 44.5 15 q21.5 12.5 37 39 q15.5 26.5 15.5 74.5 q0 8 8 8 l39 0 q8 0 8 -8 l0 -402 q0 -5 -3 -6.5 q-3 -1.5 -5 -1.5 l-39 0 q-5 0 -6.5 3 q-1.5 3 -1.5 5 q0 54 -15.5 83.5 q-15.5 29.5 -36.5 43.5 q-21 14 -43.5 16.5 q-22.5 2.5 -36.5 2.5 l-334 0 q-12 0 -18 -7.5 q-6 -7.5 -6 -19.5 l0 -479 q0 -27 10.5 -45.5 q10.5 -18.5 29 -32 q18.5 -13.5 43.5 -23.5 q25 -10 55 -19 q15 -5 32 -9 q17 -4 28 -4 q6 0 7 -3.5 q1 -3.5 1 -4.5 l0 -39 q0 -2 -1.5 -5 q-1.5 -3 -6.5 -3 l-636 0 q-5 0 -6.5 3 q-1.5 3 -1.5 5 l0 39 q0 2 1 5 q1 3 7 3 q11 0 28.5 4.5 q17.5 4.5 26.5 8.5 q43 19 70.5 50.5 q27.5 31.5 27.5 76.5 l0 1065 q0 38 -21 60 q-21 22 -47.5 33 q-26.5 11 -50 14 q-23.5 3 -29.5 3 l-4 0 q-5 0 -6.5 3 q-1.5 3 -1.5 5 l0 24 q0 2 1.5 5 q1.5 3 6.5 3 l988 0 q12 -2 18 -5.5 q6 -3.5 6 -17.5 l0 -272 q0 -12 -7 -15 q-7 -3 -16 -3 l-20 0 q-2 1 -5.5 17.5 q-3.5 16.5 -9.5 39 q-6 22.5 -14.5 45 q-8.5 22.5 -19.5 35.5 q-14 15 -27 25 q-13 10 -29 16 q-16 6 -37 8 q-21 2 -51 2 l-319 0 q-20 0 -20 -20 l0 -423 q0 -23 24 -23 l332 0 l0 0 Z" /><glyph glyph-name="G" unicode="g" d="M115 717 q0 101 27 194 q27 93 76 174.5 q49 81.5 117.5 148 q68.5 66.5 150.5 114.5 q82 48 175.5 74 q93.5 26 192.5 26 q53 0 108 -6.5 q55 -6.5 107.5 -16.5 q52.5 -10 99.5 -22 q47 -12 82.5 -22 q35.5 -10 58 -16.5 q22.5 -6.5 25.5 -6.5 l12 0 q8 0 12.5 1.5 q4.5 1.5 8 3.5 q3.5 2 7.5 3.5 q4 1.5 12 1.5 l40 0 q2 0 6.5 -1.5 q4.5 -1.5 4.5 -9.5 l0 -333 q0 -11 -9.5 -15 q-9.5 -4 -16.5 -4 q-9 1 -16 10 q-7 9 -13 20 q-6 11 -10 21 q-4 10 -5 15 q-25 78 -70.5 131.5 q-45.5 53.5 -107 87.5 q-61.5 34 -135 49 q-73.5 15 -154.5 15 q-139 0 -232 -51 q-93 -51 -149.5 -137 q-56.5 -86 -80 -198.5 q-23.5 -112.5 -23.5 -236.5 q0 -85 17 -167 q17 -82 48.5 -155.5 q31.5 -73.5 76.5 -135 q45 -61.5 100.5 -106 q55.5 -44.5 120 -69.5 q64.5 -25 136.5 -25 q81 0 142.5 17.5 q61.5 17.5 99.5 68.5 l0 221 q0 43 -10.5 76.5 q-10.5 33.5 -38.5 56.5 q-28 23 -76 35 q-48 12 -123 12 q-6 0 -8.5 11.5 q-2.5 11.5 -2.5 19.5 q0 5 2.5 17 q2.5 12 8.5 12 l696 0 q8 0 9.5 -11.5 q1.5 -11.5 1.5 -17.5 q0 -5 -2 -16 q-2 -11 -9 -15 q-27 -11 -55.5 -19 q-28.5 -8 -52.5 -21 q-24 -13 -39.5 -35.5 q-15.5 -22.5 -15.5 -61.5 l0 -292 q0 -8 -6.5 -13 q-6.5 -5 -20.5 -11 q-56 -27 -127 -51 q-71 -24 -146 -42.5 q-75 -18.5 -149 -29.5 q-74 -11 -135 -11 q-155 0 -290 51.5 q-135 51.5 -236 148 q-101 96.5 -159 234.5 q-58 138 -58 310 Z" /><glyph glyph-name="H" unicode="h" d="M68 0 q-5 0 -6.5 3 q-1.5 3 -1.5 5 l0 54 q0 2 1.5 5 q1.5 3 6.5 3 q31 0 62.5 4.5 q31.5 4.5 57.5 19.5 q26 15 42.5 43 q16.5 28 16.5 76 l0 1002 q0 34 -11 57 q-11 23 -31 37.5 q-20 14.5 -48 21.5 q-28 7 -62 9 q-8 0 -8 8 l0 54 q0 8 7 8 l592 0 q5 0 6.5 -3 q1.5 -3 1.5 -5 l0 -54 q0 -6 -8 -6 q-30 0 -58 -5.5 q-28 -5.5 -49 -20.5 q-21 -15 -34 -42.5 q-13 -27.5 -13 -72.5 l0 -412 q0 -10 3 -13 q3 -3 13 -3 l698 0 q10 0 13 3 q3 3 3 13 l0 428 q0 35 -22 58 q-22 23 -55.5 36.5 q-33.5 13.5 -72.5 20 q-39 6.5 -72 8.5 q-8 0 -8 8 l0 54 q0 8 7 8 l667 0 q5 0 6.5 -3 q1.5 -3 1.5 -5 l0 -54 q0 -6 -8 -6 q-30 0 -58.5 -5.5 q-28.5 -5.5 -51 -20.5 q-22.5 -15 -36 -42.5 q-13.5 -27.5 -13.5 -72.5 l0 -990 q0 -26 7.5 -46.5 q7.5 -20.5 23.5 -40.5 q16 -22 52.5 -37 q36.5 -15 103.5 -17 q8 0 8 -8 l0 -54 q0 -8 -8 -8 l-726 0 q-5 0 -6.5 3 q-1.5 3 -1.5 5 l0 54 q0 2 1.5 5 q1.5 3 6.5 3 q30 0 73 4 q43 4 83.5 17.5 q40.5 13.5 69 39 q28.5 25.5 28.5 69.5 l0 432 q0 10 -3 13 q-3 3 -13 3 l-698 0 q-10 0 -13 -3 q-3 -3 -3 -13 l0 -442 q0 -34 15 -57 q15 -23 39.5 -37 q24.5 -14 56.5 -20 q32 -6 66 -6 q6 0 7 -3 q1 -3 1 -5 l0 -54 q0 -2 -1 -5 q-1 -3 -6 -3 l-642 0 l0 0 Z" /><glyph glyph-name="I" unicode="i" d="M537 190 q0 -34 10.5 -57 q10.5 -23 30 -37 q19.5 -14 48 -20 q28.5 -6 63.5 -6 q8 0 8 -8 l0 -54 q0 -3 -1 -5.5 q-1 -2.5 -7 -2.5 l-591 0 q-5 0 -6.5 3 q-1.5 3 -1.5 5 l0 54 q0 2 1.5 5 q1.5 3 6.5 3 q35 0 63.5 4.5 q28.5 4.5 48.5 19.5 q20 15 31 43 q11 28 11 76 l0 1007 q0 34 -10.5 57 q-10.5 23 -30 37 q-19.5 14 -48 20 q-28.5 6 -63.5 6 q-8 0 -8 8 l0 54 q0 8 8 8 l591 0 q5 0 6.5 -3 q1.5 -3 1.5 -5 l0 -54 q0 -2 -1.5 -5 q-1.5 -3 -6.5 -3 q-35 0 -63.5 -4.5 q-28.5 -4.5 -48.5 -19.5 q-20 -15 -31 -43 q-11 -28 -11 -76 l0 -1007 l0 0 Z" /><glyph glyph-name="J" unicode="j" d="M246 1235 q0 38 -13.5 61.5 q-13.5 23.5 -38.5 36.5 q-25 13 -61 17.5 q-36 4.5 -81 4.5 q-8 0 -8 8 l0 39 q0 8 8 8 l633 0 q5 0 6.5 -3 q1.5 -3 1.5 -5 l0 -39 q0 -2 -1.5 -5 q-1.5 -3 -6.5 -3 q-31 0 -59 -4.5 q-28 -4.5 -49 -19.5 q-21 -15 -33.5 -43 q-12.5 -28 -12.5 -76 l0 -1222 q0 -74 -14.5 -149.5 q-14.5 -75.5 -44 -145.5 q-29.5 -70 -74.5 -131 q-45 -61 -105 -106.5 q-60 -45.5 -135.5 -71.5 q-75.5 -26 -167.5 -26 q-125 0 -182 29.5 q-57 29.5 -58 75.5 q0 21 9.5 39.5 q9.5 18.5 24 32.5 q14.5 14 32.5 22 q18 8 36 8 q30 0 52 -7 q22 -7 38.5 -17.5 q16.5 -10.5 29 -23 q12.5 -12.5 26 -23 q13.5 -10.5 28 -17.5 q14.5 -7 35.5 -7 q45 0 76.5 18 q31.5 18 52 49.5 q20.5 31.5 32 73.5 q11.5 42 17 89.5 q5.5 47.5 6.5 98 q1 50.5 1 99.5 l0 1335 l0 0 Z" /><glyph glyph-name="K" unicode="k" d="M248 1235 q0 34 -18.5 57 q-18.5 23 -47.5 37.5 q-29 14.5 -64.5 21.5 q-35.5 7 -69.5 9 q-8 0 -8 8 l0 34 q0 8 7 8 l678 0 q5 0 6.5 -3 q1.5 -3 1.5 -5 l0 -34 q0 -6 -8 -6 q-29 0 -62.5 -5 q-33.5 -5 -62.5 -19 q-29 -14 -48 -39 q-19 -25 -19 -66 l0 -411 q0 -42 3 -65 q3 -23 14 -23 q6 0 11.5 0.5 q5.5 0.5 10.5 3.5 q57 26 102.5 63 q45.5 37 84 81 q38.5 44 72 93 q33.5 49 66.5 100 q18 28 38 55.5 q20 27.5 36.5 53.5 q16.5 26 27.5 50.5 q11 24.5 11 48.5 q0 27 -13 42.5 q-13 15.5 -33 23 q-20 7.5 -43 9.5 q-23 2 -43 2 l-10 0 q-5 0 -6.5 3 q-1.5 3 -1.5 5 l0 34 q0 2 1 5 q1 3 7 3 l608 0 q5 0 6.5 -3 q1.5 -3 1.5 -5 l0 -34 q0 -3 -3 -7.5 q-3 -4.5 -9 -4.5 q-61 -2 -110.5 -10 q-49.5 -8 -90.5 -27 q-41 -19 -75.5 -52.5 q-34.5 -33.5 -65.5 -85.5 q-53 -90 -95 -154 q-42 -64 -74.5 -108 q-32.5 -44 -55.5 -71 q-23 -27 -38.5 -44.5 q-15.5 -17.5 -24 -29 q-8.5 -11.5 -10.5 -22.5 q5 -10 23 -26.5 q18 -16.5 47.5 -43.5 q29.5 -27 70.5 -67 q41 -40 93 -98.5 q52 -58.5 115 -138 q63 -79.5 136 -183.5 q35 -51 88 -82 q53 -31 119 -45 q34 -8 54 -12 q20 -4 32 -5.5 q12 -1.5 19.5 -2 q7.5 -0.5 16.5 -0.5 q5 0 6.5 -3 q1.5 -3 1.5 -5 l0 -32 q0 -8 -8 -8 l-744 0 q-8 0 -8 8 l0 34 q0 7 8 8 q13 2 36.5 1.5 q23.5 -0.5 46 2.5 q22.5 3 39.5 14 q17 11 17 36 q-2 17 -22.5 50 q-20.5 33 -50.5 72.5 q-30 39.5 -64.5 80.5 q-34.5 41 -63.5 74 q-35 39 -66.5 79.5 q-31.5 40.5 -64.5 74 q-33 33.5 -69 54.5 q-36 21 -78 21 l-19 0 q-8 0 -9 -3.5 q-1 -3.5 -1 -10.5 l0 -423 q0 -45 18.5 -70 q18.5 -25 47 -37 q28.5 -12 62.5 -15 q34 -3 64 -3 q5 0 6.5 -3 q1.5 -3 1.5 -5 l0 -32 q0 -2 -1.5 -5 q-1.5 -3 -6.5 -3 l-678 0 q-7 0 -7 8 l0 34 q0 8 8 8 q34 1 69.5 8.5 q35.5 7.5 64.5 22 q29 14.5 47.5 37.5 q18.5 23 18.5 57 l0 1060 Z" /><glyph glyph-name="L" unicode="l" d="M48 0 q-5 0 -6.5 3 q-1.5 3 -1.5 5 l0 54 q0 2 1 5 q1 3 7 3 l24 0 q3 0 19.5 1.5 q16.5 1.5 38 5 q21.5 3.5 44.5 9.5 q23 6 39 15 q35 20 52 51.5 q17 31.5 17 70.5 l0 998 q0 36 -23.5 59 q-23.5 23 -56 36.5 q-32.5 13.5 -66 18.5 q-33.5 5 -53.5 5 l-22 0 q-5 0 -6.5 3.5 q-1.5 3.5 -1.5 4.5 l0 54 q0 2 1.5 5 q1.5 3 6.5 3 l767 0 q5 0 6.5 -3 q1.5 -3 1.5 -5 l0 -54 q0 -2 -1.5 -5 q-1.5 -3 -6.5 -3 l-43 0 q-56 0 -104 -9 q-48 -9 -78 -20 q-23 -8 -29.5 -26.5 q-6.5 -18.5 -6.5 -63.5 l0 -1049 q2 -17 18 -32 q16 -15 36 -15 l350 0 q35 0 66.5 15 q31.5 15 58.5 38.5 q27 23.5 50 51.5 q23 28 42 54 q19 26 34 46.5 q15 20.5 26 29.5 q5 3 11.5 6 q6.5 3 15.5 3 q17 0 17 -13 q0 -6 -3 -12 l-166 -326 q-4 -8 -9 -13 q-5 -5 -12 -5 l-1054 0 l0 0 Z" /><glyph glyph-name="M" unicode="m" d="M26 52 q0 2 1.5 5 q1.5 3 6.5 3 q66 0 102.5 15.5 q36.5 15.5 54 43 q17.5 27.5 21.5 65.5 q4 38 6 82 q6 129 14.5 250.5 q8.5 121.5 16.5 239 q8 117.5 14 232.5 q6 115 6 231 l0 37 q0 23 -15 40.5 q-15 17.5 -35.5 29.5 q-20.5 12 -41.5 18 q-21 6 -33 6 q-8 0 -8 8 l0 44 q0 2 1 5 q1 3 7 3 l354 0 q11 -2 18 -7.5 q7 -5.5 13 -14.5 l435 -970 q7 -17 18 -17 q11 0 16 5 q5 5 8 13 l430 951 q10 19 20 29.5 q10 10.5 20 10.5 l352 0 q6 0 7 -3 q1 -3 1 -5 l0 -44 q0 -2 -1.5 -5 q-1.5 -3 -6.5 -3 q-2 0 -23.5 -4 q-21.5 -4 -47 -15.5 q-25.5 -11.5 -46.5 -33 q-21 -21.5 -21 -56.5 l58 -1065 q1 -29 15.5 -49 q14.5 -20 35.5 -33 q21 -13 44.5 -19.5 q23.5 -6.5 44 -10 q20.5 -3.5 35 -4 q14.5 -0.5 15.5 -0.5 q5 0 6.5 -3 q1.5 -3 1.5 -5 l0 -44 q0 -2 -1.5 -5 q-1.5 -3 -6.5 -3 l-658 0 q-8 0 -8 8 l0 44 q0 8 8 8 q24 0 54.5 2.5 q30.5 2.5 58.5 11.5 q28 9 47 26.5 q19 17.5 19 46.5 l-46 817 q-1 10 -5 10 q-4 0 -8 -9 l-438 -948 q-5 -11 -13.5 -14 q-8.5 -3 -29.5 -3 q-36 0 -53.5 2 q-17.5 2 -23.5 16 l-426 939 q-3 7 -4.5 10.5 q-1.5 3.5 -5.5 3.5 q-7 0 -7 -13 q0 -30 -3 -88 q-3 -58 -8 -130.5 q-5 -72.5 -10 -153.5 q-5 -81 -10 -157 q-5 -76 -8 -141.5 q-3 -65.5 -3 -107.5 l0 -41 q4 -19 20 -34 q16 -15 40 -25 q24 -10 53 -15 q29 -5 61 -5 q5 0 5.5 -3 q0.5 -3 0.5 -5 l0 -44 q0 -8 -6 -8 l-497 0 q-8 0 -8 8 l0 44 Z" /><glyph glyph-name="N" unicode="n" d="M68 0 q-2 0 -5 2.5 q-3 2.5 -3 5.5 l0 44 q0 8 8 8 q11 0 25 0 q14 0 27.5 1 q13.5 1 24.5 2 q11 1 17 4 q25 12 41 32 q16 20 24.5 46 q8.5 26 11.5 57 q3 31 3 66 l0 999 q0 27 -21.5 43.5 q-21.5 16.5 -50 25 q-28.5 8.5 -58 11.5 q-29.5 3 -44.5 3 q-5 0 -6.5 3 q-1.5 3 -1.5 5 l0 44 q0 2 1.5 5 q1.5 3 6.5 3 l453 0 l862 -954 q5 -5 7 -7.5 q2 -2.5 5 -2.5 q4 0 5 3 q1 3 1 6 l0 594 q0 99 -7 158.5 q-7 59.5 -26 91 q-19 31.5 -51 41.5 q-32 10 -82 10 l-51 0 q-5 0 -6.5 3 q-1.5 3 -1.5 5 l0 44 q0 2 1.5 5 q1.5 3 6.5 3 l550 0 q6 0 7 -3 q1 -3 1 -5 l0 -44 q0 -2 -1.5 -5 q-1.5 -3 -6.5 -3 q-20 0 -51.5 -8 q-31.5 -8 -61.5 -23 q-30 -15 -51.5 -37 q-21.5 -22 -21.5 -50 l0 -1183 q0 -17 -8 -28.5 q-8 -11.5 -20.5 -18.5 q-12.5 -7 -27 -10.5 q-14.5 -3.5 -26.5 -3.5 q-20 0 -46.5 8.5 q-26.5 8.5 -52.5 37.5 l-944 1047 q-7 7 -10 8.5 q-3 1.5 -8 1.5 q-5 0 -5 -10 l0 -893 q0 -28 13.5 -48.5 q13.5 -20.5 34.5 -35 q21 -14.5 46.5 -23 q25.5 -8.5 50 -13.5 q24.5 -5 44 -6.5 q19.5 -1.5 29.5 -1.5 q5 0 7 -4 q1 -2 1 -4 l0 -44 q0 -2 -1.5 -5 q-1.5 -3 -6.5 -3 l-550 0 l0 0 Z" /><glyph glyph-name="O" unicode="o" d="M902 -26 q-35 0 -87.5 6 q-52.5 6 -115 22 q-62.5 16 -130.5 42 q-68 26 -133.5 66.5 q-65.5 40.5 -124.5 96 q-59 55.5 -103.5 129 q-44.5 73.5 -71 167.5 q-26.5 94 -26.5 211 q0 104 28.5 199 q28.5 95 81.5 177 q53 82 128.5 149 q75.5 67 168.5 114 q93 47 202 73 q109 26 229 26 q104 0 201.5 -25.5 q97.5 -25.5 182.5 -72 q85 -46.5 155.5 -111.5 q70.5 -65 121.5 -145 q51 -80 79 -172.5 q28 -92.5 28 -192.5 q0 -94 -27 -186.5 q-27 -92.5 -78 -177 q-51 -84.5 -123.5 -156.5 q-72.5 -72 -162.5 -125.5 q-90 -53.5 -197 -83.5 q-107 -30 -226 -30 ZM404 751 q0 -81 16.5 -162 q16.5 -81 48.5 -156 q32 -75 79 -140.5 q47 -65.5 107 -114 q60 -48.5 133.5 -76 q73.5 -27.5 159.5 -27.5 q121 0 210 51.5 q89 51.5 147.5 136.5 q58.5 85 87 195.5 q28.5 110.5 28.5 228.5 q0 86 -16.5 168.5 q-16.5 82.5 -48 157 q-31.5 74.5 -78 137 q-46.5 62.5 -107 108.5 q-60.5 46 -134 71.5 q-73.5 25.5 -159.5 25.5 q-77 0 -142 -24 q-65 -24 -117.5 -65.5 q-52.5 -41.5 -92.5 -99 q-40 -57.5 -67 -124.5 q-27 -67 -41 -141.5 q-14 -74.5 -14 -149.5 Z" /><glyph glyph-name="P" unicode="p" d="M100 0 q-8 0 -8 10 l0 42 q0 1 1 4.5 q1 3.5 7 3.5 q34 0 63.5 10 q29.5 10 51.5 27 q22 17 35 41 q13 24 13 52 l0 1016 q0 50 -10 78.5 q-10 28.5 -29.5 43 q-19.5 14.5 -49 18 q-29.5 3.5 -68.5 3.5 l-45 0 q-11 0 -16 12.5 q-5 12.5 -5 21.5 q0 5 2 15 q2 10 11 12 q1 0 6.5 0 q5.5 0 19.5 0.5 q14 0.5 37.5 1 q23.5 0.5 61.5 1.5 q55 1 117.5 3 q62.5 2 126.5 4 q64 2 126.5 3.5 q62.5 1.5 117.5 1.5 l141 0 q80 0 156 -27 q76 -27 135 -79.5 q59 -52.5 95 -130.5 q36 -78 36 -180 q0 -64 -19 -122.5 q-19 -58.5 -51.5 -107.5 q-32.5 -49 -75 -88.5 q-42.5 -39.5 -89 -66.5 q-46.5 -27 -94.5 -41 q-42 -11 -79 -11 q-6 0 -11 0 l-239 12 q-1 0 -8 0 q-7 0 -10 -2 q-3 -2 -4 -4 q-1 -2 -1 -8 l0 -376 q0 -39 21.5 -64.5 q21.5 -25.5 56 -40.5 q34.5 -15 77.5 -21.5 q43 -6.5 85 -6.5 q6 0 7 -3 q1 -3 1 -5 l0 -44 q0 -2 -1.5 -5 q-1.5 -3 -6.5 -3 l-688 0 ZM550 696 q1 -8 4.5 -14.5 q3.5 -6.5 14.5 -7.5 q4 0 14.5 -1 q10.5 -1 24.5 -2 q14 -1 30.5 -2 q16.5 -1 32.5 -1 q67 0 117.5 27 q50.5 27 84 75.5 q33.5 48.5 50 115 q16.5 66.5 16.5 146.5 q0 165 -66 242 q-66 77 -194 77 q-14 0 -26 -0.5 q-12 -0.5 -24 -1 q-12 -0.5 -25.5 -1 q-13.5 -0.5 -30.5 -1.5 q-6 0 -15.5 -2.5 q-9.5 -2.5 -9.5 -13.5 l0 -605 l2 -30 Z" /><glyph glyph-name="Q" unicode="q" d="M880 -26 q-20 2 -42 4 q-22 2 -42 6 q-139 25 -263.5 88.5 q-124.5 63.5 -218.5 158 q-94 94.5 -149 215.5 q-55 121 -55 261 q0 165 62 301.5 q62 136.5 170.5 235 q108.5 98.5 257 152.5 q148.5 54 322.5 54 q111 0 212.5 -24.5 q101.5 -24.5 189 -69.5 q87.5 -45 159.5 -110.5 q72 -65.5 122.5 -146.5 q50.5 -81 78.5 -177.5 q28 -96.5 28 -204.5 q0 -119 -40 -224 q-40 -105 -110.5 -194 q-70.5 -89 -166 -161 q-95.5 -72 -205.5 -125 q43 -32 85.5 -64 q42.5 -32 79.5 -60.5 q37 -28.5 66.5 -51.5 q29.5 -23 47.5 -38 q10 -8 13.5 -11 q3.5 -3 5.5 -4 q42 -34 82.5 -63 q40.5 -29 75.5 -43 q5 -2 9.5 -3 q4.5 -1 11.5 -3 l-1 0 q15 -3 32 -7.5 q17 -4.5 31.5 -10 q14.5 -5.5 23.5 -11 q9 -5.5 9 -11.5 q0 -19 -15.5 -29.5 q-15.5 -10.5 -39.5 -15 q-24 -4.5 -52.5 -5.5 q-28.5 -1 -53.5 -1 q-82 0 -148 19 q-66 19 -129 56 q-47 28 -88 56.5 q-41 28.5 -78.5 57.5 q-37.5 29 -73.5 59.5 q-36 30.5 -74 64.5 q-32 29 -63.5 52.5 q-31.5 23.5 -66.5 27.5 ZM402 747 q0 -84 17.5 -166.5 q17.5 -82.5 51 -157.5 q33.5 -75 82 -138.5 q48.5 -63.5 110.5 -110 q62 -46.5 137 -73 q75 -26.5 161 -26.5 q97 0 182 43 q85 43 147.5 122 q62.5 79 98.5 191 q36 112 36 249 q0 125 -34 242.5 q-34 117.5 -101.5 210 q-67.5 92.5 -169 152 q-101.5 59.5 -236.5 70.5 q-111 0 -200.5 -49 q-89.5 -49 -152 -132.5 q-62.5 -83.5 -96 -193.5 q-33.5 -110 -33.5 -233 Z" /><glyph glyph-name="R" unicode="r" d="M44 52 q0 1 1 4.5 q1 3.5 7 3.5 q6 0 19 2 q13 2 27 4 q14 2 26 4.5 q12 2.5 17 3.5 q57 13 79.5 42.5 q22.5 29.5 22.5 73.5 l0 1016 q0 50 -21 79 q-21 29 -48.5 43.5 q-27.5 14.5 -53 18 q-25.5 3.5 -34.5 3.5 l-38 0 q-5 0 -6.5 3 q-1.5 3 -1.5 5 l0 44 q0 2 1 4.5 q1 2.5 7 3.5 q1 0 4.5 0 q3.5 0 14.5 0.5 q11 0.5 32 1 q21 0.5 59 1.5 q55 1 117.5 3 q62.5 2 126.5 4 q64 2 126.5 3.5 q62.5 1.5 117.5 1.5 l101 0 q79 0 161 -27 q82 -27 148.5 -79.5 q66.5 -52.5 109 -130.5 q42.5 -78 42.5 -180 q0 -66 -18 -117.5 q-18 -51.5 -49.5 -91 q-31.5 -39.5 -75 -69.5 q-43.5 -30 -94.5 -53 l303 -480 q39 -62 91 -112.5 q52 -50.5 121 -70.5 q8 -2 9.5 -5.5 q1.5 -3.5 1.5 -8.5 q0 -15 -8 -20 q-8 -5 -25 -5 q-42 0 -95.5 5.5 q-53.5 5.5 -107.5 18 q-54 12.5 -102.5 32.5 q-48.5 20 -81.5 50 q-32 28 -65 71 q-33 43 -66.5 92.5 q-33.5 49.5 -66 103 q-32.5 53.5 -63 104.5 q-30.5 51 -58.5 95 q-28 44 -51 75 l-156 11 q-1 0 -8 0 q-7 0 -10 -2 q-3 -2 -4 -4 q-1 -2 -1 -8 l0 -426 q0 -27 7 -47 q7 -20 23.5 -34.5 q16.5 -14.5 43 -23.5 q26.5 -9 64.5 -14 q6 -1 17.5 -3 q11.5 -2 25 -4.5 q13.5 -2.5 26.5 -4.5 q13 -2 22 -2 q6 0 7 -3 q1 -3 1 -5 l0 -44 q0 -2 -1.5 -5 q-1.5 -3 -6.5 -3 l-705 0 q-5 0 -6.5 14 q-1.5 14 -1.5 26 l0 12 ZM530 733 q1 -8 4.5 -14.5 q3.5 -6.5 14.5 -7.5 q9 -1 27 -3.5 q18 -2.5 50 -2.5 q88 0 145 27 q57 27 90 72.5 q33 45.5 45.5 104.5 q12.5 59 12.5 123 q0 67 -21 127 q-21 60 -58.5 104 q-37.5 44 -90 70 q-52.5 26 -115.5 26 q-14 0 -22 -0.5 q-8 -0.5 -15.5 -1 q-7.5 -0.5 -17 -1 q-9.5 -0.5 -26.5 -1.5 q-6 0 -15.5 -2.5 q-9.5 -2.5 -9.5 -13.5 l0 -576 l2 -30 Z" /><glyph glyph-name="S" unicode="s" d="M136 27 q-13 0 -16 21 q-11 94 -17 146 q-6 52 -8.5 78 q-2.5 26 -3 33.5 q-0.5 7.5 -0.5 10.5 q0 11 10 24 q10 13 24 13 q10 0 21.5 -12 q11.5 -12 22 -28 q10.5 -16 18 -32 q7.5 -16 9.5 -23 q26 -55 56.5 -92.5 q30.5 -37.5 69.5 -60 q39 -22.5 88 -32.5 q49 -10 112 -10 q107 0 166.5 51 q59.5 51 59.5 164 q0 65 -28.5 118 q-28.5 53 -74.5 98.5 q-46 45.5 -105 86.5 q-59 41 -121 83 q-62 42 -121 87.5 q-59 45.5 -105 100.5 q-46 55 -74.5 122 q-28.5 67 -28.5 151 q0 51 18.5 95 q18.5 44 49.5 80 q31 36 72.5 64.5 q41.5 28.5 88.5 48 q47 19.5 95.5 29.5 q48.5 10 94.5 10 q37 0 74.5 -6.5 q37.5 -6.5 74 -15.5 q36.5 -9 73.5 -19.5 q37 -10.5 73 -19.5 l66 6 q9 0 11.5 -7.5 q2.5 -7.5 3.5 -13.5 l29 -235 q0 -5 -13 -7 q-13 -2 -20 -2 q-6 0 -18 1.5 q-12 1.5 -14 3.5 q-3 3 -7.5 12.5 q-4.5 9.5 -9.5 21 q-5 11.5 -10.5 23.5 q-5.5 12 -11.5 21 q-48 74 -123 110.5 q-75 36.5 -165 36.5 q-39 0 -73 -9 q-34 -9 -59 -28.5 q-25 -19.5 -39.5 -49.5 q-14.5 -30 -14.5 -72 q0 -61 28.5 -110.5 q28.5 -49.5 75 -93 q46.5 -43.5 106 -84.5 q59.5 -41 121 -83.5 q61.5 -42.5 121 -90.5 q59.5 -48 106 -106 q46.5 -58 75 -129 q28.5 -71 28.5 -160 q0 -59 -20.5 -110 q-20.5 -51 -55.5 -92.5 q-35 -41.5 -82 -73.5 q-47 -32 -100.5 -53.5 q-53.5 -21.5 -110 -32.5 q-56.5 -11 -110.5 -11 q-68 0 -118.5 10 q-50.5 10 -87 22.5 q-36.5 12.5 -61.5 22.5 q-25 10 -42 10 q-6 0 -9 -1 l-64 -10 Z" /><glyph glyph-name="T" unicode="t" d="M608 1257 q0 21 -8.5 23.5 q-8.5 2.5 -20.5 4.5 l-339 0 q-37 -8 -58 -29.5 q-21 -21.5 -33 -50.5 q-12 -29 -18 -62.5 q-6 -33.5 -13 -64.5 q-2 -9 -4 -21.5 q-2 -12.5 -4 -14.5 q-2 -3 -7 -3 l-33 0 q-6 0 -6 4 l0 33 l37 342 q2 11 9 21 q7 10 22 10 q7 0 13.5 -4 q6.5 -4 12.5 -9.5 q6 -5.5 11.5 -10.5 q5.5 -5 11.5 -7 q12 -5 22.5 -6.5 q10.5 -1.5 23.5 -1.5 l1048 0 q13 0 23.5 1.5 q10.5 1.5 22.5 6.5 q6 2 11.5 7 q5.5 5 11.5 10.5 q6 5.5 12.5 9.5 q6.5 4 13.5 4 q15 0 22 -10 q7 -10 9 -21 l37 -342 l0 -33 q0 -4 -6 -4 l-33 0 q-5 0 -7 3 q-2 2 -4 14.5 q-2 12.5 -4 21.5 q-7 31 -13 64.5 q-6 33.5 -18 62.5 q-12 29 -33 50.5 q-21 21.5 -58 29.5 l-340 0 q-12 -2 -20.5 -4.5 q-8.5 -2.5 -8.5 -23.5 l0 -1062 q0 -30 15 -53.5 q15 -23.5 40.5 -41.5 q25.5 -18 60 -29 q34.5 -11 73.5 -15 q11 -1 28 -1 q17 0 29 0 q5 0 6.5 -3 q1.5 -3 1.5 -5 l0 -39 q0 -2 -1.5 -5 q-1.5 -3 -6.5 -3 l-777 0 q-5 0 -6.5 3 q-1.5 3 -1.5 5 l0 39 q0 2 1.5 5 q1.5 3 6.5 3 q11 0 28.5 0 q17.5 0 28.5 1 q39 4 73.5 15 q34.5 11 60 29 q25.5 18 40.5 41.5 q15 23.5 15 53.5 l0 1062 l0 0 Z" /><glyph glyph-name="U" unicode="u" d="M211 1235 q0 29 -13.5 51.5 q-13.5 22.5 -36.5 37.5 q-23 15 -53 23 q-30 8 -64 8 q-8 0 -8 8 l0 39 q0 8 7 8 l632 0 q5 0 6.5 -3 q1.5 -3 1.5 -5 l0 -39 q0 -2 -1.5 -5 q-1.5 -3 -6.5 -3 q-30 0 -61.5 -4 q-31.5 -4 -58 -18 q-26.5 -14 -43 -40.5 q-16.5 -26.5 -16.5 -71.5 l0 -701 q0 -200 102 -309.5 q102 -109.5 305 -109.5 q84 0 161 23.5 q77 23.5 136 72.5 q59 49 94 125 q35 76 35 181 l0 621 q0 34 -2.5 70 q-2.5 36 -16.5 68 q-14 32 -44 55.5 q-30 23.5 -85 32.5 q-25 4 -41.5 4.5 q-16.5 0.5 -21.5 0.5 q-8 0 -8 8 l0 39 q0 8 8 8 l522 0 q5 0 6.5 -3 q1.5 -3 1.5 -5 l0 -39 q0 -2 -2 -5 q-2 -3 -6 -3 q-36 0 -63.5 -5.5 q-27.5 -5.5 -41.5 -11.5 q-17 -7 -31 -21.5 q-14 -14.5 -23.5 -31 q-9.5 -16.5 -14.5 -34 q-5 -17.5 -5 -30.5 l0 -640 q0 -141 -37 -253.5 q-37 -112.5 -111.5 -191 q-74.5 -78.5 -187.5 -121 q-113 -42.5 -264 -42.5 q-72 0 -148.5 11 q-76.5 11 -149 35 q-72.5 24 -136.5 62 q-64 38 -112 91 q-48 53 -76 122 q-28 69 -28 156 l0 785 l0 0 Z" /><glyph glyph-name="V" unicode="v" d="M727 -27 q-24 0 -31 22 l-521 1262 q-9 22 -23.5 37.5 q-14.5 15.5 -29.5 26 q-15 10.5 -29 16 q-14 5.5 -23 7.5 q-7 2 -16 4 q-9 2 -17.5 3.5 q-8.5 1.5 -15.5 2.5 q-7 1 -8 1 q-8 0 -8 8 l0 39 q0 8 8 8 l680 0 q6 0 7 -2.5 q1 -2.5 1 -5.5 l0 -39 q0 -2 -1.5 -5 q-1.5 -3 -6.5 -3 l-15 0 q-25 -4 -56.5 -8 q-31.5 -4 -59 -14.5 q-27.5 -10.5 -46 -31 q-18.5 -20.5 -18.5 -56.5 q0 -13 4.5 -30 q4.5 -17 9.5 -28 l357 -866 q1 -3 2.5 -4.5 q1.5 -1.5 3.5 -3.5 q2 -2 4 -2 q7 0 11 11 l328 886 q4 11 8.5 20.5 q4.5 9.5 4.5 19.5 q0 35 -23 60.5 q-23 25.5 -64 32.5 q-6 1 -19.5 3 q-13.5 2 -28.5 4.5 q-15 2.5 -29 4.5 q-14 2 -20 2 q-8 0 -8 8 l0 39 q0 2 1 5 q1 3 7 3 l535 0 q6 0 7 -3 q1 -3 1 -5 l0 -39 q0 -3 -1 -5.5 q-1 -2.5 -7 -2.5 l-37 0 q-55 -11 -90.5 -42.5 q-35.5 -31.5 -60 -74 q-24.5 -42.5 -41.5 -91 q-17 -48.5 -34 -93.5 l-387 -1046 q-9 -25 -22 -30 q-13 -5 -36 -5 l-147 0 l0 0 Z" /><glyph glyph-name="W" unicode="w" d="M1448 -27 q-24 0 -31 22 l-222 537 l-224 -524 q-11 -24 -23 -29.5 q-12 -5.5 -35 -5.5 l-145 0 q-12 0 -19 5.5 q-7 5.5 -12 17.5 l-518 1246 q-11 26 -32 43.5 q-21 17.5 -44.5 28 q-23.5 10.5 -45 16 q-21.5 5.5 -33.5 7.5 q-7 1 -17 3.5 q-10 2.5 -20 4.5 q-10 2 -17.5 3.5 q-7.5 1.5 -9.5 1.5 q-8 0 -8 8 l0 44 q0 8 8 8 l660 0 q6 0 7 -2.5 q1 -2.5 1 -5.5 l0 -44 q0 -2 -1.5 -5 q-1.5 -3 -6.5 -3 l-18 0 q-39 0 -61 -9 q-22 -9 -33.5 -22.5 q-11.5 -13.5 -14 -28.5 q-2.5 -15 -2.5 -27 q0 -22 6.5 -41 q6.5 -19 11.5 -40 l359 -865 q5 -10 19 -10 q6 0 9 3 q3 3 6 8 l173 408 l-219 526 q-13 31 -40 55 q-27 24 -52 30 q-14 5 -32 9 q-18 4 -23 4 q-8 0 -8 8 l0 44 q0 8 8 8 l950 0 q6 0 7 -3 q1 -3 1 -5 l0 -44 q0 -3 -1 -5.5 q-1 -2.5 -7 -2.5 l-37 0 q-36 0 -63.5 -10 q-27.5 -10 -49.5 -31 q-22 -21 -40.5 -53 q-18.5 -32 -36.5 -75 l-123 -286 l239 -575 q5 -10 19 -10 q10 0 15 11 l399 935 q12 28 12 47 q0 26 -22.5 36.5 q-22.5 10.5 -83.5 10.5 l-62 0 q-8 0 -8 8 l0 44 q0 2 1 5 q1 3 7 3 l475 0 q6 0 7 -3 q1 -3 1 -5 l0 -44 q0 -3 -1 -5.5 q-1 -2.5 -7 -2.5 l-47 0 q-24 0 -42 -9.5 q-18 -9.5 -33.5 -29 q-15.5 -19.5 -30 -48.5 q-14.5 -29 -30.5 -68 l-507 -1187 q-11 -24 -23 -29.5 q-12 -5.5 -35 -5.5 l-144 0 ZM1349 1276 q7 16 8.5 24 q1.5 8 1.5 18 q0 32 -68 32 q-28 0 -46 -6.5 q-18 -6.5 -28.5 -16 q-10.5 -9.5 -14.5 -21.5 q-4 -12 -4 -23 q0 -11 3 -23 q3 -12 10.5 -32.5 q7.5 -20.5 21 -53.5 q13.5 -33 35.5 -86 l81 188 Z" /><glyph glyph-name="X" unicode="x" d="M5 52 q0 8 8 8 l39 0 q35 0 70.5 15.5 q35.5 15.5 70 39.5 q34.5 24 65.5 53 q31 29 56 56 q25 27 43 49 q18 22 25 32 l314 410 q-95 123 -165 214.5 q-70 91.5 -122 158 q-52 66.5 -89.5 111 q-37.5 44.5 -68.5 72 q-31 27.5 -59.5 42 q-28.5 14.5 -60.5 21.5 q-11 2 -27 5 q-16 3 -33 5.5 q-17 2.5 -32.5 4 q-15.5 1.5 -25.5 1.5 q-5 0 -6.5 3 q-1.5 3 -1.5 5 l0 44 q0 2 1.5 5 q1.5 3 6.5 3 l753 0 q6 0 7 -3 q1 -3 1 -5 l0 -44 q0 -2 -1 -5 q-1 -3 -7 -3 q-81 0 -118 -10 q-37 -10 -37 -32 q0 -5 11 -24 q11 -19 34 -48 l201 -265 q5 -7 8.5 -8.5 q3.5 -1.5 9.5 -1.5 q9 0 14.5 7.5 q5.5 7.5 12.5 15.5 l193 252 q10 12 23 31.5 q13 19.5 13 37.5 q0 16 -15.5 25 q-15.5 9 -38 13.5 q-22.5 4.5 -48 5.5 q-25.5 1 -44.5 1 q-8 0 -8 8 l0 45 q0 2 1 4.5 q1 2.5 7 2.5 l571 0 q6 0 7 -2.5 q1 -2.5 1 -5.5 l0 -44 q0 -3 -1 -5.5 q-1 -2.5 -7 -2.5 q-104 0 -179 -44 q-75 -44 -133 -120 l-278 -359 l495 -653 q13 -17 30.5 -33 q17.5 -16 37.5 -30 q20 -14 41.5 -24 q21.5 -10 42.5 -14 q12 -6 30 -8.5 q18 -2.5 35 -5.5 q17 -3 29.5 -8.5 q12.5 -5.5 12.5 -17.5 q0 -16 -12.5 -24.5 q-12.5 -8.5 -26.5 -8.5 l-665 0 q-5 0 -6.5 3 q-1.5 3 -1.5 5 l0 44 q0 2 1 4 q1 3 7 4 q9 2 28.5 1.5 q19.5 -0.5 39 3.5 q19.5 4 34 16 q14.5 12 14.5 39 q0 8 -4.5 19 q-4.5 11 -7.5 16 l-315 417 q-4 5 -7 7.5 q-3 2.5 -10 2.5 q-8 0 -10.5 -2.5 q-2.5 -2.5 -6.5 -7.5 l-314 -407 q-9 -12 -11.5 -20.5 q-2.5 -8.5 -2.5 -19.5 q0 -31 19.5 -43 q19.5 -12 45 -15 q25.5 -3 50.5 -2 q25 1 36 -5 q8 -4 8 -8 l0 -44 q0 -2 -1.5 -5 q-1.5 -3 -6.5 -3 l-581 0 q-5 0 -6.5 3 q-1.5 3 -1.5 5 l0 11 l0 33 Z" /><glyph glyph-name="Y" unicode="y" d="M712 494 q0 6 -3 10 l-409 654 q-17 27 -36.5 54.5 q-19.5 27.5 -43 52 q-23.5 24.5 -51 43 q-27.5 18.5 -59.5 26.5 q-5 1 -16 3.5 q-11 2.5 -23 4.5 q-12 2 -23 4 q-11 2 -16 3 q-10 1 -19 12.5 q-9 11.5 -9 20.5 q0 2 0.5 7 q0.5 5 2 9.5 q1.5 4.5 4.5 8 q3 3.5 8 3.5 l679 0 q11 0 14 -10 q3 -10 3 -18 q0 -10 -1.5 -21 q-1.5 -11 -11.5 -11 q-27 -2 -51 -4 q-24 -2 -41 -9.5 q-17 -7.5 -27 -22.5 q-10 -15 -10 -42 q0 -24 12 -43 l305 -490 q11 -17 14.5 -21 q3.5 -4 11.5 -4 q7 0 12.5 8 q5.5 8 13.5 21 l241 409 q14 23 28.5 51 q14.5 28 14.5 57 q0 28 -7.5 44.5 q-7.5 16.5 -22.5 25.5 q-15 9 -36.5 13 q-21.5 4 -49.5 7 q-11 1 -13 12 q-2 11 -2 20 q0 7 2.5 17.5 q2.5 10.5 14.5 10.5 l503 0 q8 0 11 -11.5 q3 -11.5 3 -16.5 q0 -10 -6.5 -17 q-6.5 -7 -16 -11.5 q-9.5 -4.5 -20 -7 q-10.5 -2.5 -19.5 -4.5 q-50 -11 -86.5 -36.5 q-36.5 -25.5 -71.5 -63.5 q-5 -5 -14.5 -16 q-9.5 -11 -10.5 -13 l-387 -665 l0 -353 q0 -60 31 -93 q31 -33 110 -41 q11 -1 28 -1 q17 0 29 0 q5 0 6.5 -3 q1.5 -3 1.5 -5 l0 -44 q0 -2 -1.5 -5 q-1.5 -3 -6.5 -3 l-681 0 q-5 0 -6.5 3 q-1.5 3 -1.5 5 l0 44 q0 2 1.5 5 q1.5 3 6.5 3 q11 0 28.5 0 q17.5 0 28.5 1 q79 8 110 41 q31 33 31 93 l0 299 Z" /><glyph glyph-name="Z" unicode="z" d="M77 43 q0 11 4 22.5 q4 11.5 12 20.5 l905 1171 q4 5 4 10 q0 8 -7 9 q-7 1 -13 1 l-499 0 q-23 0 -48.5 -6.5 q-25.5 -6.5 -48 -19 q-22.5 -12.5 -40.5 -31 q-18 -18.5 -25 -43.5 q-4 -11 -10.5 -41.5 q-6.5 -30.5 -18.5 -91.5 q-2 -10 -16 -14.5 q-14 -4.5 -31 -4.5 q-3 0 -8.5 0 q-5.5 0 -11 1 q-5.5 1 -10.5 2 q-5 1 -6 3 l15 345 q0 3 1 10.5 q1 7.5 3 12.5 q3 8 11 10 q4 1 8 1 l1124 0 q3 0 5.5 -5 q2.5 -5 5 -11.5 q2.5 -6.5 4 -14 q1.5 -7.5 1.5 -12.5 q0 -21 -13 -40 l-870 -1125 q-3 -5 -11.5 -17 q-8.5 -12 -8.5 -20 q0 -14 16 -20.5 q16 -6.5 30 -6.5 l636 0 q56 0 93 33 q37 33 59.5 81.5 q22.5 48.5 32.5 102.5 q10 54 12 96 q1 6 6 9 q5 3 11.5 4.5 q6.5 1.5 13 1.5 q6.5 0 11.5 0 q2 0 8 -1 q6 -1 12 -2.5 q6 -1.5 10.5 -4 q4.5 -2.5 4.5 -4.5 l0 -47 l-21 -348 q-1 -11 -1 -21.5 q0 -10.5 -2.5 -18.5 q-2.5 -8 -8 -13.5 q-5.5 -5.5 -17.5 -5.5 l-1275 0 q-13 0 -20.5 4.5 q-7.5 4.5 -11.5 11.5 q-4 7 -5 14.5 q-1 7.5 -1 12.5 Z" /><glyph glyph-name="bracketleft" unicode="[" d="M742 1731 l0 -116 l-238 0 q-73 0 -73 -73 l0 -1695 q0 -73 73 -73 l261 0 l0 -116 l-560 0 l0 2073 l537 0 Z" /><glyph glyph-name="bracketright" unicode="]" d="M15 -342 l0 116 l262 0 q38 0 55 17.5 q17 17.5 17 55.5 l0 1695 q0 38 -17 55.5 q-17 17.5 -55 17.5 l-240 0 l0 116 l538 0 l0 -2073 l-560 0 Z" /><glyph glyph-name="asciicircum" unicode="^" d="M561 1127 l-304 -448 l-161 0 l400 700 l131 0 l392 -700 l-162 0 l-296 448 Z" /><glyph glyph-name="underscore" unicode="_" d="M-16 -205 l1046 0 l0 -115 l-1046 0 l0 115 Z" /><glyph glyph-name="grave" unicode="`" d="M519 1062 q-5 -7 -13.5 -12.5 q-8.5 -5.5 -14.5 -5.5 q-11 0 -20 7 l-269 217 q-23 19 -42.5 46 q-19.5 27 -19.5 64 q0 19 7 36 q7 17 19.5 30 q12.5 13 29 20.5 q16.5 7.5 36.5 7.5 q23 0 46 -13.5 q23 -13.5 45 -43.5 l210 -291 q5 -7 6.5 -12.5 q1.5 -5.5 1.5 -12.5 q0 -3 -1 -7 q-1 -4 -5 -9 l-16 -21 Z" /><glyph glyph-name="a" unicode="a" d="M487 20 q-33 -23 -78 -36 q-45 -13 -90 -13 q-122 0 -185.5 55 q-63.5 55 -63.5 149 q0 54 24.5 93 q24.5 39 72.5 69 q48 30 118.5 54.5 q70.5 24.5 163.5 48.5 q50 13 80.5 28 q30.5 15 56.5 29 q17 9 19.5 16 q2.5 7 2.5 13 l0 174 q0 33 -9.5 61.5 q-9.5 28.5 -28.5 49.5 q-19 21 -46 33 q-27 12 -61 12 q-29 0 -54 -10 q-25 -10 -43 -29 q-18 -19 -28.5 -45 q-10.5 -26 -10.5 -59 q0 -3 0.5 -9 q0.5 -6 1.5 -12.5 q1 -6.5 2 -11.5 q1 -5 1 -6 q-1 -2 -16.5 -8 q-15.5 -6 -38 -13.5 q-22.5 -7.5 -49.5 -15 q-27 -7.5 -51.5 -14.5 q-24.5 -7 -43 -12.5 q-18.5 -5.5 -25.5 -6.5 q-11 0 -13.5 11.5 q-2.5 11.5 -2.5 22.5 q0 58 35 113 q35 55 93.5 97.5 q58.5 42.5 134.5 68.5 q76 26 157 26 q72 0 129 -18.5 q57 -18.5 97 -51 q40 -32.5 61 -75 q21 -42.5 21 -90.5 l0 -477 q0 -26 19.5 -46.5 q19.5 -20.5 50.5 -20.5 q18 0 32.5 6.5 q14.5 6.5 26 15 q11.5 8.5 19.5 15 q8 6.5 14 6.5 q8 0 9 -6.5 q1 -6.5 1 -11.5 q0 -17 -4.5 -34.5 q-4.5 -17.5 -15.5 -25.5 q-49 -37 -87 -66.5 q-38 -29.5 -69 -50.5 q-31 -21 -56 -32 q-25 -11 -47 -11 q-20 0 -35.5 11 q-15.5 11 -27 27 q-11.5 16 -19.5 34.5 q-8 18.5 -13.5 34.5 q-5.5 16 -8.5 26 q-3 10 -5 9 l-117 -91 ZM303 199 q0 -27 10.5 -44 q10.5 -17 27.5 -26 q17 -9 38.5 -12.5 q21.5 -3.5 44.5 -3.5 q21 0 52 10.5 q31 10.5 60.5 28 q29.5 17.5 50.5 40 q21 22.5 21 45.5 l0 165 q0 11 -8 11 q-2 0 -4 -1 l-232 -108 q-14 -10 -25.5 -18.5 q-11.5 -8.5 -19.5 -20 q-8 -11.5 -12 -27 q-4 -15.5 -4 -39.5 Z" /><glyph glyph-name="b" unicode="b" d="M358 1639 q4 2 8.5 4 q4.5 2 6.5 2 q17 0 17 -24 l0 -755 q0 -10 2.5 -20.5 q2.5 -10.5 12.5 -10.5 q4 0 16 6 q37 17 69.5 34 q32.5 17 64 30.5 q31.5 13.5 63.5 22 q32 8.5 67 8.5 q79 0 148 -36 q69 -36 120.5 -98 q51.5 -62 81.5 -146.5 q30 -84.5 30 -180.5 q0 -111 -39 -203.5 q-39 -92.5 -108.5 -159 q-69.5 -66.5 -165 -103 q-95.5 -36.5 -207.5 -36.5 q-60 0 -110.5 4.5 q-50.5 4.5 -95.5 12 q-45 7.5 -86 17.5 q-41 10 -81 20 q-9 2 -11.5 8.5 q-2.5 6.5 -2.5 15.5 l0 1312 q0 24 -13 37.5 q-13 13.5 -33 20.5 q-20 7 -43 11.5 q-23 4.5 -44 10.5 q-6 2 -9.5 5.5 q-3.5 3.5 -3.5 14.5 q0 5 3 10 q3 5 12 10 l331 156 ZM402 751 q-8 -5 -10 -10.5 q-2 -5.5 -2 -13.5 l0 -483 q10 -95 62 -144 q52 -49 141 -49 q72 0 120 28 q48 28 77.5 78 q29.5 50 42 117.5 q12.5 67.5 12.5 147.5 q0 78 -12 145.5 q-12 67.5 -43 118 q-31 50.5 -84 80 q-53 29.5 -135 29.5 q-27 0 -48.5 -2 q-21.5 -2 -40.5 -6.5 q-19 -4.5 -38 -13.5 q-19 -9 -42 -22 Z" /><glyph glyph-name="c" unicode="c" d="M90 423 q1 145 44 244.5 q43 99.5 115 160.5 q72 61 167.5 88 q95.5 27 200.5 27 q22 0 52.5 -1.5 q30.5 -1.5 63 -6 q32.5 -4.5 64 -13.5 q31.5 -9 57 -24.5 q25.5 -15.5 41 -38 q15.5 -22.5 15.5 -54.5 q0 -24 -9 -38.5 q-9 -14.5 -25 -23 q-16 -8.5 -37 -11.5 q-21 -3 -45 -3 q-28 0 -47.5 9.5 q-19.5 9.5 -35.5 23 q-16 13.5 -30 30 q-14 16.5 -30.5 30 q-16.5 13.5 -37.5 23 q-21 9.5 -51 9.5 q-70 0 -115 -35.5 q-45 -35.5 -70.5 -90 q-25.5 -54.5 -35 -119.5 q-9.5 -65 -9.5 -124 q0 -80 15 -147.5 q15 -67.5 48.5 -116.5 q33.5 -49 87 -76.5 q53.5 -27.5 129.5 -27.5 q28 0 55.5 9 q27.5 9 53 24.5 q25.5 15.5 48 35.5 q22.5 20 41.5 43 q10 12 19.5 20 q9.5 8 29.5 8 q24 0 41.5 -12.5 q17.5 -12.5 17.5 -26.5 q0 -4 -1.5 -10.5 q-1.5 -6.5 -10.5 -18.5 q-38 -48 -82 -88 q-44 -40 -94 -68 q-50 -28 -107.5 -43.5 q-57.5 -15.5 -122.5 -15.5 q-86 0 -160.5 38.5 q-74.5 38.5 -130 102 q-55.5 63.5 -87.5 144 q-32 80.5 -32 164.5 Z" /><glyph glyph-name="d" unicode="d" d="M960 1639 q4 2 8.5 4 q4.5 2 6.5 2 q17 0 17 -24 l0 -1392 q0 -44 22.5 -63 q22.5 -19 67.5 -19 l58 4 q4 0 5 -5.5 q1 -5.5 1 -11.5 q0 -2 -2.5 -5.5 q-2.5 -3.5 -12.5 -7.5 l-342 -142 q-2 -1 -10 -3.5 q-8 -2.5 -9 -2.5 q-7 0 -8.5 8.5 q-1.5 8.5 -1.5 16.5 l0 69 q0 10 -7 10 q-3 0 -9 -3 q-35 -20 -66 -38.5 q-31 -18.5 -62.5 -32.5 q-31.5 -14 -66 -22 q-34.5 -8 -76.5 -8 q-90 0 -162 37 q-72 37 -122 99 q-50 62 -77 142 q-27 80 -27 167 q0 105 41.5 195 q41.5 90 111 156 q69.5 66 161.5 103.5 q92 37.5 193 37.5 q27 0 47 -5 q20 -5 37 -10.5 q17 -5.5 34 -10.5 q17 -5 38 -5 q3 0 7.5 2 q4.5 2 4.5 11 l0 471 q0 24 -13 37.5 q-13 13.5 -33 20.5 q-20 7 -43 11.5 q-23 4.5 -44 10.5 q-6 2 -9.5 5.5 q-3.5 3.5 -3.5 14.5 q0 5 3 10 q3 5 12 10 l331 156 ZM312 463 q0 -72 16.5 -138.5 q16.5 -66.5 51 -117 q34.5 -50.5 87.5 -80.5 q53 -30 125 -30 q11 0 39 6 q28 6 56.5 15.5 q28.5 9.5 50.5 22.5 q22 13 22 28 l0 497 q0 69 -49.5 112 q-49.5 43 -141.5 43 q-67 0 -115.5 -31.5 q-48.5 -31.5 -80 -82.5 q-31.5 -51 -46.5 -115 q-15 -64 -15 -129 Z" /><glyph glyph-name="e" unicode="e" d="M70 405 q0 117 33 215.5 q33 98.5 95 170.5 q62 72 151.5 112 q89.5 40 203.5 40 q34 0 61 -4.5 q27 -4.5 49.5 -12 q22.5 -7.5 42 -18 q19.5 -10.5 39.5 -22.5 q23 -12 52.5 -43 q29.5 -31 55.5 -72 q26 -41 44 -87.5 q18 -46.5 18 -89.5 q0 -14 -5.5 -30.5 q-5.5 -16.5 -18.5 -16.5 l-590 0 q-10 0 -13.5 -18 q-3.5 -18 -3.5 -44 q0 -88 25.5 -156.5 q25.5 -68.5 68.5 -116 q43 -47.5 99 -72 q56 -24.5 118 -24.5 q39 0 75 10.5 q36 10.5 69 27.5 q33 17 62 38 q29 21 55 42 q6 2 8 2 q3 0 8 -5 q9 -8 18 -18.5 q9 -10.5 14 -17.5 q3 -3 3 -6 q0 -3 -4 -7 q-33 -39 -81 -76.5 q-48 -37.5 -102.5 -67 q-54.5 -29.5 -111.5 -47.5 q-57 -18 -108 -18 q-103 0 -183 37.5 q-80 37.5 -135 98.5 q-55 61 -83.5 138.5 q-28.5 77.5 -28.5 157.5 ZM657 624 q26 0 26 23 q0 39 -12.5 73.5 q-12.5 34.5 -35.5 61 q-23 26.5 -55.5 41.5 q-32.5 15 -72.5 15 q-48 0 -84 -20.5 q-36 -20.5 -61 -49.5 q-25 -29 -37.5 -60 q-12.5 -31 -12.5 -53 q0 -17 5 -24 q5 -7 13 -7 l327 0 Z" /><glyph glyph-name="f" unicode="f" d="M40 30 q0 5 3 16.5 q3 11.5 7 13.5 q13 6 37 9 q24 3 48 13.5 q24 10.5 42 33 q18 22.5 18 66.5 l0 579 q0 11 -12 11 l-109 0 q-12 0 -23 7.5 q-11 7.5 -11 21.5 q0 11 11.5 19 q11.5 8 28.5 16 q17 8 37.5 15.5 q20.5 7.5 37.5 17 q17 9.5 28.5 21.5 q11.5 12 11.5 29 l0 33 q0 140 36 270 q36 130 108.5 230 q72.5 100 181 160 q108.5 60 253.5 60 q14 0 50 -8 q36 -8 74 -22 q38 -14 67 -33 q29 -19 29 -41 q0 -8 -2.5 -14 q-2.5 -6 -5.5 -15 q-2 -5 -10.5 -23 q-8.5 -18 -17.5 -39.5 q-9 -21.5 -17.5 -40.5 q-8.5 -19 -10.5 -24 q-2 -4 -7.5 -10 q-5.5 -6 -11.5 -6 q-2 0 -4.5 1.5 q-2.5 1.5 -12.5 9.5 q-23 19 -52 42 q-29 23 -62 43.5 q-33 20.5 -69 34.5 q-36 14 -73 14 q-79 0 -121.5 -23 q-42.5 -23 -62.5 -60 q-20 -37 -23.5 -82.5 q-3.5 -45.5 -3.5 -91.5 l0 -356 q0 -6 2.5 -7 q2.5 -1 7.5 -1 l195 0 q28 0 36.5 -5.5 q8.5 -5.5 12.5 -20.5 q6 -23 9 -51 q3 -28 3 -50 q0 -13 -5 -17 q-5 -4 -21 -4 l-227 0 q-2 0 -7.5 -1 q-5.5 -1 -5.5 -9 l0 -560 q0 -44 22 -71.5 q22 -27.5 57.5 -43.5 q35.5 -16 80 -21.5 q44.5 -5.5 88.5 -5.5 q9 -1 13.5 -13 q4.5 -12 4.5 -17 q0 -2 -0.5 -7 q-0.5 -5 -2 -10 q-1.5 -5 -5.5 -9 q-4 -4 -10 -4 l-625 0 q-6 2 -8 13 q-2 11 -2 17 Z" /><glyph glyph-name="g" unicode="g" d="M582 943 q96 0 172 -25 q76 -25 127 -73 q63 2 120.5 7 q57.5 5 123.5 5 q23 0 37.5 -1.5 q14.5 -1.5 22.5 -5 q8 -3.5 12 -9 q4 -5.5 6 -13.5 q7 -25 10 -45 q3 -20 3 -41 q0 -17 -12.5 -22.5 q-12.5 -5.5 -50.5 -5.5 l-183 0 q14 -23 27.5 -54 q13.5 -31 13.5 -79 q0 -69 -31 -134.5 q-31 -65.5 -91 -115.5 q-60 -50 -146.5 -80.5 q-86.5 -30.5 -197.5 -30.5 q-34 0 -55 2.5 q-21 2.5 -44 8.5 q-14 -12 -35 -21.5 q-21 -9.5 -41 -21.5 q-20 -12 -34 -27.5 q-14 -15.5 -14 -39.5 q0 -42 73.5 -60.5 q73.5 -18.5 237.5 -19.5 q125 -1 227.5 -7 q102.5 -6 175.5 -31.5 q73 -25.5 113 -79 q40 -53.5 40 -149.5 q0 -40 -19 -86.5 q-19 -46.5 -57.5 -92.5 q-38.5 -46 -96.5 -88.5 q-58 -42.5 -136.5 -75 q-78.5 -32.5 -177.5 -52 q-99 -19.5 -218 -19.5 q-105 0 -183 20.5 q-78 20.5 -129 54.5 q-51 34 -76.5 77.5 q-25.5 43.5 -25.5 89.5 q0 35 14 63 q14 28 37 51.5 q23 23.5 51.5 44 q28.5 20.5 57.5 42 q29 21.5 56 45 q27 23.5 47 53.5 q-53 7 -96.5 25 q-43.5 18 -74 42 q-30.5 24 -47.5 52.5 q-17 28.5 -17 57.5 q0 27 14.5 47 q14.5 20 38 35.5 q23.5 15.5 53.5 28.5 q30 13 62 25 q20 8 42.5 17.5 q22.5 9.5 46.5 26.5 q-119 48 -180 125 q-61 77 -61 178 q0 80 36 150 q36 70 99 121.5 q63 51.5 148.5 81 q85.5 29.5 184.5 29.5 ZM298 -316 q0 -42 25.5 -84.5 q25.5 -42.5 69 -76.5 q43.5 -34 102.5 -55.5 q59 -21.5 126 -21.5 q70 0 136 23.5 q66 23.5 117 62.5 q51 39 82 90.5 q31 51.5 31 107.5 q0 33 -10.5 58 q-10.5 25 -28.5 42 q-18 17 -42 27 q-24 10 -50 12 q-21 2 -70 3.5 q-49 1.5 -110 3.5 q-37 1 -73 1.5 q-36 0.5 -66.5 1.5 q-30.5 1 -55 2 q-24.5 1 -38.5 3 q-19 -22 -44 -41.5 q-25 -19.5 -47.5 -42 q-22.5 -22.5 -38 -50.5 q-15.5 -28 -15.5 -66 ZM771 559 q0 77 -16 137.5 q-16 60.5 -45.5 102 q-29.5 41.5 -69.5 63 q-40 21.5 -88 21.5 q-29 0 -63.5 -11.5 q-34.5 -11.5 -64.5 -42 q-30 -30.5 -50 -83.5 q-20 -53 -20 -136 q0 -53 12 -111 q12 -58 38.5 -107 q26.5 -49 68.5 -80.5 q42 -31.5 102 -31.5 q45 0 81 20.5 q36 20.5 61.5 57 q25.5 36.5 39.5 88 q14 51.5 14 113.5 Z" /><glyph glyph-name="h" unicode="h" d="M572 30 q0 -6 -2 -17 q-2 -11 -8 -13 l-522 0 q-6 2 -8 13 q-2 11 -2 17 q0 5 3 16.5 q3 11.5 7 13.5 q13 6 37 9.5 q24 3.5 48 14 q24 10.5 42 33 q18 22.5 18 66.5 l0 1181 q0 24 -13 37.5 q-13 13.5 -33 20.5 q-20 7 -43 11.5 q-23 4.5 -44 10.5 q-6 2 -9.5 5.5 q-3.5 3.5 -3.5 14.5 q0 5 3 10 q3 5 12 10 l331 155 q4 2 8.5 4 q4.5 2 6.5 2 q17 0 17 -24 l0 -847 q0 -4 1 -14 q1 -10 6 -10 q7 0 10 3.5 q3 3.5 9 9.5 q29 33 59 62.5 q30 29.5 66 52 q36 22.5 81 35.5 q45 13 105 13 q62 0 122.5 -14.5 q60.5 -14.5 108 -54 q47.5 -39.5 77 -109 q29.5 -69.5 29.5 -179.5 l0 -386 q0 -44 18 -66.5 q18 -22.5 42 -33 q24 -10.5 48 -14 q24 -3.5 37 -9.5 q4 -2 7 -13.5 q3 -11.5 3 -16.5 q0 -6 -2 -17 q-2 -11 -8 -13 l-522 0 q-6 2 -8 13 q-2 11 -2 17 q0 5 3 16.5 q3 11.5 7 13.5 q13 6 37 9.5 q24 3.5 48 14 q24 10.5 42 33 q18 22.5 18 66.5 l0 344 q0 58 -3 109 q-3 51 -20.5 89 q-17.5 38 -56 59.5 q-38.5 21.5 -108.5 21.5 q-36 0 -80 -17.5 q-44 -17.5 -83 -47 q-39 -29.5 -65 -68 q-26 -38.5 -26 -80.5 l0 -410 q0 -44 18 -66.5 q18 -22.5 42 -33 q24 -10.5 48 -14 q24 -3.5 37 -9.5 q4 -2 7 -13.5 q3 -11.5 3 -16.5 Z" /><glyph glyph-name="i" unicode="i" d="M70 0 q-6 2 -8 13.5 q-2 11.5 -2 17.5 q0 5 3 16 q3 11 7 13 q13 6 37 9.5 q24 3.5 48 14 q24 10.5 42 33 q18 22.5 18 66.5 l0 480 q0 24 -13 37.5 q-13 13.5 -33 20.5 q-20 7 -43 11.5 q-23 4.5 -44 10.5 q-6 2 -9.5 5.5 q-3.5 3.5 -3.5 14.5 q0 5 3 10 q3 5 12 10 l331 156 q4 2 8.5 4 q4.5 2 6.5 2 q17 0 17 -24 l0 -738 q0 -44 18 -66.5 q18 -22.5 42 -33 q24 -10.5 48 -14 q24 -3.5 37 -9.5 q4 -2 7 -13 q3 -11 3 -16 q0 -6 -2 -17.5 q-2 -11.5 -8 -13.5 l-522 0 ZM172 1307 q0 64 38 102 q38 38 102 38 q64 0 102 -38 q38 -38 38 -102 q0 -64 -38 -101.5 q-38 -37.5 -102 -37.5 q-64 0 -102 37.5 q-38 37.5 -38 101.5 Z" /><glyph glyph-name="j" unicode="j" d="M415 937 q4 2 8.5 4 q4.5 2 6.5 2 q17 0 17 -24 l0 -1026 q0 -126 -36 -221.5 q-36 -95.5 -102 -160.5 q-66 -65 -159.5 -98 q-93.5 -33 -207.5 -33 q-36 0 -70 11 q-34 11 -60.5 29 q-26.5 18 -42.5 41 q-16 23 -16 47 q0 15 5 31 q5 16 15 28.5 q10 12.5 25 20.5 q15 8 35 8 q6 0 12.5 -1.5 q6.5 -1.5 21 -9.5 q14.5 -8 39.5 -26 q25 -18 68 -51 q13 -11 26 -17 q13 -6 28 -9 q15 -3 34.5 -4 q19.5 -1 46.5 -1 q35 0 56 24.5 q21 24.5 32 59.5 q11 35 14.5 74 q3.5 39 3.5 68 l0 958 q0 24 -13 37.5 q-13 13.5 -33 20.5 q-20 7 -43 11.5 q-23 4.5 -44 10.5 q-6 2 -9.5 5.5 q-3.5 3.5 -3.5 14.5 q0 5 3 10 q3 5 12 10 l331 156 ZM156 1307 q0 64 38 102 q38 38 102 38 q64 0 102 -38 q38 -38 38 -102 q0 -64 -38 -101.5 q-38 -37.5 -102 -37.5 q-64 0 -102 37.5 q-38 37.5 -38 101.5 Z" /><glyph glyph-name="k" unicode="k" d="M586 30 q0 -14 -2 -22 q-2 -8 -8 -8 l-522 0 q-10 2 -10 30 q0 26 10 30 q13 6 37 9.5 q24 3.5 48 14 q24 10.5 42 33 q18 22.5 18 66.5 l0 1180 q0 24 -13 37.5 q-13 13.5 -33 20.5 q-20 7 -43 11.5 q-23 4.5 -44 10.5 q-6 2 -9.5 5.5 q-3.5 3.5 -3.5 14.5 q0 5 3 10 q3 5 12 10 l331 156 q4 2 8.5 4 q4.5 2 6.5 2 q17 0 17 -24 l0 -993 q0 -30 11.5 -37 q11.5 -7 28.5 -7 q22 0 55 13.5 q33 13.5 70.5 34.5 q37.5 21 75 47 q37.5 26 67 51.5 q29.5 25.5 48.5 47 q19 21.5 19 33.5 q0 20 -19 27 q-19 7 -42.5 11.5 q-23.5 4.5 -42.5 11.5 q-19 7 -19 26 q0 14 13 23.5 q13 9.5 28 9.5 l421 0 q45 0 45 -23 q0 -16 -23 -26.5 q-23 -10.5 -57 -20.5 q-34 -10 -71.5 -23.5 q-37.5 -13.5 -65.5 -35.5 l-287 -224 q0 -8 7 -17.5 q7 -9.5 12 -14.5 l381 -402 q26 -27 57.5 -42 q31.5 -15 59.5 -25 q28 -10 46.5 -17 q18.5 -7 18.5 -19 q0 -12 -2 -21 q-2 -9 -14 -9 l-545 0 q-7 0 -8.5 8 q-1.5 8 -1.5 22 q0 25 10 30 q10 5 21 8 q11 3 19.5 8.5 q8.5 5.5 14 14.5 q5.5 9 5.5 26 q0 11 -14 29.5 q-14 18.5 -29 34.5 l-279 296 q0 1 -1 2 l-1 0 q-6 0 -9 -15 q-3 -15 -3 -34 l0 -247 q0 -44 18 -66.5 q18 -22.5 42 -33 q24 -10.5 48 -14 q24 -3.5 37 -9.5 q10 -4 10 -30 Z" /><glyph glyph-name="l" unicode="l" d="M562 30 q0 -6 -2 -17 q-2 -11 -8 -13 l-522 0 q-6 2 -8 13 q-2 11 -2 17 q0 5 3 16 q3 11 7 13 q13 6 37 9.5 q24 3.5 48 14 q24 10.5 42 33 q18 22.5 18 66.5 l0 1166 q0 24 -13 37.5 q-13 13.5 -33 20.5 q-20 7 -43 11.5 q-23 4.5 -44 10.5 q-13 5 -13 28 q0 5 3 13.5 q3 8.5 12 13.5 l331 156 q4 2 9 4 q5 2 11 2 q8 0 10 -5.5 q2 -5.5 2 -18.5 l0 -1439 q0 -44 18 -66.5 q18 -22.5 42 -33 q24 -10.5 48 -14 q24 -3.5 37 -9.5 q4 -2 7 -13 q3 -11 3 -16 Z" /><glyph glyph-name="m" unicode="m" d="M397 970 q4 2 8.5 4 q4.5 2 6.5 2 q17 0 17 -24 l0 -166 q1 -6 8 -6 q6 0 14 4 q45 24 88 49.5 q43 25.5 86.5 46.5 q43.5 21 87.5 34 q44 13 89 13 q45 0 76 -11 q31 -11 52 -28.5 q21 -17.5 34.5 -38 q13.5 -20.5 23.5 -39.5 q1 -3 4 -7.5 q3 -4.5 7.5 -9.5 q4.5 -5 9 -8.5 q4.5 -3.5 9.5 -3.5 q14 1 29 9 q97 49 158.5 76.5 q61.5 27.5 103 41 q41.5 13.5 70 16.5 q28.5 3 58.5 3 q59 0 101.5 -21 q42.5 -21 71.5 -55.5 q29 -34.5 46.5 -79 q17.5 -44.5 26.5 -91 q9 -46.5 12 -92 q3 -45.5 3 -82.5 q0 -35 -1.5 -65 q-1.5 -30 -3 -65.5 q-1.5 -35.5 -3 -80.5 q-1.5 -45 -1.5 -109 q0 -30 11 -50 q11 -20 28.5 -33 q17.5 -13 38.5 -19.5 q21 -6.5 41 -10.5 q20 -4 36.5 -6.5 q16.5 -2.5 25.5 -6.5 q4 -2 7 -13 q3 -11 3 -16 q0 -6 -2 -17.5 q-2 -11.5 -8 -13.5 l-558 0 q-6 2 -8 13.5 q-2 11.5 -2 17.5 q0 5 3 16 q3 11 7 13 q13 6 37 9.5 q24 3.5 48 15 q24 11.5 41.5 35.5 q17.5 24 17.5 72 l0 2 q5 31 6.5 68.5 q1.5 37.5 1.5 82.5 q0 22 -0.5 41.5 q-0.5 19.5 -0.5 40 q0 20.5 -0.5 44.5 q-0.5 24 -0.5 55 q0 49 -4.5 98 q-4.5 49 -22 88 q-17.5 39 -51.5 63.5 q-34 24.5 -94 24.5 q-10 0 -22 -2.5 q-12 -2.5 -33 -10 q-21 -7.5 -56 -22.5 q-35 -15 -92 -39 q-8 -5 -16.5 -11.5 q-8.5 -6.5 -9.5 -16.5 l0 -512 q0 -45 18 -68.5 q18 -23.5 42 -34 q24 -10.5 48 -14 q24 -3.5 37 -9.5 q4 -2 7 -13 q3 -11 3 -16 q0 -6 -2 -17.5 q-2 -11.5 -8 -13.5 l-522 0 q-6 2 -8 13.5 q-2 11.5 -2 17.5 q0 5 3 16 q3 11 7 13 q13 6 37 9.5 q24 3.5 48 14 q24 10.5 42 34 q18 23.5 18 68.5 l0 436 q0 39 -6 71.5 q-6 32.5 -23 56 q-17 23.5 -47.5 36.5 q-30.5 13 -79.5 13 q-23 0 -58 -12.5 q-35 -12.5 -71.5 -31.5 q-36.5 -19 -68 -40 q-31.5 -21 -46.5 -39 l0 -490 q0 -45 18 -68.5 q18 -23.5 42 -34 q24 -10.5 48 -14 q24 -3.5 37 -9.5 q4 -2 7 -13 q3 -11 3 -16 q0 -6 -2 -17.5 q-2 -11.5 -8 -13.5 l-522 0 q-6 2 -8 13.5 q-2 11.5 -2 17.5 q0 5 3 16 q3 11 7 13 q13 6 37 9.5 q24 3.5 48 14 q24 10.5 42 33 q18 22.5 18 67.5 l0 509 q0 24 -13 37.5 q-13 13.5 -33 20.5 q-20 7 -43 11.5 q-23 4.5 -44 10.5 q-6 2 -9.5 5.5 q-3.5 3.5 -3.5 14.5 q0 5 3 10 q3 5 12 10 l331 157 Z" /><glyph glyph-name="n" unicode="n" d="M407 970 q4 2 8.5 4 q4.5 2 6.5 2 q17 0 17 -24 l0 -156 q3 -10 8 -10 q5 0 8 0.5 q3 0.5 8 3.5 q64 33 108.5 55.5 q44.5 22.5 77 38 q32.5 15.5 58 24 q25.5 8.5 51.5 13 q26 4.5 57 5.5 q31 1 76 1 q49 0 85 -21 q36 -21 60.5 -55.5 q24.5 -34.5 40 -79 q15.5 -44.5 23.5 -91 q8 -46.5 11 -92 q3 -45.5 3 -82.5 q0 -35 -1.5 -65 q-1.5 -30 -3 -65.5 q-1.5 -35.5 -3 -80.5 q-1.5 -45 -1.5 -109 q0 -30 11 -50 q11 -20 28.5 -33 q17.5 -13 38.5 -19.5 q21 -6.5 41 -10.5 q20 -4 36.5 -6.5 q16.5 -2.5 25.5 -6.5 q4 -2 7 -13 q3 -11 3 -16 q0 -6 -2 -17.5 q-2 -11.5 -8 -13.5 l-558 0 q-6 2 -8 13.5 q-2 11.5 -2 17.5 q0 5 3 16 q3 11 7 13 q13 6 34.5 9.5 q21.5 3.5 44 15.5 q22.5 12 41 36.5 q18.5 24.5 24.5 72.5 q2 15 3.5 28 q1.5 13 2.5 26.5 q1 13.5 1.5 29.5 q0.5 16 0.5 37 q0 45 -1 96 q-1 51 -1 114 q0 49 -4.5 97 q-4.5 48 -22 86 q-17.5 38 -51.5 62 q-34 24 -94 24 q-21 0 -37.5 -2.5 q-16.5 -2.5 -40 -11.5 q-23.5 -9 -61.5 -27 q-38 -18 -102 -49 q-8 -5 -16.5 -11.5 q-8.5 -6.5 -9.5 -16.5 l0 -490 q0 -45 18 -68.5 q18 -23.5 42 -34 q24 -10.5 48 -14 q24 -3.5 37 -9.5 q4 -2 7 -13 q3 -11 3 -16 q0 -6 -2 -17.5 q-2 -11.5 -8 -13.5 l-522 0 q-6 2 -8 13.5 q-2 11.5 -2 17.5 q0 5 3 16 q3 11 7 13 q13 6 37 9.5 q24 3.5 48 14 q24 10.5 42 34 q18 23.5 18 68.5 l0 508 q0 24 -13 37.5 q-13 13.5 -33 20.5 q-20 7 -43 11.5 q-23 4.5 -44 10.5 q-6 2 -9.5 5.5 q-3.5 3.5 -3.5 14.5 q0 5 3 10 q3 5 12 10 l331 156 Z" /><glyph glyph-name="o" unicode="o" d="M75 467 q0 94 41.5 180 q41.5 86 111.5 152 q70 66 163 105 q93 39 196 39 q108 0 205 -37 q97 -37 170.5 -101.5 q73.5 -64.5 116.5 -152 q43 -87.5 43 -189.5 q0 -104 -39.5 -193.5 q-39.5 -89.5 -109.5 -155.5 q-70 -66 -166.5 -103.5 q-96.5 -37.5 -210.5 -37.5 q-113 0 -208.5 38.5 q-95.5 38.5 -165 105 q-69.5 66.5 -108.5 156.5 q-39 90 -39 194 ZM331 530 q0 -54 8 -111.5 q8 -57.5 24 -112 q16 -54.5 40.5 -102.5 q24.5 -48 58.5 -84.5 q34 -36.5 77 -57.5 q43 -21 97 -21 q59 0 101.5 30.5 q42.5 30.5 70 79.5 q27.5 49 40.5 110 q13 61 13 122 q0 49 -9 103.5 q-9 54.5 -27 108 q-18 53.5 -44 102.5 q-26 49 -60.5 86.5 q-34.5 37.5 -77 59.5 q-42.5 22 -92.5 22 q-56 0 -97.5 -30.5 q-41.5 -30.5 -68.5 -79 q-27 -48.5 -40.5 -108 q-13.5 -59.5 -13.5 -117.5 Z" /><glyph glyph-name="p" unicode="p" d="M367 970 q4 2 8.5 4 q4.5 2 6.5 2 q17 0 17 -24 l0 -106 q0 -5 4.5 -8 q4.5 -3 7.5 -3 q5 0 9.5 2.5 q4.5 2.5 8.5 4.5 q40 24 72 40.5 q32 16.5 61 26 q29 9.5 60 13.5 q31 4 70 4 q85 0 152.5 -40.5 q67.5 -40.5 114.5 -106 q47 -65.5 72 -147.5 q25 -82 25 -165 q0 -61 -17 -122 q-17 -61 -47 -115.5 q-30 -54.5 -72 -101.5 q-42 -47 -92.5 -81.5 q-50.5 -34.5 -108 -54 q-57.5 -19.5 -118.5 -19.5 q-45 0 -87.5 6 q-42.5 6 -93.5 17 q-17 0 -18.5 -12 q-1.5 -12 -2.5 -25 l0 -407 q0 -29 12.5 -48.5 q12.5 -19.5 32 -32 q19.5 -12.5 43 -19 q23.5 -6.5 45.5 -10.5 q22 -4 40 -6.5 q18 -2.5 27 -6.5 q10 -4 10 -13 q0 -14 -10 -16 l-577 0 q-10 2 -10 16 q0 9 10 13 q13 6 37 9.5 q24 3.5 48 14 q24 10.5 42 33 q18 22.5 18 66.5 l0 1142 q0 24 -13 37.5 q-13 13.5 -33 20.5 q-20 7 -43 11.5 q-23 4.5 -44 10.5 q-6 2 -9.5 5.5 q-3.5 3.5 -3.5 14.5 q0 5 3 10 q3 5 12 10 l331 156 ZM603 813 q-54 0 -98.5 -15 q-44.5 -15 -90.5 -49 q-2 -1 -4.5 -3.5 q-2.5 -2.5 -4.5 -4.5 l-6 -6 l0 -534 q0 -3 1 -16.5 q1 -13.5 3 -24.5 q3 -21 26 -38.5 q23 -17.5 52.5 -30 q29.5 -12.5 59 -19 q29.5 -6.5 47.5 -6.5 q66 0 111.5 24 q45.5 24 73.5 64.5 q28 40.5 40.5 94.5 q12.5 54 12.5 115 q0 47 -5 98.5 q-5 51.5 -15.5 101.5 q-10.5 50 -28 95 q-17.5 45 -42 79 q-24.5 34 -57.5 54.5 q-33 20.5 -75 20.5 Z" /><glyph glyph-name="q" unicode="q" d="M1009 -448 q0 -44 18 -66.5 q18 -22.5 42 -33 q24 -10.5 48 -14 q24 -3.5 37 -9.5 q10 -4 10 -13 q0 -14 -10 -16 l-612 0 q-10 2 -10 16 q0 9 10 13 q9 4 29.5 6.5 q20.5 2.5 46.5 6.5 q26 4 54 10.5 q28 6.5 51.5 19 q23.5 12.5 38.5 31.5 q15 19 15 49 l0 518 q0 5 -1 5.5 q-1 0.5 -3 0.5 q-5 0 -18 -8 q-53 -30 -87.5 -48.5 q-34.5 -18.5 -63.5 -29 q-29 -10.5 -58 -14 q-29 -3.5 -71 -3.5 q-77 0 -145 37 q-68 37 -119 100 q-51 63 -81 145.5 q-30 82.5 -30 172.5 q0 116 43.5 211.5 q43.5 95.5 116 163 q72.5 67.5 166 104.5 q93.5 37 193.5 37 q66 0 125 -16.5 q59 -16.5 116 -47.5 l7 0 q13 0 32 11 q19 11 38 24.5 q19 13.5 34.5 25 q15.5 11.5 21.5 11.5 l10 0 q2 0 4 -0.5 q2 -0.5 2 -5.5 l0 -1394 ZM777 626 q0 127 -53 184 q-53 57 -144 57 q-49 0 -94.5 -33 q-45.5 -33 -81 -92.5 q-35.5 -59.5 -56.5 -143 q-21 -83.5 -21 -183.5 q0 -75 24.5 -134.5 q24.5 -59.5 62.5 -101 q38 -41.5 84.5 -63.5 q46.5 -22 91.5 -22 q66 0 131 28 q21 9 38.5 28 q17.5 19 17.5 32 l0 444 Z" /><glyph glyph-name="r" unicode="r" d="M407 939 q4 2 8.5 4 q4.5 2 6.5 2 q17 0 17 -24 l0 -170 q0 -3 0.5 -7.5 q0.5 -4.5 5.5 -4.5 q5 0 8 3.5 q3 3.5 6 6.5 q18 24 40.5 53.5 q22.5 29.5 48 55.5 q25.5 26 52.5 43.5 q27 17.5 53 17.5 q18 0 47 -10 q29 -10 56.5 -23.5 q27.5 -13.5 47 -28 q19.5 -14.5 19.5 -23.5 q0 -9 -9 -33.5 q-9 -24.5 -22.5 -49.5 q-13.5 -25 -29 -44.5 q-15.5 -19.5 -28.5 -19.5 l-2 0 q-18 6 -36.5 14.5 q-18.5 8.5 -37.5 17 q-19 8.5 -38.5 14 q-19.5 5.5 -39.5 5.5 q-30 0 -56 -12.5 q-26 -12.5 -44.5 -32 q-18.5 -19.5 -29.5 -43.5 q-11 -24 -11 -46 l0 -422 q0 -29 12.5 -48.5 q12.5 -19.5 32 -32 q19.5 -12.5 43 -19 q23.5 -6.5 45.5 -10.5 q22 -4 40 -6.5 q18 -2.5 27 -6.5 q10 -4 10 -28 q0 -29 -10 -31 l-577 0 q-10 2 -10 31 q0 24 10 28 q13 6 37 9.5 q24 3.5 48 14 q24 10.5 42 33 q18 22.5 18 66.5 l0 481 q0 24 -13 37.5 q-13 13.5 -33 20.5 q-20 7 -43 11.5 q-23 4.5 -44 10.5 q-6 2 -9.5 5.5 q-3.5 3.5 -3.5 14.5 q0 5 3 10 q3 5 12 10 l331 156 Z" /><glyph glyph-name="s" unicode="s" d="M197 6 q-9 0 -16 -5 q-7 -5 -13.5 -11.5 q-6.5 -6.5 -12.5 -11.5 q-6 -5 -14 -5 l-36 0 q-2 0 -6 29 q-4 29 -8.5 69.5 q-4.5 40.5 -7.5 84 q-3 43.5 -3 72.5 q0 16 11.5 20.5 q11.5 4.5 24.5 4.5 q7 0 15.5 -5 q8.5 -5 16 -12.5 q7.5 -7.5 13.5 -15.5 q6 -8 9 -14 q17 -37 34 -67 q17 -30 39 -51 q22 -21 52 -32.5 q30 -11.5 72 -11.5 q32 0 52 11 q20 11 31 29 q11 18 14.5 41 q3.5 23 3.5 48 q0 50 -30 84.5 q-30 34.5 -74.5 64.5 q-44.5 30 -97 61 q-52.5 31 -97 72 q-44.5 41 -74.5 97.5 q-30 56.5 -30 139.5 q0 48 30 93.5 q30 45.5 78 80.5 q48 35 107.5 56 q59.5 21 118.5 21 q31 0 62.5 -5.5 q31.5 -5.5 58 -12.5 q26.5 -7 45 -14 q18.5 -7 23.5 -10 q7 -5 11.5 -15.5 q4.5 -10.5 6 -33.5 q1.5 -23 2 -61.5 q0.5 -38.5 0.5 -100.5 q0 -17 -12.5 -24.5 q-12.5 -7.5 -24.5 -7.5 q-11 0 -21.5 4 q-10.5 4 -13.5 13 q-12 31 -27 62.5 q-15 31.5 -34.5 57 q-19.5 25.5 -45.5 41 q-26 15.5 -60 15.5 q-20 0 -40 -5 q-20 -5 -36 -19.5 q-16 -14.5 -25.5 -39.5 q-9.5 -25 -9.5 -64 q0 -34 31.5 -63 q31.5 -29 78.5 -58.5 q47 -29.5 102.5 -63.5 q55.5 -34 102.5 -78 q47 -44 78.5 -101.5 q31.5 -57.5 31.5 -135.5 q0 -58 -30 -104.5 q-30 -46.5 -77 -78.5 q-47 -32 -104.5 -49.5 q-57.5 -17.5 -112.5 -17.5 q-28 0 -56 5 q-28 5 -51 11.5 q-23 6.5 -38 11.5 q-15 5 -17 5 Z" /><glyph glyph-name="t" unicode="t" d="M151 771 l-75 0 q-14 0 -22 7 q-8 7 -9 15 q0 5 2 11 q2 6 5 8 q20 13 43.5 30.5 q23.5 17.5 46.5 36.5 q23 19 45 38 q22 19 39 35 q10 11 27.5 33 q17.5 22 40 43.5 q22.5 21.5 48.5 38 q26 16.5 53 16.5 q6 0 14 -4 q8 -4 8 -10 q0 -7 -3.5 -21.5 q-3.5 -14.5 -8.5 -32.5 q-5 -18 -11 -38 q-6 -20 -11 -39 q0 -8 2.5 -13 q2.5 -5 13.5 -6 l255 0 q16 0 22 -5.5 q6 -5.5 9 -14.5 q2 -5 4 -20.5 q2 -15.5 4 -34 q2 -18.5 3.5 -37 q1.5 -18.5 1.5 -30.5 q0 -6 -8 -6 l-301 0 q-5 0 -5.5 -2 q-0.5 -2 -0.5 -7 l0 -497 q0 -32 8 -56 q8 -24 20.5 -40 q12.5 -16 28.5 -24 q16 -8 32 -8 q46 0 75 13.5 q29 13.5 50 29.5 q21 16 37 29.5 q16 13.5 36 13.5 q14 0 16.5 -11 q2.5 -11 2.5 -17 q0 -13 -3.5 -20.5 q-3.5 -7.5 -5.5 -11.5 q-1 -2 -11 -17 q-10 -15 -27 -36 q-17 -21 -41.5 -45 q-24.5 -24 -54.5 -44.5 q-30 -20.5 -65.5 -34 q-35.5 -13.5 -74.5 -13.5 q-54 0 -101 20 q-47 20 -81 53.5 q-34 33.5 -53.5 76.5 q-19.5 43 -19.5 89 l0 559 Z" /><glyph glyph-name="u" unicode="u" d="M164 730 q-3 29 -26.5 49.5 q-23.5 20.5 -50.5 26.5 q-7 2 -15.5 2.5 q-8.5 0.5 -15.5 2 q-7 1.5 -11.5 5 q-4.5 3.5 -4.5 12.5 q0 8 2.5 14 q2.5 6 13.5 9 l305 88 q6 2 12.5 3 q6.5 1 12.5 1 q10 0 10 -17 l0 -675 q0 -34 15.5 -61.5 q15.5 -27.5 40.5 -46.5 q25 -19 57 -29 q32 -10 66 -10 q24 0 50 8 q26 8 50 20.5 q24 12.5 45 29 q21 16.5 34 34.5 l0 535 q-3 29 -26.5 49.5 q-23.5 20.5 -50.5 26.5 q-7 2 -15.5 2.5 q-8.5 0.5 -15.5 2 q-7 1.5 -11.5 5 q-4.5 3.5 -4.5 12.5 q0 8 2.5 14 q2.5 6 13.5 9 l305 87 q6 2 12.5 3 q6.5 1 12.5 1 q10 0 10 -9 l0 -690 q5 -44 25 -63 q20 -19 65 -19 l58 4 q4 0 5 -13.5 q1 -13.5 1 -19.5 q0 -2 -2.5 -13 q-2.5 -11 -12.5 -16 l-304 -125 q-2 -1 -10 -3.5 q-8 -2.5 -9 -2.5 q-7 0 -8.5 8.5 q-1.5 8.5 -1.5 16.5 l0 96 q-3 4 -10 4 q-2 0 -4 0 q-2 0 -2 -2 l-160 -78 q-22 -8 -41 -15.5 q-19 -7.5 -37.5 -14.5 q-18.5 -7 -39.5 -11 q-21 -4 -46 -4 q-42 0 -92.5 8.5 q-50.5 8.5 -94 27 q-43.5 18.5 -72.5 47.5 q-29 29 -29 70 l0 604 l0 0 Z" /><glyph glyph-name="v" unicode="v" d="M479 -27 q-8 0 -13.5 11.5 q-5.5 11.5 -8.5 19.5 l-271 735 q-17 46 -49 80.5 q-32 34.5 -78 49.5 q-7 2 -17 3 q-10 1 -19.5 3 q-9.5 2 -16 7 q-6.5 5 -6.5 16 q0 10 5 18.5 q5 8.5 17 8.5 l526 0 q6 0 8 -10.5 q2 -10.5 2 -13.5 q0 -14 -11 -18.5 q-11 -4.5 -28 -5.5 q-17 -1 -36 -0.5 q-19 0.5 -36 -4.5 q-17 -5 -28 -17.5 q-11 -12.5 -11 -38.5 q0 -3 3 -12.5 q3 -9.5 3 -11.5 l199 -544 q2 -5 6.5 -14.5 q4.5 -9.5 12.5 -9.5 q4 0 8.5 4.5 q4.5 4.5 7.5 10.5 q3 6 5 11.5 q2 5.5 3 7.5 q47 120 79 202.5 q32 82.5 53 137.5 q21 55 32.5 86.5 q11.5 31.5 16.5 48.5 q5 17 6 24.5 q1 7.5 1 14.5 q0 35 -22 57.5 q-22 22.5 -54 34.5 q-9 2 -22.5 2 q-13.5 0 -26 2 q-12.5 2 -22 8 q-9.5 6 -9.5 20 q0 8 8 16 q8 8 16 8 l399 0 q6 -1 7.5 -7.5 q1.5 -6.5 1.5 -17.5 q0 -7 -2 -10.5 q-2 -3.5 -9.5 -6 q-7.5 -2.5 -21 -4.5 q-13.5 -2 -35.5 -6 q-22 -4 -38.5 -20.5 q-16.5 -16.5 -30 -38.5 q-13.5 -22 -23.5 -45.5 q-10 -23.5 -19 -42.5 q-68 -174 -114.5 -295 q-46.5 -121 -77.5 -201 q-31 -80 -48.5 -124.5 q-17.5 -44.5 -26.5 -66.5 q-9 -22 -11 -27 q-2 -5 -2 -5 q-3 -7 -8.5 -18 q-5.5 -11 -13.5 -11 l-160 0 l0 0 Z" /><glyph glyph-name="w" unicode="w" d="M481 -27 q-8 0 -13.5 11.5 q-5.5 11.5 -8.5 19.5 l-265 717 q-17 46 -49 80.5 q-32 34.5 -78 49.5 q-7 2 -17 4.5 q-10 2.5 -19.5 6.5 q-9.5 4 -16 10.5 q-6.5 6.5 -6.5 17.5 q0 10 6 20 q6 10 18 10 l525 0 q6 0 7 -12 q1 -12 1 -15 q0 -14 -11 -19.5 q-11 -5.5 -27 -7 q-16 -1.5 -35 -3 q-19 -1.5 -35 -7 q-16 -5.5 -27 -19 q-11 -13.5 -11 -39.5 q0 -3 1 -12.5 q1 -9.5 1 -11.5 l193 -525 q2 -5 6.5 -14.5 q4.5 -9.5 12.5 -9.5 q4 0 8.5 4.5 q4.5 4.5 7.5 10.5 q3 6 5 11.5 q2 5.5 3 7.5 l174 462 q-17 46 -49 80.5 q-32 34.5 -78 49.5 q-7 2 -17 4.5 q-10 2.5 -19.5 6.5 q-9.5 4 -16 10.5 q-6.5 6.5 -6.5 17.5 q0 10 6 20 q6 10 18 10 l526 0 q6 0 7 -12 q1 -12 1 -15 q0 -14 -11 -19.5 q-11 -5.5 -27 -7 q-16 -1.5 -35 -3 q-19 -1.5 -35 -7 q-16 -5.5 -27 -19 q-11 -13.5 -11 -39.5 q0 -3 1 -12.5 q1 -9.5 1 -11.5 l164 -446 q2 -5 6.5 -14.5 q4.5 -9.5 12.5 -9.5 q4 0 8.5 4.5 q4.5 4.5 8 10.5 q3.5 6 5.5 11.5 q2 5.5 3 7.5 l149 391 q4 11 4 24 q0 24 -10.5 42.5 q-10.5 18.5 -26.5 31 q-16 12.5 -33.5 18.5 q-17.5 6 -31.5 6 q-20 0 -39.5 10 q-19.5 10 -19.5 32 q0 8 7 17.5 q7 9.5 15 9.5 l401 0 q8 -2 9.5 -12.5 q1.5 -10.5 1.5 -15.5 q0 -7 -2 -12 q-2 -5 -9.5 -9.5 q-7.5 -4.5 -21 -8 q-13.5 -3.5 -35.5 -7.5 q-22 -4 -38.5 -20.5 q-16.5 -16.5 -30 -38.5 q-13.5 -22 -23.5 -45.5 q-10 -23.5 -19 -42.5 q-67 -175 -113.5 -295 q-46.5 -120 -77 -198 q-30.5 -78 -47 -121 q-16.5 -43 -24.5 -63 q-8 -20 -9.5 -24.5 q-1.5 -4.5 -1.5 -4.5 q-3 -7 -8 -18 q-5 -11 -13 -11 l-102 0 q-8 0 -13.5 11.5 q-5.5 11.5 -8.5 19.5 l-217 586 l-227 -588 q-3 -7 -8.5 -18 q-5.5 -11 -13.5 -11 l-149 0 l0 0 Z" /><glyph glyph-name="x" unicode="x" d="M491 920 q6 0 7 -7 q1 -7 1 -10 q-1 -8 -16 -11.5 q-15 -3.5 -33 -9 q-18 -5.5 -33 -16.5 q-15 -11 -15 -33 q0 -9 2 -18 q2 -9 7 -14 l131 -161 q8 -9 16.5 -19.5 q8.5 -10.5 16.5 -10.5 q5 0 13 10 l117 140 q13 15 19 26.5 q6 11.5 6 30.5 q0 30 -16 41.5 q-16 11.5 -35.5 17 q-19.5 5.5 -35.5 10.5 q-16 5 -16 22 q0 4 1.5 8 q1.5 4 9.5 4 l333 0 q6 0 7 -2.5 q1 -2.5 1 -14.5 q0 -4 -1 -10 q-1 -6 -7 -9 q-29 -8 -50 -17.5 q-21 -9.5 -39 -22.5 q-18 -13 -34.5 -30.5 q-16.5 -17.5 -36.5 -41.5 l-183 -218 q-3 -5 -3.5 -7.5 q-0.5 -2.5 -0.5 -8.5 l360 -447 q10 -13 27.5 -20.5 q17.5 -7.5 34 -14.5 q16.5 -7 28.5 -15.5 q12 -8.5 12 -22.5 q0 -9 -2 -12 q-2 -3 -10 -6 l-465 0 q-8 0 -9 8 q-1 8 -1 11 q0 13 16.5 15.5 q16.5 2.5 37 5.5 q20.5 3 37 12 q16.5 9 16.5 36 q0 14 -8.5 25 q-8.5 11 -16.5 20 l-172 202 q-8 11 -12.5 17 q-4.5 6 -18.5 6 q-12 0 -19.5 -10.5 q-7.5 -10.5 -15.5 -18.5 l-147 -175 q-13 -15 -17 -30.5 q-4 -15.5 -4 -24.5 q0 -18 13.5 -31.5 q13.5 -13.5 32.5 -22 q19 -8.5 38 -12.5 q19 -4 31 -4 q4 0 5.5 -5 q1.5 -5 1.5 -10 q0 -5 -1.5 -9.5 q-1.5 -4.5 -5.5 -4.5 l-341 0 q-11 0 -13.5 4.5 q-2.5 4.5 -2.5 13.5 q0 9 16 19 q16 10 36.5 19.5 q20.5 9.5 41 20 q20.5 10.5 29.5 21.5 l275 333 l-326 410 q-8 9 -22.5 16.5 q-14.5 7.5 -29.5 14 q-15 6.5 -25.5 13.5 q-10.5 7 -10.5 15 q2 20 24 20 l450 0 Z" /><glyph glyph-name="y" unicode="y" d="M331 -620 q-18 0 -35 6 q-17 6 -31 17 q-14 11 -22.5 25.5 q-8.5 14.5 -8.5 32.5 q0 28 14.5 43 q14.5 15 35.5 25 q21 10 44 17 q23 7 39 19 q11 8 23.5 18.5 q12.5 10.5 22.5 33.5 l131 305 l-383 799 q-17 46 -49 80.5 q-32 34.5 -78 49.5 q-7 2 -17 4.5 q-10 2.5 -19.5 6.5 q-9.5 4 -16 10.5 q-6.5 6.5 -6.5 17.5 q0 10 6 20 q6 10 18 10 l528 0 q6 0 7 -12 q1 -12 1 -15 q0 -14 -11.5 -19.5 q-11.5 -5.5 -28.5 -7.5 q-17 -2 -36.5 -3 q-19.5 -1 -36.5 -7 q-17 -6 -28.5 -19 q-11.5 -13 -11.5 -39 q0 -3 4.5 -12.5 q4.5 -9.5 4.5 -11.5 l248 -531 q2 -5 7.5 -14.5 q5.5 -9.5 12.5 -9.5 q4 0 8 4.5 q4 4.5 7 10.5 q3 6 5 11.5 q2 5.5 3 7.5 q46 118 77.5 200 q31.5 82 52 136 q20.5 54 31 84.5 q10.5 30.5 15 47 q4.5 16.5 5.5 24 q1 7.5 1 14.5 q2 35 -21 58 q-23 23 -55 34 q-9 3 -22.5 4.5 q-13.5 1.5 -26 5 q-12.5 3.5 -22 11 q-9.5 7.5 -9.5 21.5 q0 8 7 17.5 q7 9.5 15 9.5 l399 0 q8 0 9.5 -11.5 q1.5 -11.5 1.5 -16.5 q0 -7 -2 -12 q-2 -5 -9.5 -9 q-7.5 -4 -21 -8 q-13.5 -4 -35.5 -8 q-21 -4 -38 -20.5 q-17 -16.5 -30.5 -38 q-13.5 -21.5 -24 -45.5 q-10.5 -24 -18.5 -43 l-507 -1256 q-8 -19 -23 -32.5 q-15 -13.5 -33 -22.5 q-18 -9 -36 -13 q-18 -4 -31 -4 Z" /><glyph glyph-name="z" unicode="z" d="M62 20 q0 8 0.5 12 q0.5 4 5.5 13 l493 671 q10 14 17.5 24 q7.5 10 7.5 25 q1 3 -13 4.5 q-14 1.5 -35 2.5 q-21 1 -44 1.5 q-23 0.5 -39 0.5 l-165 0 q-34 0 -57 -15 q-23 -15 -39.5 -37.5 q-16.5 -22.5 -27.5 -49 q-11 -26.5 -20 -49 q-9 -22.5 -17.5 -37.5 q-8.5 -15 -20.5 -15 q-3 0 -14 0.5 q-11 0.5 -11 3.5 l60 353 q2 9 15 10.5 q13 1.5 21 1.5 q7 0 13.5 -7 q6.5 -7 14 -15.5 q7.5 -8.5 16.5 -15.5 q9 -7 22 -7 q15 0 39.5 -1.5 q24.5 -1.5 62 -3 q37.5 -1.5 90.5 -2.5 q53 -1 127 -1 q30 0 70.5 0.5 q40.5 0.5 87 1.5 q46.5 1 96.5 2 q50 1 98 2 q6 -2 8 -9 q2 -7 2 -14 q0 -2 -5 -16.5 q-5 -14.5 -11 -19.5 l-506 -688 q-4 -6 -7.5 -11 q-3.5 -5 -3.5 -12 q0 -5 0.5 -6.5 q0.5 -1.5 5.5 -1.5 l345 0 q27 0 48.5 11.5 q21.5 11.5 40 29.5 q18.5 18 33.5 38 q15 20 29 38 q14 18 26.5 29.5 q12.5 11.5 25.5 11.5 q6 0 17.5 -3 q11.5 -3 11.5 -9 l-83 -215 q-2 -4 -5 -12 q-3 -8 -7.5 -15.5 q-4.5 -7.5 -11 -13 q-6.5 -5.5 -14.5 -5.5 l-771 0 q-22 0 -22 20 Z" /><glyph glyph-name="braceleft" unicode="{" d="M206 702 q0 29 19.5 45.5 q19.5 16.5 47.5 16.5 q54 0 85 33.5 q31 33.5 31 111.5 q0 58 -12.5 115 q-12.5 57 -27.5 113.5 q-15 56.5 -27.5 114 q-12.5 57.5 -12.5 116.5 q0 69 24.5 123.5 q24.5 54.5 66.5 95 q42 40.5 96.5 69 q54.5 28.5 115 46 q60.5 17.5 122 25.5 q61.5 8 117.5 8 q40 0 57.5 -12 q17.5 -12 17.5 -37 q0 -18 -5.5 -29.5 q-5.5 -11.5 -15.5 -17.5 q-10 -6 -22.5 -8.5 q-12.5 -2.5 -27.5 -3.5 q-60 -3 -113.5 -17.5 q-53.5 -14.5 -93.5 -44 q-40 -29.5 -63.5 -75 q-23.5 -45.5 -23.5 -110.5 q0 -59 4.5 -116.5 q4.5 -57.5 15.5 -124.5 q7 -45 12 -87.5 q5 -42.5 5 -86.5 q0 -32 -7 -60.5 q-7 -28.5 -18 -52.5 q-11 -24 -24 -43 q-13 -19 -25 -31 q-8 -8 -19 -17.5 q-11 -9.5 -20.5 -19.5 q-9.5 -10 -16.5 -20 q-7 -10 -7 -19 q0 -9 8 -20.5 q8 -11.5 19 -23.5 q11 -12 22 -22.5 q11 -10.5 17 -16.5 q11 -13 23.5 -32 q12.5 -19 23 -42.5 q10.5 -23.5 17.5 -51.5 q7 -28 7 -59 q0 -32 -5.5 -78.5 q-5.5 -46.5 -15.5 -112.5 q-8 -54 -12 -111 q-4 -57 -4 -107 q0 -57 14.5 -100.5 q14.5 -43.5 39 -76 q24.5 -32.5 56 -54.5 q31.5 -22 66.5 -35.5 q35 -13.5 70 -19 q35 -5.5 66 -5.5 q35 0 44 -15 q9 -15 9 -43 q0 -24 -13.5 -37.5 q-13.5 -13.5 -39.5 -13.5 q-48 0 -108.5 6.5 q-60.5 6.5 -123 22.5 q-62.5 16 -122.5 44 q-60 28 -106.5 70.5 q-46.5 42.5 -75 101.5 q-28.5 59 -28.5 138 q0 55 12.5 111.5 q12.5 56.5 27.5 112.5 q15 56 27.5 111.5 q12.5 55.5 12.5 109.5 q0 38 -6.5 72 q-6.5 34 -21 59.5 q-14.5 25.5 -37.5 41.5 q-23 16 -57 19 q-26 6 -43.5 21.5 q-17.5 15.5 -17.5 35.5 Z" /><glyph glyph-name="bar" unicode="|" d="M150 1645 l191 0 l0 -1680 l-191 0 l0 1680 Z" /><glyph glyph-name="braceright" unicode="}" d="M928 702 q0 -20 -17.5 -35.5 q-17.5 -15.5 -43.5 -21.5 q-34 -3 -57 -19 q-23 -16 -37.5 -41.5 q-14.5 -25.5 -21 -59.5 q-6.5 -34 -6.5 -72 q0 -54 12.5 -109.5 q12.5 -55.5 27.5 -111.5 q15 -56 27.5 -112.5 q12.5 -56.5 12.5 -111.5 q0 -79 -28.5 -138 q-28.5 -59 -75 -101.5 q-46.5 -42.5 -106.5 -70.5 q-60 -28 -122.5 -44 q-62.5 -16 -123 -22.5 q-60.5 -6.5 -108.5 -6.5 q-26 0 -39.5 13.5 q-13.5 13.5 -13.5 37.5 q0 28 9 43 q9 15 44 15 q46 0 101 13.5 q55 13.5 101.5 46.5 q46.5 33 78 89 q31.5 56 31.5 142 q0 50 -4 107 q-4 57 -12 111 q-9 65 -15 113 q-6 48 -6 78 q0 31 6.5 59 q6.5 28 17 51.5 q10.5 23.5 22.5 42.5 q12 19 23 31 q6 7 17.5 17.5 q11.5 10.5 23 22 q11.5 11.5 19.5 23.5 q8 12 8 21 q0 8 -7 18 q-7 10 -17 20.5 q-10 10.5 -20 20 q-10 9.5 -17 16.5 q-12 13 -25.5 32 q-13.5 19 -24.5 43 q-11 24 -18.5 52.5 q-7.5 28.5 -7.5 60.5 q0 44 5 86.5 q5 42.5 12 87.5 q11 67 15.5 124.5 q4.5 57.5 4.5 116.5 q0 65 -25.5 111.5 q-25.5 46.5 -67.5 76.5 q-42 30 -96 44 q-54 14 -111 14 q-36 0 -50.5 16 q-14.5 16 -14.5 44 q0 25 12.5 37 q12.5 12 52.5 12 q63 0 128.5 -8 q65.5 -8 127 -25.5 q61.5 -17.5 115.5 -46 q54 -28.5 94 -69 q40 -40.5 63.5 -95 q23.5 -54.5 23.5 -123.5 q0 -59 -12.5 -116.5 q-12.5 -57.5 -27.5 -114 q-15 -56.5 -27.5 -113.5 q-12.5 -57 -12.5 -115 q0 -23 5.5 -45.5 q5.5 -22.5 19.5 -41.5 q14 -19 38 -34 q24 -15 61 -24 q24 -3 41.5 -19.5 q17.5 -16.5 17.5 -42.5 Z" /><glyph glyph-name="asciitilde" unicode="~" d="M1018 811 q0 -89 -20.5 -158.5 q-20.5 -69.5 -55.5 -117.5 q-35 -48 -80.5 -73.5 q-45.5 -25.5 -96.5 -25.5 q-57 0 -106 23 q-49 23 -97 56 q-44 30 -76.5 50.5 q-32.5 20.5 -56.5 32.5 q-24 12 -43 17 q-19 5 -36 5 q-13 0 -27 -8.5 q-14 -8.5 -26 -29 q-12 -20.5 -19.5 -55 q-7.5 -34.5 -8.5 -87.5 l-179 0 q0 89 20.5 158.5 q20.5 69.5 55.5 117.5 q35 48 80.5 73.5 q45.5 25.5 96.5 25.5 q28 0 58 -5.5 q30 -5.5 67.5 -21 q37.5 -15.5 85 -43 q47.5 -27.5 109.5 -70.5 q23 -16 48 -30 q25 -14 48 -14 q16 0 30.5 9.5 q14.5 9.5 25.5 31 q11 21.5 18 56 q7 34.5 7 83.5 l178 0 Z" /><glyph glyph-name="nonbreakingspace" unicode="" d="" /><glyph glyph-name="cent" unicode="" d="M90 423 q1 139 40 235.5 q39 96.5 106 158 q67 61.5 155.5 91 q88.5 29.5 187.5 34.5 l63 178 l150 0 l-65 -184 q33 -5 65.5 -13.5 q32.5 -8.5 59 -24 q26.5 -15.5 42.5 -38 q16 -22.5 16 -55.5 q0 -24 -9 -38.5 q-9 -14.5 -25 -23 q-16 -8.5 -37 -11.5 q-21 -3 -45 -3 q-22 0 -39 5.5 q-17 5.5 -30.5 15 q-13.5 9.5 -25 21.5 q-11.5 12 -22.5 25 l-225 -634 q31 -22 70.5 -33.5 q39.5 -11.5 89.5 -11.5 q28 0 55.5 9 q27.5 9 53 24.5 q25.5 15.5 48 35.5 q22.5 20 41.5 43 q10 12 19.5 20 q9.5 8 29.5 8 q24 0 41.5 -12.5 q17.5 -12.5 17.5 -26.5 q0 -4 -1.5 -10.5 q-1.5 -6.5 -10.5 -18.5 q-38 -48 -82 -88 q-44 -40 -94 -68 q-50 -28 -107.5 -43.5 q-57.5 -15.5 -122.5 -15.5 q-57 0 -109 18 l-124 -351 l-149 0 l148 419 q-40 32 -72.5 73.5 q-32.5 41.5 -55.5 88.5 q-23 47 -35.5 98 q-12.5 51 -12.5 103 ZM332 485 q0 -49 5.5 -93.5 q5.5 -44.5 16.5 -82.5 l193 544 q-66 -4 -107.5 -40.5 q-41.5 -36.5 -65.5 -90 q-24 -53.5 -33 -117 q-9 -63.5 -9 -120.5 Z" /><glyph glyph-name="sterling" unicode="" d="M212 623 q-26 0 -42.5 8.5 q-16.5 8.5 -16.5 22.5 l0 24 q0 14 16.5 23 q16.5 9 42.5 9 l139 0 q-19 37 -36.5 75 q-17.5 38 -31 77 q-13.5 39 -21.5 79.5 q-8 40.5 -8 83.5 q0 81 30.5 151 q30.5 70 82.5 122 q52 52 121 81.5 q69 29.5 145 29.5 q76 0 146.5 -19.5 q70.5 -19.5 125 -53 q54.5 -33.5 87.5 -78.5 q33 -45 33 -96 q0 -14 -6 -29 q-6 -15 -18 -27.5 q-12 -12.5 -29 -20.5 q-17 -8 -39 -8 q-27 0 -46.5 7.5 q-19.5 7.5 -34.5 22 q-15 14.5 -28 35 q-13 20.5 -27 46.5 q-19 34 -37.5 60 q-18.5 26 -40 43 q-21.5 17 -47.5 26 q-26 9 -60 9 q-30 0 -60 -13.5 q-30 -13.5 -54 -36.5 q-24 -23 -39 -55 q-15 -32 -15 -68 q0 -54 9.5 -100 q9.5 -46 25 -88 q15.5 -42 35 -80 q19.5 -38 39.5 -75 q14 -27 26.5 -49.5 q12.5 -22.5 25.5 -50.5 l161 0 q26 0 42.5 -9 q16.5 -9 16.5 -23 l0 -24 q0 -14 -16.5 -22.5 q-16.5 -8.5 -42.5 -8.5 l-126 0 q12 -37 18.5 -73.5 q6.5 -36.5 6.5 -76.5 q0 -24 -2 -53.5 q-2 -29.5 -6.5 -60.5 q-4.5 -31 -11 -61 q-6.5 -30 -15.5 -57 q21 -20 46 -39.5 q25 -19.5 51 -34.5 q26 -15 52 -24.5 q26 -9.5 50 -9.5 q38 0 66.5 24 q28.5 24 48 54 q19.5 30 29.5 57 q10 27 10 33 l91 0 q-2 -26 -9 -61 q-7 -35 -21.5 -71.5 q-14.5 -36.5 -38 -71.5 q-23.5 -35 -58.5 -62.5 q-35 -27.5 -83 -44.5 q-48 -17 -111 -17 q-37 0 -69.5 11 q-32.5 11 -60 27.5 q-27.5 16.5 -49.5 35 q-22 18.5 -37 34.5 q-18 -20 -41 -39.5 q-23 -19.5 -50.5 -34.5 q-27.5 -15 -59 -24.5 q-31.5 -9.5 -66.5 -9.5 q-53 0 -91.5 14 q-38.5 14 -63.5 38 q-25 24 -37 55 q-12 31 -12 64 q0 44 20 80.5 q20 36.5 54 63 q34 26.5 77 41 q43 14.5 90 14.5 q42 0 72.5 -7 q30.5 -7 51.5 -15 l0 5 q0 40 -7.5 79.5 q-7.5 39.5 -19.5 77 q-12 37.5 -27 73 q-15 35.5 -31 67.5 l-184 0 ZM235 140 q0 -17 5 -33.5 q5 -16.5 15 -29.5 q10 -13 23.5 -21 q13.5 -8 30.5 -8 q27 0 50.5 15.5 q23.5 15.5 42 37 q18.5 21.5 31 44 q12.5 22.5 18.5 36.5 q-10 12 -23 25.5 q-13 13.5 -28.5 24.5 q-15.5 11 -34.5 18.5 q-19 7.5 -40 7.5 q-18 0 -34.5 -9.5 q-16.5 -9.5 -28.5 -25.5 q-12 -16 -19.5 -37 q-7.5 -21 -7.5 -45 Z" /><glyph glyph-name="currency" unicode="" d="M230 493 q-27 44 -42.5 88.5 q-15.5 44.5 -15.5 100.5 q0 61 17 105.5 q17 44.5 51 89.5 l-199 200 l99 99 l200 -201 q23 16 44.5 28 q21.5 12 44 20 q22.5 8 47.5 12 q25 4 55 4 q55 0 99.5 -15 q44.5 -15 89.5 -44 l197 197 l98 -98 l-197 -197 q17 -23 31 -45.5 q14 -22.5 23.5 -46.5 q9.5 -24 15 -50.5 q5.5 -26.5 5.5 -57.5 q0 -60 -18 -106 q-18 -46 -48 -91 l190 -191 l-98 -98 l-191 191 q-46 -32 -92 -49 q-46 -17 -105 -17 q-63 0 -111 19 q-48 19 -96 52 q-19 -19 -45 -45.5 q-26 -26.5 -53.5 -54 q-27.5 -27.5 -53 -53 q-25.5 -25.5 -42.5 -41.5 l-98 98 l198 197 ZM320 682 q0 -47 15.5 -86.5 q15.5 -39.5 43 -68 q27.5 -28.5 66.5 -44 q39 -15.5 86 -15.5 q47 0 86.5 15.5 q39.5 15.5 68 44 q28.5 28.5 44 68 q15.5 39.5 15.5 86.5 q0 47 -15.5 86 q-15.5 39 -44 66.5 q-28.5 27.5 -68 43 q-39.5 15.5 -86.5 15.5 q-47 0 -86 -15.5 q-39 -15.5 -66.5 -43 q-27.5 -27.5 -43 -66.5 q-15.5 -39 -15.5 -86 Z" /><glyph glyph-name="yen" unicode="" d="M284 515 q-21 0 -21 25 l0 76 q0 25 21 25 l339 0 l-323 517 q-17 27 -36.5 54.5 q-19.5 27.5 -43 52 q-23.5 24.5 -51 43 q-27.5 18.5 -59.5 26.5 q-5 1 -16 3.5 q-11 2.5 -23 4.5 q-12 2 -23 4 q-11 2 -16 3 q-10 1 -19 12.5 q-9 11.5 -9 20.5 q0 2 0.5 7 q0.5 5 2 9.5 q1.5 4.5 4.5 8 q3 3.5 8 3.5 l679 0 q11 0 14 -10 q3 -10 3 -18 q0 -10 -1.5 -21 q-1.5 -11 -11.5 -11 q-27 -2 -51 -4 q-24 -2 -41 -9.5 q-17 -7.5 -27 -22.5 q-10 -15 -10 -42 q0 -24 12 -43 l305 -490 q11 -17 14.5 -21 q3.5 -4 11.5 -4 q7 0 12.5 8 q5.5 8 13.5 21 l241 409 q14 23 28.5 51 q14.5 28 14.5 57 q0 28 -7.5 44.5 q-7.5 16.5 -22.5 25.5 q-15 9 -36.5 13 q-21.5 4 -49.5 7 q-11 1 -13 12 q-2 11 -2 20 q0 7 2.5 17.5 q2.5 10.5 14.5 10.5 l503 0 q8 0 11 -11.5 q3 -11.5 3 -16.5 q0 -10 -6.5 -17 q-6.5 -7 -16 -11.5 q-9.5 -4.5 -20 -7 q-10.5 -2.5 -19.5 -4.5 q-50 -11 -86.5 -36.5 q-36.5 -25.5 -71.5 -63.5 q-5 -5 -14.5 -16 q-9.5 -11 -10.5 -13 l-333 -572 l345 0 q10 0 15.5 -7.5 q5.5 -7.5 5.5 -17.5 l0 -76 q0 -11 -6 -18 q-6 -7 -15 -7 l-399 0 l0 -115 l402 0 q8 -2 13 -8.5 q5 -6.5 5 -16.5 l0 -76 q0 -11 -6 -18 q-6 -7 -15 -7 l-399 0 l0 -79 q0 -60 31 -93 q31 -33 110 -41 q11 -1 28 -1 q17 0 29 0 q5 0 6.5 -3 q1.5 -3 1.5 -5 l0 -44 q0 -2 -1.5 -5 q-1.5 -3 -6.5 -3 l-681 0 q-5 0 -6.5 3 q-1.5 3 -1.5 5 l0 44 q0 2 1.5 5 q1.5 3 6.5 3 q11 0 28.5 0 q17.5 0 28.5 1 q79 8 110 41 q31 33 31 93 l0 79 l-428 0 q-21 0 -21 25 l0 76 q0 25 21 25 l428 0 l0 94 q0 6 -3 10 l-7 11 l-418 0 l0 0 Z" /><glyph glyph-name="brokenbar" unicode="" d="M511 1645 l0 -750 l-181 0 l0 750 l181 0 ZM511 717 l0 -752 l-181 0 l0 752 l181 0 Z" /><glyph glyph-name="section" unicode="" d="M481 1119 q26 -45 64 -97.5 q38 -52.5 82 -111.5 q65 -87 137 -189.5 q72 -102.5 132 -217 q60 -114.5 99 -239.5 q39 -125 39 -257 q0 -58 -15 -123 q-15 -65 -46 -129.5 q-31 -64.5 -79 -124.5 q-48 -60 -113.5 -107.5 q-65.5 -47.5 -150 -79 q-84.5 -31.5 -188.5 -38.5 q-27 0 -61.5 6.5 q-34.5 6.5 -70.5 18 q-36 11.5 -70 28 q-34 16.5 -60.5 37.5 q-26.5 21 -43 45.5 q-16.5 24.5 -16.5 51.5 q0 13 3.5 30 q3.5 17 16.5 32.5 q13 15.5 38.5 26.5 q25.5 11 70.5 11 q25 0 47 -12 q22 -12 42.5 -30.5 q20.5 -18.5 41.5 -39.5 q21 -21 43.5 -39.5 q22.5 -18.5 47.5 -30.5 q25 -12 55 -12 q29 0 65 11 q36 11 67 32.5 q31 21.5 52 52.5 q21 31 21 70 q0 23 -9.5 52 q-9.5 29 -23 57.5 q-13.5 28.5 -28 53.5 q-14.5 25 -25.5 41 q-48 71 -92 133.5 q-44 62.5 -87 122.5 q-82 114 -151 215 q-69 101 -119 201.5 q-50 100.5 -78 206.5 q-28 106 -28 229 q0 54 16.5 120.5 q16.5 66.5 48.5 134.5 q32 68 81 132 q49 64 113 114 q64 50 144.5 80 q80.5 30 176.5 30 q26 0 60.5 -6 q34.5 -6 71.5 -17 q37 -11 73 -27.5 q36 -16.5 64.5 -37.5 q28.5 -21 46.5 -46 q18 -25 18 -53 q0 -12 -3.5 -29 q-3.5 -17 -16 -33 q-12.5 -16 -38.5 -27 q-26 -11 -71 -11 q-25 0 -47 12 q-22 12 -42.5 30.5 q-20.5 18.5 -41 39.5 q-20.5 21 -43 39.5 q-22.5 18.5 -47.5 30.5 q-25 12 -55 12 q-29 0 -65 -11 q-36 -11 -67 -32 q-31 -21 -52 -51.5 q-21 -30.5 -21 -70.5 q0 -24 7.5 -52 q7.5 -28 20 -56 q12.5 -28 27.5 -53.5 q15 -25.5 30 -45.5 l2 -3 ZM371 1036 q-12 16 -24.5 38.5 q-12.5 22.5 -24.5 47.5 q-12 25 -22.5 52 q-10.5 27 -19.5 53 q-25 -57 -37 -116.5 q-12 -59.5 -12 -119.5 q0 -49 8.5 -97.5 q8.5 -48.5 26.5 -94.5 q13 -55 45.5 -121.5 q32.5 -66.5 76 -138.5 q43.5 -72 94 -147 q50.5 -75 99.5 -146 q47 -68 92.5 -135.5 q45.5 -67.5 80.5 -122.5 q10 -17 22 -40 q12 -23 24 -50 q12 -27 23.5 -55.5 q11.5 -28.5 20.5 -56.5 q26 49 35 101 q9 52 9 120 q0 33 -2.5 60.5 q-2.5 27.5 -6.5 53 q-4 25.5 -9.5 51 q-5.5 25.5 -11.5 52.5 q-12 53 -42.5 115.5 q-30.5 62.5 -71.5 130 q-41 67.5 -88 136.5 q-47 69 -92 134 q-57 81 -109 159 q-52 78 -84 137 Z" /><glyph glyph-name="dieresis" unicode="" d="M170 1092 q-29 0 -54 10.5 q-25 10.5 -43.5 28.5 q-18.5 18 -29 42.5 q-10.5 24.5 -10.5 53.5 q0 29 10.5 54.5 q10.5 25.5 29 44 q18.5 18.5 43.5 29.5 q25 11 54 11 q29 0 54 -11 q25 -11 43.5 -29.5 q18.5 -18.5 29 -44 q10.5 -25.5 10.5 -54.5 q0 -29 -10.5 -53.5 q-10.5 -24.5 -29 -42.5 q-18.5 -18 -43.5 -28.5 q-25 -10.5 -54 -10.5 ZM609 1092 q-29 0 -53.5 10.5 q-24.5 10.5 -43.5 28.5 q-19 18 -29.5 42.5 q-10.5 24.5 -10.5 53.5 q0 29 10.5 54.5 q10.5 25.5 29.5 44 q19 18.5 43.5 29.5 q24.5 11 53.5 11 q30 0 55 -11 q25 -11 43 -29.5 q18 -18.5 28.5 -44 q10.5 -25.5 10.5 -54.5 q0 -29 -10.5 -53.5 q-10.5 -24.5 -28.5 -42.5 q-18 -18 -43 -28.5 q-25 -10.5 -55 -10.5 Z" /><glyph glyph-name="copyright" unicode="" d="M90 723 q0 105 27 202 q27 97 77 182 q50 85 119 154 q69 69 154 119 q85 50 182 77 q97 27 202 27 q105 0 202 -27 q97 -27 182 -77 q85 -50 154 -119 q69 -69 119 -154 q50 -85 77 -182 q27 -97 27 -202 q0 -105 -27 -202 q-27 -97 -77 -182 q-50 -85 -119 -154 q-69 -69 -154 -119 q-85 -50 -182 -77 q-97 -27 -202 -27 q-105 0 -202 27 q-97 27 -182 77 q-85 50 -154 119 q-69 69 -119 154 q-50 85 -77 182 q-27 97 -27 202 ZM226 723 q0 -86 22.5 -166 q22.5 -80 63 -149.5 q40.5 -69.5 97.5 -126.5 q57 -57 126.5 -97.5 q69.5 -40.5 149.5 -63 q80 -22.5 166 -22.5 q86 0 166 22.5 q80 22.5 149.5 63 q69.5 40.5 126.5 97.5 q57 57 97.5 126.5 q40.5 69.5 63 149.5 q22.5 80 22.5 166 q0 86 -22.5 166 q-22.5 80 -63 149.5 q-40.5 69.5 -97.5 126.5 q-57 57 -126.5 97.5 q-69.5 40.5 -149.5 63 q-80 22.5 -166 22.5 q-86 0 -166 -22.5 q-80 -22.5 -149.5 -63 q-69.5 -40.5 -126.5 -97.5 q-57 -57 -97.5 -126.5 q-40.5 -69.5 -63 -149.5 q-22.5 -80 -22.5 -166 ZM368 711 q0 73 17 137.5 q17 64.5 47.5 119 q30.5 54.5 73.5 98 q43 43.5 95.5 74 q52.5 30.5 112.5 46.5 q60 16 125 16 q56 0 107 -10.5 q51 -10.5 106 -24.5 q9 -3 19 -7 q10 -4 18.5 -7.5 q8.5 -3.5 15.5 -6 q7 -2.5 11 -2.5 q1 0 8 2.5 q7 2.5 10 2.5 l28 0 q7 0 7 -11 l0 -212 q0 -4 -3 -5.5 q-3 -1.5 -12 -1.5 q-1 0 -8.5 0.5 q-7.5 0.5 -9.5 3.5 q-1 2 -4.5 8 q-3.5 6 -7.5 12 q-4 6 -7 11.5 q-3 5.5 -4 7.5 q-23 49 -50 82.5 q-27 33.5 -59.5 54.5 q-32.5 21 -71 30.5 q-38.5 9.5 -83.5 9.5 q-57 0 -101 -14.5 q-44 -14.5 -77 -40.5 q-33 -26 -55.5 -62.5 q-22.5 -36.5 -36.5 -79.5 q-14 -43 -20.5 -92.5 q-6.5 -49.5 -6.5 -101.5 q0 -55 7.5 -109 q7.5 -54 23.5 -103.5 q16 -49.5 41.5 -91.5 q25.5 -42 61.5 -72.5 q36 -30.5 84 -48.5 q48 -18 108 -18 q51 0 95.5 17 q44.5 17 81 45 q36.5 28 65 65 q28.5 37 48.5 77 q1 3 2.5 3.5 q1.5 0.5 4.5 0.5 l31 0 q2 0 4 -1.5 q2 -1.5 2 -6.5 q0 -2 -2.5 -10.5 q-2.5 -8.5 -5.5 -14.5 l-83 -197 q-1 -2 -3.5 -3.5 q-2.5 -1.5 -4.5 -1.5 q-14 0 -20 2.5 q-6 2.5 -12 2.5 q-18 0 -47.5 -6.5 q-29.5 -6.5 -64 -14.5 q-34.5 -8 -69.5 -15 q-35 -7 -63 -7 q-63 0 -122.5 15 q-59.5 15 -111.5 43.5 q-52 28.5 -95 70 q-43 41.5 -74.5 93.5 q-31.5 52 -48.5 114.5 q-17 62.5 -17 134.5 Z" /><glyph glyph-name="ordfeminine" unicode="" d="M326 756 q-23 -17 -53.5 -25.5 q-30.5 -8.5 -61.5 -8.5 q-84 0 -127.5 38 q-43.5 38 -43.5 102 q0 37 17 63.5 q17 26.5 50 47 q33 20.5 81.5 37 q48.5 16.5 111.5 33.5 q35 9 56 19 q21 10 38 20 q11 7 13 11.5 q2 4.5 2 8.5 l0 119 q0 46 -25.5 76.5 q-25.5 30.5 -73.5 30.5 q-40 0 -66.5 -26.5 q-26.5 -26.5 -26.5 -71.5 q0 -4 1 -14 q1 -10 2 -12 q-2 -3 -23.5 -10 q-21.5 -7 -48 -15 q-26.5 -8 -51 -15 q-24.5 -7 -31.5 -8 q-7 0 -9 7.5 q-2 7.5 -2 15.5 q0 40 24 77.5 q24 37.5 64.5 66.5 q40.5 29 92.5 47 q52 18 108 18 q49 0 88 -13 q39 -13 66.5 -35 q27.5 -22 42 -51 q14.5 -29 14.5 -62 l0 -327 q0 -17 13.5 -31.5 q13.5 -14.5 34.5 -14.5 q13 0 23 4.5 q10 4.5 17.5 10.5 q7.5 6 13 10.5 q5.5 4.5 9.5 4.5 q5 0 6 -4.5 q1 -4.5 1 -8.5 q0 -11 -3 -23 q-3 -12 -11 -18 q-33 -25 -59.5 -45 q-26.5 -20 -47.5 -34.5 q-21 -14.5 -38 -22 q-17 -7.5 -32 -7.5 q-21 0 -35 15.5 q-14 15.5 -22 34 q-8 18.5 -12 33.5 q-4 15 -6 14 l-81 -62 ZM200 878 q0 -18 7 -29.5 q7 -11.5 18.5 -18 q11.5 -6.5 26.5 -9 q15 -2.5 31 -2.5 q14 0 35.5 7.5 q21.5 7.5 41.5 19.5 q20 12 34.5 27 q14.5 15 14.5 31 l0 113 q0 9 -3 9 l-164 -76 q-10 -7 -17.5 -13 q-7.5 -6 -13 -13.5 q-5.5 -7.5 -8.5 -18.5 q-3 -11 -3 -27 Z" /><glyph glyph-name="guillemotleft" unicode="" d="M448 927 l-188 -375 l190 -373 l-100 0 l-282 373 l282 375 l98 0 ZM781 927 l-188 -375 l190 -373 l-100 0 l-282 373 l282 375 l98 0 Z" /><glyph glyph-name="logicalnot" unicode="" d="M972 719 l0 -573 l-187 0 l0 386 l-717 0 l0 187 l904 0 Z" /><glyph glyph-name="registered" unicode="" d="M90 723 q0 105 27 202 q27 97 77 182 q50 85 119 154 q69 69 154 119 q85 50 182 77 q97 27 202 27 q105 0 202 -27 q97 -27 182 -77 q85 -50 154 -119 q69 -69 119 -154 q50 -85 77 -182 q27 -97 27 -202 q0 -105 -27 -202 q-27 -97 -77 -182 q-50 -85 -119 -154 q-69 -69 -154 -119 q-85 -50 -182 -77 q-97 -27 -202 -27 q-105 0 -202 27 q-97 27 -182 77 q-85 50 -154 119 q-69 69 -119 154 q-50 85 -77 182 q-27 97 -27 202 ZM226 723 q0 -86 22.5 -166 q22.5 -80 63 -149.5 q40.5 -69.5 97.5 -126.5 q57 -57 126.5 -97.5 q69.5 -40.5 149.5 -63 q80 -22.5 166 -22.5 q86 0 166 22.5 q80 22.5 149.5 63 q69.5 40.5 126.5 97.5 q57 57 97.5 126.5 q40.5 69.5 63 149.5 q22.5 80 22.5 166 q0 86 -22.5 166 q-22.5 80 -63 149.5 q-40.5 69.5 -97.5 126.5 q-57 57 -126.5 97.5 q-69.5 40.5 -149.5 63 q-80 22.5 -166 22.5 q-86 0 -166 -22.5 q-80 -22.5 -149.5 -63 q-69.5 -40.5 -126.5 -97.5 q-57 -57 -97.5 -126.5 q-40.5 -69.5 -63 -149.5 q-22.5 -80 -22.5 -166 ZM415 336 q0 1 1 3 q1 2 4 2 q4 0 11.5 1 q7.5 1 16 2.5 q8.5 1.5 16 3 q7.5 1.5 10.5 1.5 q34 8 47.5 26 q13.5 18 13.5 44 l0 610 q0 30 -12.5 47 q-12.5 17 -29 26 q-16.5 9 -32 11 q-15.5 2 -20.5 2 l-23 0 q-3 0 -4 2 q-1 2 -1 3 l0 26 q0 1 0.5 2.5 q0.5 1.5 4.5 2.5 q0 0 2.5 0 q2.5 0 9 0.5 q6.5 0.5 19 0.5 q12.5 0 35.5 1 q33 0 70.5 1.5 q37.5 1.5 76 2.5 q38.5 1 76 2 q37.5 1 70.5 1 l60 0 q47 0 96.5 -16 q49.5 -16 89.5 -47.5 q40 -31.5 65.5 -78.5 q25.5 -47 25.5 -108 q0 -40 -11 -71 q-11 -31 -30 -54.5 q-19 -23.5 -45 -41.5 q-26 -18 -57 -32 l182 -288 q24 -37 55 -67.5 q31 -30.5 72 -42.5 q5 -1 6 -3 q1 -2 1 -5 q0 -9 -5 -12 q-5 -3 -15 -3 q-25 0 -57 3.5 q-32 3.5 -64.5 11 q-32.5 7.5 -61.5 19.5 q-29 12 -49 30 q-19 16 -39 42 q-20 26 -40 55.5 q-20 29.5 -39.5 62 q-19.5 32.5 -38 63 q-18.5 30.5 -35 57 q-16.5 26.5 -30.5 44.5 l-93 7 q-1 0 -5 0 q-4 0 -6 -1 q-2 -2 -2.5 -3 q-0.5 -1 -0.5 -5 l0 -255 q0 -16 4 -28 q4 -12 14 -21 q10 -9 26 -14.5 q16 -5.5 39 -8.5 q3 0 10 -1.5 q7 -1.5 15 -3 q8 -1.5 16 -2.5 q8 -1 13 -1 q4 0 4.5 -2 q0.5 -2 0.5 -3 l0 -26 q0 -1 -1 -3 q-1 -2 -4 -2 l-423 0 q-3 0 -4 8.5 q-1 8.5 -1 15.5 l0 7 ZM707 745 q1 -5 3 -9 q2 -4 8 -4 q6 -1 16.5 -2.5 q10.5 -1.5 30.5 -1.5 q52 0 86.5 16 q34.5 16 54 43.5 q19.5 27.5 27 63 q7.5 35.5 7.5 73.5 q0 40 -12.5 76 q-12.5 36 -35 62.5 q-22.5 26.5 -54 42 q-31.5 15.5 -69.5 15.5 q-8 0 -13 0 q-5 0 -9.5 -0.5 q-4.5 -0.5 -10 -0.5 q-5.5 0 -15.5 -1 q-4 0 -9.5 -1.5 q-5.5 -1.5 -5.5 -8.5 l0 -345 l1 -18 Z" /><glyph glyph-name="macron" unicode="" d="M26 1342 l687 0 l0 -169 l-687 0 l0 169 Z" /><glyph glyph-name="degree" unicode="" d="M295 1150 q0 53 20 99 q20 46 54.5 80.5 q34.5 34.5 80.5 54.5 q46 20 99 20 q53 0 99 -20 q46 -20 80.5 -54.5 q34.5 -34.5 54.5 -80.5 q20 -46 20 -99 q0 -53 -20 -99.5 q-20 -46.5 -54.5 -81 q-34.5 -34.5 -80.5 -54.5 q-46 -20 -99 -20 q-53 0 -99 20 q-46 20 -80.5 54.5 q-34.5 34.5 -54.5 81 q-20 46.5 -20 99.5 ZM418 1148 q0 -27 10.5 -50.5 q10.5 -23.5 28 -41.5 q17.5 -18 41.5 -28 q24 -10 51 -10 q27 0 51 10 q24 10 41.5 28 q17.5 18 28 41.5 q10.5 23.5 10.5 50.5 q0 27 -10.5 51 q-10.5 24 -28 42.5 q-17.5 18.5 -41.5 29 q-24 10.5 -51 10.5 q-27 0 -51 -10.5 q-24 -10.5 -41.5 -29 q-17.5 -18.5 -28 -42.5 q-10.5 -24 -10.5 -51 Z" /><glyph glyph-name="plusminus" unicode="" d="M68 814 l363 0 l0 363 l187 0 l0 -363 l363 0 l0 -187 l-363 0 l0 -363 l-187 0 l0 363 l-363 0 l0 187 ZM68 162 l913 0 l0 -187 l-913 0 l0 187 Z" /><glyph glyph-name="twosuperior" unicode="" d="M74 551 q-20 0 -23 3.5 q-3 3.5 -3 20.5 q0 10 6.5 20 q6.5 10 16.5 21 q29 34 68 68.5 q39 34.5 73 68.5 q46 45 91 91 q45 46 80.5 92 q35.5 46 57.5 91 q22 45 22 88 q0 33 -13 62.5 q-13 29.5 -34.5 52.5 q-21.5 23 -49 36.5 q-27.5 13.5 -56.5 13.5 q-31 0 -58.5 -10.5 q-27.5 -10.5 -49.5 -28.5 q-22 -18 -37.5 -42.5 q-15.5 -24.5 -22.5 -52.5 q-3 -14 -12.5 -27.5 q-9.5 -13.5 -37.5 -13.5 q-8 0 -12.5 7.5 q-4.5 7.5 -4.5 15.5 q0 54 24.5 99.5 q24.5 45.5 64 79.5 q39.5 34 89.5 53 q50 19 102 19 q58 0 106 -18.5 q48 -18.5 81.5 -51.5 q33.5 -33 52 -77.5 q18.5 -44.5 18.5 -95.5 q0 -75 -54 -149.5 q-54 -74.5 -156 -161.5 q-8 -7 -30.5 -28.5 q-22.5 -21.5 -48.5 -47.5 q-26 -26 -50.5 -51 q-24.5 -25 -35.5 -38 l296 0 q13 0 21.5 4 q8.5 4 14.5 14 q6 10 11.5 26.5 q5.5 16.5 12.5 42.5 l49 0 l-28 -170 q-2 -8 -10 -17 q-8 -9 -30 -9 l-501 0 l0 0 Z" /><glyph glyph-name="threesuperior" unicode="" d="M297 535 q-36 0 -79.5 4.5 q-43.5 4.5 -82 16 q-38.5 11.5 -64.5 32 q-26 20.5 -26 53.5 q0 26 17 45 q17 19 57 19 q25 0 48 -16.5 q23 -16.5 47 -36.5 q24 -20 50.5 -36.5 q26.5 -16.5 59.5 -16.5 q36 0 63 19.5 q27 19.5 45 50.5 q18 31 27 69 q9 38 9 74 q0 44 -10 72.5 q-10 28.5 -25.5 44.5 q-15.5 16 -34 22 q-18.5 6 -35.5 6 q-21 0 -31.5 -2.5 q-10.5 -2.5 -17.5 -6 q-7 -3.5 -14 -6 q-7 -2.5 -22 -2.5 q-5 0 -11.5 3.5 q-6.5 3.5 -12.5 9 q-6 5.5 -10 11 q-4 5.5 -4 8.5 q0 3 7 12 q7 9 14 15 q22 19 47 42.5 q25 23.5 46.5 49 q21.5 25.5 35.5 52.5 q14 27 14 54 q0 20 -9.5 37.5 q-9.5 17.5 -25 30.5 q-15.5 13 -34.5 20.5 q-19 7.5 -37 7.5 q-34 0 -62.5 -12 q-28.5 -12 -51 -29 q-22.5 -17 -38.5 -36.5 q-16 -19.5 -24 -35.5 q-4 -7 -8 -8.5 q-4 -1.5 -12 -1.5 q-6 0 -16 5 q-10 5 -10 14 l6 15 q15 36 36.5 68 q21.5 32 51 56 q29.5 24 67.5 37.5 q38 13.5 86 13.5 q47 0 87.5 -9.5 q40.5 -9.5 70 -28 q29.5 -18.5 46 -45.5 q16.5 -27 16.5 -63 q0 -27 -9.5 -51 q-9.5 -24 -25.5 -45.5 q-16 -21.5 -37 -40.5 q-21 -19 -44 -35 q53 -6 89 -26.5 q36 -20.5 58.5 -51 q22.5 -30.5 32 -68.5 q9.5 -38 9.5 -78 q0 -67 -28 -122.5 q-28 -55.5 -73.5 -95.5 q-45.5 -40 -102.5 -62 q-57 -22 -115 -22 Z" /><glyph glyph-name="acute" unicode="" d="M176 1084 q-3 4 -5.5 8 q-2.5 4 -2.5 10 q0 6 3 10 q3 4 5 8 l213 295 q22 30 45 43.5 q23 13.5 46 13.5 q19 0 36 -7.5 q17 -7.5 29.5 -20.5 q12.5 -13 19.5 -30 q7 -17 7 -36 q0 -37 -20 -64 q-20 -27 -43 -46 l-270 -218 q-6 -5 -8.5 -5.5 q-2.5 -0.5 -9.5 -0.5 q-9 0 -13.5 2.5 q-4.5 2.5 -9.5 8.5 l-22 29 Z" /><glyph glyph-name="mu" unicode="" d="M976 231 q0 -44 22.5 -63 q22.5 -19 67.5 -19 l58 4 q4 0 5 -5.5 q1 -5.5 1 -11.5 q0 -2 -2.5 -5 q-2.5 -3 -12.5 -8 l-341 -144 q-2 -1 -10 -3.5 q-8 -2.5 -9 -2.5 q-7 0 -8.5 8.5 q-1.5 8.5 -1.5 16.5 l0 78 q0 6 -5 6 q-5 0 -11 -3 q-55 -24 -92.5 -41.5 q-37.5 -17.5 -64 -29 q-26.5 -11.5 -44.5 -18.5 q-18 -7 -32.5 -11 q-14.5 -4 -29 -5 q-14.5 -1 -33.5 -1 q-23 0 -42 3 q-19 3 -42 8 l0 -512 q0 -9 -1 -13 q-1 -4 -8 -7 l-173 -72 q-9 0 -10.5 3.5 q-1.5 3.5 -1.5 17.5 l0 1498 q0 14 1.5 17.5 q1.5 3.5 10.5 3.5 l208 0 q9 0 10.5 -3.5 q1.5 -3.5 1.5 -17.5 l0 -642 q0 -34 15.5 -61.5 q15.5 -27.5 40.5 -46.5 q25 -19 57 -29 q32 -10 66 -10 q12 0 36 6 q24 6 51 18 q27 12 52.5 29 q25.5 17 39.5 39 l0 697 q0 14 1.5 17.5 q1.5 3.5 10.5 3.5 l207 0 q9 0 10.5 -3.5 q1.5 -3.5 1.5 -17.5 l0 -668 Z" /><glyph glyph-name="paragraph" unicode="" d="M729 -275 q0 -19 -2.5 -26 q-2.5 -7 -13.5 -7 l-94 0 q-11 0 -13 8.5 q-2 8.5 -2 28.5 l0 1106 q-42 2 -95.5 6 q-53.5 4 -109.5 16 q-56 12 -110 34.5 q-54 22.5 -96 61 q-42 38.5 -67.5 96 q-25.5 57.5 -25.5 140.5 q0 98 28 166 q28 68 79 113 q51 45 123.5 70 q72.5 25 162 37 q89.5 12 193.5 14.5 q104 2.5 219 2.5 l251 0 q25 0 25 -16 l0 -69 q0 -9 -5 -12.5 q-5 -3.5 -22 -3.5 l-133 0 l0 -1781 q0 -9 -3 -13.5 q-3 -4.5 -14 -4.5 l-93 0 q-11 0 -13.5 6.5 q-2.5 6.5 -2.5 28.5 l0 1759 l-166 0 l0 -1761 Z" /><glyph glyph-name="periodcentered" unicode="" d="M130 678 q0 34 13.5 65.5 q13.5 31.5 37 55 q23.5 23.5 55 37.5 q31.5 14 66.5 14 q36 0 67 -14 q31 -14 54.5 -37.5 q23.5 -23.5 37 -55 q13.5 -31.5 13.5 -65.5 q0 -37 -13.5 -68.5 q-13.5 -31.5 -37 -54.5 q-23.5 -23 -54.5 -36 q-31 -13 -67 -13 q-35 0 -66.5 13 q-31.5 13 -55 36 q-23.5 23 -37 54.5 q-13.5 31.5 -13.5 68.5 Z" /><glyph glyph-name="cedilla" unicode="" d="M564 15 l-140 -165 q39 -15 65 -37 q26 -22 41.5 -44 q15.5 -22 22 -42 q6.5 -20 6.5 -32 q0 -62 -33 -106 q-33 -44 -85.5 -72 q-52.5 -28 -117 -41 q-64.5 -13 -128.5 -13 q-40 0 -67.5 8 q-27.5 8 -27.5 40 q0 8 9.5 19.5 q9.5 11.5 29.5 19.5 q8 3 23 5.5 q15 2.5 32 5.5 q24 4 52.5 10 q28.5 6 52.5 18.5 q24 12.5 40.5 33 q16.5 20.5 16.5 53.5 q0 22 -18 39 q-18 17 -43 29.5 q-25 12.5 -52 19.5 q-27 7 -46 9 l196 242 l171 0 Z" /><glyph glyph-name="onesuperior" unicode="" d="M153 552 q-18 0 -23 4.5 q-5 4.5 -5 9.5 l0 33 q0 5 4.5 9 q4.5 4 21.5 4 q12 0 30 0.5 q18 0.5 35.5 1.5 q17.5 1 32 3.5 q14.5 2.5 19.5 7.5 l0 606 q-20 -14 -34.5 -22.5 q-14.5 -8.5 -26.5 -15.5 q-12 -7 -25 -14 q-13 -7 -30 -16 q-3 -2 -10.5 -5 q-7.5 -3 -12.5 -3 q-6 0 -9 6 q-3 6 -12 20 q-1 1 -1 2 l0 1 q0 2 14 12 q18 12 41 31 q23 19 49 43 q26 24 53 52 q27 28 52 57 l86 0 q23 0 28.5 -3.5 q5.5 -3.5 5.5 -15.5 l0 -686 q0 -17 1 -33.5 q1 -16.5 3 -16.5 q15 -9 41 -10.5 q26 -1.5 52 -1.5 q19 0 24 -4.5 q5 -4.5 5 -8.5 l0 -33 q0 -5 -5 -9.5 q-5 -4.5 -24 -4.5 l-380 0 l0 0 Z" /><glyph glyph-name="ordmasculine" unicode="" d="M29 1061 q0 64 28.5 123 q28.5 59 76.5 104 q48 45 111.5 72 q63.5 27 134.5 27 q74 0 141 -25.5 q67 -25.5 117.5 -69.5 q50.5 -44 80 -104 q29.5 -60 29.5 -130 q0 -71 -27 -132.5 q-27 -61.5 -75 -106.5 q-48 -45 -114.5 -70.5 q-66.5 -25.5 -145.5 -25.5 q-78 0 -143.5 26 q-65.5 26 -113 72 q-47.5 46 -74 107.5 q-26.5 61.5 -26.5 132.5 ZM204 1104 q0 -56 12.5 -115.5 q12.5 -59.5 38 -108 q25.5 -48.5 65 -80 q39.5 -31.5 94.5 -31.5 q40 0 69.5 21 q29.5 21 48 54.5 q18.5 33.5 27.5 75 q9 41.5 9 83.5 q0 50 -14 108 q-14 58 -41 107.5 q-27 49.5 -66.5 82 q-39.5 32.5 -91.5 32.5 q-38 0 -66.5 -21 q-28.5 -21 -47.5 -54 q-19 -33 -28 -73.5 q-9 -40.5 -9 -80.5 Z" /><glyph glyph-name="guillemotright" unicode="" d="M543 927 l282 -375 l-282 -373 l-100 0 l190 373 q-46 92 -94.5 187.5 q-48.5 95.5 -93.5 187.5 l98 0 ZM210 927 l282 -375 l-282 -373 l-100 0 l190 373 q-46 92 -94.5 187.5 q-48.5 95.5 -93.5 187.5 l98 0 Z" /><glyph glyph-name="AE" unicode="" d="M5 22 q0 10 8.5 18.5 q8.5 8.5 20.5 14.5 q12 6 26 10 q14 4 25 7 q21 5 38.5 19 q17.5 14 32.5 32.5 q15 18.5 28.5 39.5 q13.5 21 27.5 41 l641 1063 q12 16 12 30 q0 13 -8 22.5 q-8 9.5 -20 16 q-12 6.5 -25.5 10 q-13.5 3.5 -23.5 3.5 q-16 0 -37 0.5 q-21 0.5 -65 0.5 q-18 0 -25.5 11 q-7.5 11 -7.5 17 q0 7 3 19.5 q3 12.5 15 12.5 l1091 0 q18 0 26 -6.5 q8 -6.5 10 -28.5 l18 -320 q0 -5 -8.5 -7.5 q-8.5 -2.5 -15.5 -2.5 q-8 0 -16 2 q-8 2 -11 6 q-7 10 -10 29.5 q-3 19.5 -6.5 43.5 q-3.5 24 -10 50 q-6.5 26 -19.5 48 q-13 22 -35.5 38.5 q-22.5 16.5 -57.5 22.5 l-357 0 q-13 0 -13 -13 l0 -477 q0 -10 10 -10 l286 0 q25 0 49.5 6.5 q24.5 6.5 43 23.5 q18.5 17 30 47.5 q11.5 30.5 11.5 78.5 q0 8 8 8 l39 0 q8 0 8 -8 l0 -458 q0 -5 -3 -6.5 q-3 -1.5 -5 -1.5 l-39 0 q-5 0 -6.5 3 q-1.5 3 -1.5 5 q0 56 -11.5 90.5 q-11.5 34.5 -30.5 54 q-19 19.5 -43.5 26 q-24.5 6.5 -51.5 6.5 l-283 0 q-10 0 -10 -10 l0 -437 q0 -29 9 -46.5 q9 -17.5 24.5 -26.5 q15.5 -9 35.5 -12 q20 -3 42 -3 l273 0 q58 0 97 26.5 q39 26.5 63 64.5 q24 38 35.5 79 q11.5 41 14.5 70 q2 13 13 20.5 q11 7.5 25 7.5 q5 0 12 -4 q7 -4 7 -9 l-33 -366 q-2 -5 -5.5 -9.5 q-3.5 -4.5 -8.5 -4.5 l-1160 0 q-7 0 -7 6 l0 45 q0 1 1 4.5 q1 3.5 7 3.5 l22 0 q42 3 86 3.5 q44 0.5 80 11 q36 10.5 59 37 q23 26.5 23 82.5 l0 362 l-331 0 q-16 0 -28.5 -6 q-12.5 -6 -21.5 -13.5 q-9 -7.5 -14 -14 q-5 -6.5 -6 -7.5 l-211 -361 q-2 -4 -2.5 -8.5 q-0.5 -4.5 -0.5 -9.5 q0 -27 21.5 -41.5 q21.5 -14.5 52 -21.5 q30.5 -7 63 -9 q32.5 -2 54.5 -4 q10 -1 17 -12.5 q7 -11.5 7 -18.5 q0 -9 -3.5 -18.5 q-3.5 -9.5 -14.5 -9.5 l-532 0 q-12 0 -14 7 q-2 7 -2 15 ZM971 666 l0 433 q0 11 -5.5 15 q-5.5 4 -11.5 4 q-14 0 -22 -8.5 q-8 -8.5 -15 -19.5 l-244 -406 q-1 -2 -1 -5 q0 -13 33 -13 l266 0 Z" /><glyph glyph-name="Ccedilla" unicode="" d="M105 696 q0 112 28 211.5 q28 99.5 79 183.5 q51 84 123 151 q72 67 159.5 113.5 q87.5 46.5 187.5 71.5 q100 25 209 25 q92 0 177.5 -16.5 q85.5 -16.5 176.5 -38.5 q15 -4 31.5 -10 q16.5 -6 31 -11.5 q14.5 -5.5 26.5 -9.5 q12 -4 18 -4 q2 0 13.5 4 q11.5 4 16.5 4 l46 0 q12 0 12 -17 l0 -326 q0 -6 -4.5 -8 q-4.5 -2 -19.5 -2 q-3 0 -15.5 0.5 q-12.5 0.5 -15.5 5.5 q-2 3 -7.5 12 q-5.5 9 -12 18.5 q-6.5 9.5 -12 18 q-5.5 8.5 -6.5 11.5 q-38 75 -83 126.5 q-45 51.5 -99.5 83.5 q-54.5 32 -118.5 46.5 q-64 14.5 -139 14.5 q-95 0 -168.5 -22 q-73.5 -22 -128.5 -62 q-55 -40 -92.5 -96 q-37.5 -56 -61 -122.5 q-23.5 -66.5 -34 -142 q-10.5 -75.5 -10.5 -155.5 q0 -85 12 -168.5 q12 -83.5 39 -159 q27 -75.5 69.5 -140 q42.5 -64.5 102.5 -112 q60 -47.5 140 -74.5 q80 -27 181 -27 q85 0 158.5 25.5 q73.5 25.5 134.5 69 q61 43.5 108.5 100 q47.5 56.5 81.5 118.5 q2 5 4.5 5.5 q2.5 0.5 7.5 0.5 l51 0 q3 0 6.5 -2.5 q3.5 -2.5 3.5 -10.5 q0 -3 -4.5 -15.5 q-4.5 -12.5 -9.5 -21.5 l-138 -304 q-2 -3 -6 -5 q-4 -2 -7 -2 q-24 0 -33.5 4 q-9.5 4 -19.5 4 q-29 0 -76 -9.5 q-47 -9.5 -101.5 -21 q-54.5 -11.5 -111 -22 q-56.5 -10.5 -103.5 -12.5 l-104 -124 q39 -15 65 -37 q26 -22 41.5 -44 q15.5 -22 22 -42 q6.5 -20 6.5 -32 q0 -62 -33 -106 q-33 -44 -85.5 -72 q-52.5 -28 -117 -41 q-64.5 -13 -128.5 -13 q-40 0 -67.5 8 q-27.5 8 -27.5 40 q0 8 9.5 19.5 q9.5 11.5 29.5 19.5 q8 3 23 5.5 q15 2.5 32 5.5 q24 4 52.5 10 q28.5 6 52.5 18.5 q24 12.5 40.5 33 q16.5 20.5 16.5 53.5 q0 22 -18 39 q-18 17 -43 29.5 q-25 12.5 -52 19.5 q-27 7 -46 9 l171 212 q-134 21 -250 80 q-116 59 -202 150.5 q-86 91.5 -135.5 213 q-49.5 121.5 -49.5 267.5 Z" /><glyph glyph-name="Eth" unicode="&#x110;&#x189;" d="M60 644 q-21 0 -21 25 l0 76 q0 25 21 25 l197 0 l0 471 q0 31 -13.5 52.5 q-13.5 21.5 -34 35 q-20.5 13.5 -45.5 19.5 q-25 6 -47 6 l-64 0 q-6 0 -7 3.5 q-1 3.5 -1 4.5 l0 43 q0 1 1 4.5 q1 3.5 7 3.5 l22 0 l411 7 q58 1 125.5 1.5 q67.5 0.5 125.5 0.5 q63 0 113 -1.5 q50 -1.5 96 -6 q46 -4.5 93 -11.5 q47 -7 105 -19 q111 -23 206.5 -85 q95.5 -62 165 -150 q69.5 -88 109 -195 q39.5 -107 39.5 -219 q0 -108 -30 -204.5 q-30 -96.5 -83.5 -178 q-53.5 -81.5 -127 -147 q-73.5 -65.5 -161.5 -111 q-88 -45.5 -187 -70 q-99 -24.5 -203 -24.5 l-819 0 q-6 0 -7 3.5 q-1 3.5 -1 4.5 l0 43 q0 1 1 4.5 q1 3.5 7 3.5 l22 0 q21 0 52 2.5 q31 2.5 60 14 q29 11.5 49.5 35 q20.5 23.5 20.5 64.5 l0 469 l-197 0 ZM542 155 q0 -29 18.5 -45 q18.5 -16 49 -23.5 q30.5 -7.5 71.5 -8.5 q41 -1 86 -1 q297 0 445.5 164 q148.5 164 148.5 478 q0 138 -33.5 253 q-33.5 115 -102 198 q-68.5 83 -172 129 q-103.5 46 -244.5 46 l-242 0 q-15 0 -20 -6.5 q-5 -6.5 -5 -20.5 l0 -548 l328 0 q10 0 15.5 -7.5 q5.5 -7.5 5.5 -17.5 l0 -76 q0 -11 -6 -18 q-6 -7 -15 -7 l-328 0 l0 -489 Z" /><glyph glyph-name="multiply" unicode="" d="M238 1045 l287 -286 l286 287 l132 -132 l-287 -286 l285 -287 l-131 -133 l-286 287 l-287 -287 l-132 133 l286 286 l-286 286 l133 132 Z" /><glyph glyph-name="Oslash" unicode="" d="M333 186 q-48 42 -88.5 95 q-40.5 53 -70.5 118 q-30 65 -47 143.5 q-17 78.5 -17 171.5 q0 104 28.5 199 q28.5 95 81.5 177 q53 82 128.5 149 q75.5 67 168.5 114 q93 47 202 73 q109 26 229 26 q127 0 242 -37 q115 -37 212 -104 l195 206 l88 -83 l-189 -199 q102 -97 161 -225.5 q59 -128.5 59 -276.5 q0 -94 -27 -186.5 q-27 -92.5 -78 -177 q-51 -84.5 -123.5 -156.5 q-72.5 -72 -162.5 -125.5 q-90 -53.5 -197 -83.5 q-107 -30 -226 -30 q-36 0 -89 6.5 q-53 6.5 -116 22 q-63 15.5 -131.5 42.5 q-68.5 27 -134.5 68 l-226 -238 l-88 83 l216 228 ZM404 751 q0 -100 25 -199.5 q25 -99.5 73 -187.5 l763 803 q-70 86 -167 137 q-97 51 -220 51 q-77 0 -142 -24 q-65 -24 -117.5 -65.5 q-52.5 -41.5 -92.5 -99 q-40 -57.5 -67 -124.5 q-27 -67 -41 -141.5 q-14 -74.5 -14 -149.5 ZM1421 687 q0 101 -22.5 196.5 q-22.5 95.5 -66.5 178.5 l-760 -801 q69 -84 163.5 -135 q94.5 -51 212.5 -51 q121 0 210 51.5 q89 51.5 147.5 136.5 q58.5 85 87 195.5 q28.5 110.5 28.5 228.5 Z" /><glyph glyph-name="Thorn" unicode="" d="M40 52 q0 2 1.5 5 q1.5 3 6.5 3 q78 0 120.5 36.5 q42.5 36.5 42.5 93.5 l0 1017 q0 77 -34 110 q-34 33 -111 33 l-18 0 q-5 0 -6.5 3.5 q-1.5 3.5 -1.5 5.5 l0 43 q0 2 1.5 5 q1.5 3 6.5 3 l609 0 q5 0 6.5 -3 q1.5 -3 1.5 -5 l0 -43 q0 -2 -1.5 -5.5 q-1.5 -3.5 -6.5 -3.5 l-18 0 q-30 0 -56 -2.5 q-26 -2.5 -45.5 -12 q-19.5 -9.5 -30.5 -28.5 q-11 -19 -11 -52 l0 -80 q29 1 43.5 1.5 q14.5 0.5 26 1.5 q11.5 1 25.5 1.5 q14 0.5 43 0.5 l81 0 q80 0 162.5 -28.5 q82.5 -28.5 149 -86 q66.5 -57.5 108.5 -144 q42 -86.5 42 -203.5 q0 -58 -20.5 -110.5 q-20.5 -52.5 -54.5 -98.5 q-34 -46 -78 -83.5 q-44 -37.5 -91 -64 q-47 -26.5 -94.5 -41 q-47.5 -14.5 -87.5 -14.5 l-6 0 l-226 7 q-1 0 -8 0 q-7 0 -11 -2 q-4 -3 -4 -8 l0 -126 q0 -39 23 -62 q23 -23 58 -35 q35 -12 77.5 -16 q42.5 -4 81.5 -4 q8 0 8 -7 l0 -45 q0 -8 -8 -8 l-688 0 q-5 0 -6.5 3 q-1.5 3 -1.5 5 l0 44 ZM496 436 q1 -8 5.5 -14.5 q4.5 -6.5 15.5 -7.5 q9 -1 27 -3.5 q18 -2.5 50 -2.5 q67 0 121 27 q54 27 92.5 75.5 q38.5 48.5 59 115 q20.5 66.5 20.5 146.5 q0 82 -20.5 144 q-20.5 62 -58 103 q-37.5 41 -90 61.5 q-52.5 20.5 -116.5 20.5 q-14 0 -22 -0.5 q-8 -0.5 -15.5 -1 q-7.5 -0.5 -17 -1 q-9.5 -0.5 -26.5 -1.5 q-6 0 -14.5 -2.5 q-8.5 -2.5 -10.5 -10.5 l0 -618 l0 -30 Z" /><glyph glyph-name="germandbls" unicode="" d="M559 911 q159 16 247 104 q88 88 88 234 q0 67 -16 123 q-16 56 -45.5 96 q-29.5 40 -72 62.5 q-42.5 22.5 -94.5 22.5 q-55 0 -102.5 -26.5 q-47.5 -26.5 -82 -73.5 q-34.5 -47 -54.5 -111 q-20 -64 -20 -139 l0 -1020 q0 -39 5.5 -63 q5.5 -24 19 -38 q13.5 -14 36 -19 q22.5 -5 55.5 -5 q52 -5 52 -28 q0 -4 -1.5 -9.5 q-1.5 -5.5 -6.5 -10 q-5 -4.5 -16.5 -7.5 q-11.5 -3 -30.5 -3 l-458 0 q-24 6 -31.5 12.5 q-7.5 6.5 -7.5 17.5 q0 11 15.5 17.5 q15.5 6.5 54.5 17.5 q12 3 26.5 7 q14.5 4 27 14.5 q12.5 10.5 20.5 28.5 q8 18 8 49 l0 895 q0 105 21 188.5 q21 83.5 58 148.5 q37 65 87 111 q50 46 108 76 q58 30 120.5 44 q62.5 14 125.5 14 q92 0 171 -29 q79 -29 137.5 -79 q58.5 -50 92 -117.5 q33.5 -67.5 33.5 -145.5 q0 -121 -84.5 -218.5 q-84.5 -97.5 -239.5 -159.5 q75 -20 147.5 -56.5 q72.5 -36.5 129.5 -92 q57 -55.5 92 -130 q35 -74.5 35 -169.5 q0 -83 -19 -150.5 q-19 -67.5 -51 -119.5 q-32 -52 -74 -90 q-42 -38 -87.5 -62.5 q-45.5 -24.5 -91.5 -36 q-46 -11.5 -87 -11.5 q-66 0 -107 16 q-41 16 -41 57 q0 32 18.5 52.5 q18.5 20.5 55.5 20.5 q19 0 38 -8 q19 -8 37 -18 q18 -10 36.5 -18 q18.5 -8 36.5 -8 q21 0 37.5 27 q16.5 27 28.5 73.5 q12 46.5 18.5 107.5 q6.5 61 6.5 130 q0 124 -29.5 215.5 q-29.5 91.5 -81.5 143.5 q-26 25 -55.5 41 q-29.5 16 -65.5 25.5 q-36 9.5 -79 13 q-43 3.5 -94 3.5 l0 63 Z" /><glyph glyph-name="ae" unicode="" d="M319 -29 q-122 0 -185.5 55 q-63.5 55 -63.5 149 q0 54 24.5 93 q24.5 39 72.5 69 q48 30 118.5 54.5 q70.5 24.5 163.5 48.5 q50 13 80.5 28 q30.5 15 56.5 29 q17 9 19.5 16 q2.5 7 2.5 13 l0 174 q0 33 -9.5 61.5 q-9.5 28.5 -28.5 49.5 q-19 21 -46 33 q-27 12 -61 12 q-29 0 -54 -10 q-25 -10 -43 -29 q-18 -19 -28.5 -45 q-10.5 -26 -10.5 -59 q0 -3 0.5 -9 q0.5 -6 1.5 -12.5 q1 -6.5 2 -11.5 q1 -5 1 -6 q-1 -2 -16.5 -8 q-15.5 -6 -38 -13.5 q-22.5 -7.5 -49.5 -15 q-27 -7.5 -51.5 -14.5 q-24.5 -7 -43 -12.5 q-18.5 -5.5 -25.5 -6.5 q-11 0 -13.5 11.5 q-2.5 11.5 -2.5 22.5 q0 58 35 113 q35 55 93.5 97.5 q58.5 42.5 134.5 68.5 q76 26 157 26 q93 0 160 -30 q67 -30 105 -80 q60 53 138 81.5 q78 28.5 175 28.5 q34 0 61 -4.5 q27 -4.5 49.5 -12 q22.5 -7.5 42 -18 q19.5 -10.5 39.5 -22.5 q23 -12 52.5 -43 q29.5 -31 55.5 -72 q26 -41 44 -87.5 q18 -46.5 18 -89.5 q0 -14 -5.5 -30.5 q-5.5 -16.5 -18.5 -16.5 l-590 0 q-10 0 -13.5 -18 q-3.5 -18 -3.5 -44 q0 -88 25.5 -156.5 q25.5 -68.5 68.5 -116 q43 -47.5 99 -72 q56 -24.5 118 -24.5 q39 0 75 10.5 q36 10.5 69 27.5 q33 17 62 38 q29 21 55 42 q6 2 8 2 q3 0 8 -5 q9 -8 18 -18.5 q9 -10.5 14 -17.5 q3 -3 3 -6 q0 -3 -4 -7 q-33 -39 -81 -76.5 q-48 -37.5 -102.5 -67 q-54.5 -29.5 -111.5 -47.5 q-57 -18 -108 -18 q-63 0 -117 14.5 q-54 14.5 -99.5 40 q-45.5 25.5 -81.5 60.5 q-36 35 -63 77 q-39 -36 -83.5 -71 q-44.5 -35 -91 -62 q-46.5 -27 -93 -44 q-46.5 -17 -89.5 -17 ZM1194 624 q26 0 26 23 q0 39 -12.5 73.5 q-12.5 34.5 -35.5 61 q-23 26.5 -55.5 41.5 q-32.5 15 -72.5 15 q-48 0 -84 -20.5 q-36 -20.5 -61 -49.5 q-25 -29 -37.5 -60 q-12.5 -31 -12.5 -53 q0 -17 5 -24 q5 -7 13 -7 l327 0 ZM607 410 q-2 3 -7 3 q-2 0 -4 -1 l-232 -108 q-14 -10 -25.5 -18.5 q-11.5 -8.5 -19.5 -20 q-8 -11.5 -12 -27 q-4 -15.5 -4 -39.5 q0 -27 10.5 -44 q10.5 -17 27.5 -26 q17 -9 38.5 -12.5 q21.5 -3.5 44.5 -3.5 q21 0 52 10.5 q31 10.5 60.5 28 q29.5 17.5 50.5 40 q21 22.5 21 45.5 l0 136 q-1 8 -1 16 q0 8 0 16 l0 5 Z" /><glyph glyph-name="ccedilla" unicode="" d="M90 403 q1 153 41 256 q40 103 110.5 166 q70.5 63 166.5 90 q96 27 209 27 q22 0 52.5 -1.5 q30.5 -1.5 63 -6 q32.5 -4.5 64 -13 q31.5 -8.5 57 -24 q25.5 -15.5 41 -38 q15.5 -22.5 15.5 -54.5 q0 -47 -34 -66.5 q-34 -19.5 -82 -19.5 q-42 0 -71 19.5 q-29 19.5 -53.5 43 q-24.5 23.5 -49 43 q-24.5 19.5 -58.5 19.5 q-39 0 -71.5 -17 q-32.5 -17 -58 -45.5 q-25.5 -28.5 -44.5 -65.5 q-19 -37 -31.5 -77 q-12.5 -40 -18.5 -80 q-6 -40 -6 -74 q0 -73 15 -139.5 q15 -66.5 48.5 -117.5 q33.5 -51 87 -81 q53.5 -30 129.5 -30 q28 0 55.5 9 q27.5 9 53 24.5 q25.5 15.5 48 35.5 q22.5 20 41.5 43 q10 12 19.5 20 q9.5 8 29.5 8 q24 0 41.5 -12.5 q17.5 -12.5 17.5 -26.5 q0 -4 -1.5 -10.5 q-1.5 -6.5 -10.5 -18.5 q-52 -66 -113.5 -114.5 q-61.5 -48.5 -136.5 -74.5 l-127 -150 q39 -15 65 -37 q26 -22 41.5 -44 q15.5 -22 22 -42 q6.5 -20 6.5 -32 q0 -62 -33 -106 q-33 -44 -85.5 -72 q-52.5 -28 -117 -41 q-64.5 -13 -128.5 -13 q-40 0 -67.5 8 q-27.5 8 -27.5 40 q0 8 9.5 19.5 q9.5 11.5 29.5 19.5 q8 3 23 5.5 q15 2.5 32 5.5 q24 4 52.5 10 q28.5 6 52.5 18.5 q24 12.5 40.5 33 q16.5 20.5 16.5 53.5 q0 22 -18 39 q-18 17 -43 29.5 q-25 12.5 -52 19.5 q-27 7 -46 9 l164 203 q-86 7 -155.5 44.5 q-69.5 37.5 -118.5 95.5 q-49 58 -75.5 132.5 q-26.5 74.5 -26.5 154.5 Z" /><glyph glyph-name="eth" unicode="" d="M530 1348 q-36 44 -78.5 91.5 q-42.5 47.5 -83 86.5 q-40.5 39 -74.5 64.5 q-34 25.5 -52 25.5 l0 29 l190 0 q51 -34 108.5 -84.5 q57.5 -50.5 115.5 -114.5 l236 186 l90 -120 l-230 -179 q67 -87 129 -188 q62 -101 109.5 -211 q47.5 -110 75.5 -229 q28 -119 28 -242 q0 -103 -38 -192.5 q-38 -89.5 -106.5 -155.5 q-68.5 -66 -162.5 -104 q-94 -38 -205 -38 q-110 0 -203 39 q-93 39 -160.5 106 q-67.5 67 -105.5 157 q-38 90 -38 192 q0 62 18.5 121 q18.5 59 51.5 112 q33 53 79 97.5 q46 44.5 102 77 q56 32.5 119 50.5 q63 18 131 18 q40 0 97.5 -11 q57.5 -11 117.5 -37 q-2 31 -15.5 69.5 q-13.5 38.5 -36 81.5 q-22.5 43 -53 89.5 q-30.5 46.5 -64.5 94.5 q-26 -21 -55.5 -43.5 q-29.5 -22.5 -58.5 -45.5 q-29 -23 -56.5 -44 q-27.5 -21 -50.5 -39 l-90 118 l219 172 ZM326 528 q0 -78 17 -161.5 q17 -83.5 53 -153 q36 -69.5 91.5 -114.5 q55.5 -45 133.5 -45 q57 0 98.5 31 q41.5 31 67.5 82 q26 51 38.5 117.5 q12.5 66.5 12.5 138.5 q0 37 -8.5 83.5 q-8.5 46.5 -26 94.5 q-17.5 48 -42.5 93.5 q-25 45.5 -58.5 80.5 q-33.5 35 -74.5 56.5 q-41 21.5 -89 21.5 q-54 0 -94 -30 q-40 -30 -66.5 -77 q-26.5 -47 -39.5 -105 q-13 -58 -13 -113 Z" /><glyph glyph-name="divide" unicode="" d="M68 720 l912 0 l0 -187 l-912 0 l0 187 ZM373 1015 q0 32 12 60.5 q12 28.5 32.5 49.5 q20.5 21 48.5 33 q28 12 60 12 q33 0 61 -12 q28 -12 48.5 -33 q20.5 -21 32.5 -49.5 q12 -28.5 12 -60.5 q0 -33 -12 -61.5 q-12 -28.5 -32.5 -49.5 q-20.5 -21 -48.5 -33.5 q-28 -12.5 -61 -12.5 q-32 0 -60 12.5 q-28 12.5 -48.5 33.5 q-20.5 21 -32.5 49.5 q-12 28.5 -12 61.5 ZM373 230 q0 32 12 60.5 q12 28.5 32.5 49.5 q20.5 21 48.5 33 q28 12 60 12 q33 0 61 -12 q28 -12 48.5 -33 q20.5 -21 32.5 -49.5 q12 -28.5 12 -60.5 q0 -33 -12 -61.5 q-12 -28.5 -32.5 -49.5 q-20.5 -21 -48.5 -33.5 q-28 -12.5 -61 -12.5 q-32 0 -60 12.5 q-28 12.5 -48.5 33.5 q-20.5 21 -32.5 49.5 q-12 28.5 -12 61.5 Z" /><glyph glyph-name="oslash" unicode="" d="M60 -43 l170 171 q-64 71 -99.5 158 q-35.5 87 -35.5 181 q0 94 41.5 180 q41.5 86 111.5 152 q70 66 163 105 q93 39 196 39 q90 0 164.5 -20.5 q74.5 -20.5 137.5 -62.5 l144 144 l105 -98 l-138 -138 q57 -67 89.5 -144.5 q32.5 -77.5 32.5 -160.5 q0 -104 -39.5 -193.5 q-39.5 -89.5 -109.5 -155.5 q-70 -66 -166.5 -103.5 q-96.5 -37.5 -210.5 -37.5 q-81 0 -149.5 17 q-68.5 17 -123.5 49 l-184 -185 l-99 103 ZM351 530 q0 -58 8.5 -117 q8.5 -59 26.5 -113 q100 107 197 211 q97 104 197 213 q-45 62 -97 101.5 q-52 39.5 -112 39.5 q-56 0 -97.5 -30.5 q-41.5 -30.5 -68.5 -79 q-27 -48.5 -40.5 -108 q-13.5 -59.5 -13.5 -117.5 ZM881 383 q0 48 -8 99 q-8 51 -25 99 q-100 -108 -196.5 -211.5 q-96.5 -103.5 -196.5 -211.5 q41 -53 91 -85 q50 -32 110 -32 q59 0 101.5 30.5 q42.5 30.5 70 79.5 q27.5 49 40.5 110 q13 61 13 122 Z" /><glyph glyph-name="thorn" unicode="" d="M367 1639 q4 2 8.5 4 q4.5 2 6.5 2 q17 0 17 -24 l0 -773 q0 -5 4.5 -8 q4.5 -3 7.5 -3 q11 0 18 7 q40 25 75 41 q35 16 68 25 q33 9 67 12.5 q34 3.5 73 3.5 q78 0 141.5 -40.5 q63.5 -40.5 108.5 -106 q45 -65.5 69.5 -147.5 q24.5 -82 24.5 -165 q0 -87 -22 -154 q-22 -67 -60 -119.5 q-38 -52.5 -90 -94 q-52 -41.5 -113 -75.5 q-42 -23 -90 -37 q-48 -14 -98 -14 q-22 0 -41 1.5 q-19 1.5 -37.5 4.5 q-18.5 3 -39 7 q-20.5 4 -45.5 10 q-17 0 -18.5 -12 q-1.5 -12 -2.5 -25 l0 -407 q0 -29 12.5 -48.5 q12.5 -19.5 32 -32 q19.5 -12.5 43 -19 q23.5 -6.5 45.5 -10.5 q22 -4 40 -6.5 q18 -2.5 27 -6.5 q10 -4 10 -13 q0 -14 -10 -16 l-577 0 q-10 2 -10 16 q0 9 10 13 q13 6 37 9.5 q24 3.5 48 14 q24 10.5 42 33 q18 22.5 18 66.5 l0 1811 q0 24 -13 37.5 q-13 13.5 -33 20.5 q-20 7 -43 11.5 q-23 4.5 -44 10.5 q-6 2 -9.5 5.5 q-3.5 3.5 -3.5 14.5 q0 5 3 10 q3 5 12 10 l331 156 ZM575 822 q-27 0 -46.5 -3.5 q-19.5 -3.5 -37.5 -11.5 q-18 -8 -36 -20 q-18 -12 -41 -29 q-2 -1 -4.5 -3.5 q-2.5 -2.5 -4.5 -4.5 l-6 -6 l0 -543 q0 -3 1 -16.5 q1 -13.5 3 -24.5 q3 -21 26 -38.5 q23 -17.5 53 -30 q30 -12.5 60 -19 q30 -6.5 48 -6.5 q66 0 111 24 q45 24 73 64.5 q28 40.5 40 94.5 q12 54 12 115 q0 47 -5 99 q-5 52 -16 103 q-11 51 -30 97.5 q-19 46.5 -47 81.5 q-28 35 -66 56 q-38 21 -87 21 Z" /><glyph glyph-name="dcroat" unicode="&#x111;" d="M960 1639 q4 2 8.5 4 q4.5 2 6.5 2 q17 0 17 -24 l0 -371 l121 0 q25 0 25 -25 l0 -76 q0 -25 -25 -25 l-121 0 l0 -895 q0 -44 22.5 -63 q22.5 -19 67.5 -19 l58 4 q4 0 5 -5.5 q1 -5.5 1 -11.5 q0 -2 -2.5 -5.5 q-2.5 -3.5 -12.5 -7.5 l-342 -142 q-2 -1 -10 -3.5 q-8 -2.5 -9 -2.5 q-7 0 -8.5 8.5 q-1.5 8.5 -1.5 16.5 l0 69 q0 10 -7 10 q-3 0 -9 -3 q-35 -20 -66 -38.5 q-31 -18.5 -62.5 -32.5 q-31.5 -14 -66 -22 q-34.5 -8 -76.5 -8 q-90 0 -162 37 q-72 37 -122 99 q-50 62 -77 142 q-27 80 -27 167 q0 105 41.5 195 q41.5 90 111 156 q69.5 66 161.5 103.5 q92 37.5 193 37.5 q27 0 47 -5 q20 -5 37 -10.5 q17 -5.5 34 -10.5 q17 -5 38 -5 q3 0 7.5 2 q4.5 2 4.5 11 l0 232 l-298 0 q-25 0 -25 25 l0 76 q0 25 25 25 l298 0 l0 113 q0 24 -13 37.5 q-13 13.5 -33 20.5 q-20 7 -43 11.5 q-23 4.5 -44 10.5 q-6 2 -9.5 5.5 q-3.5 3.5 -3.5 14.5 q0 5 3 10 q3 5 12 10 l331 156 ZM312 463 q0 -72 16.5 -138.5 q16.5 -66.5 51 -117 q34.5 -50.5 87.5 -80.5 q53 -30 125 -30 q11 0 39 6 q28 6 56.5 15.5 q28.5 9.5 50.5 22.5 q22 13 22 28 l0 497 q0 69 -49.5 112 q-49.5 43 -141.5 43 q-67 0 -115.5 -31.5 q-48.5 -31.5 -80 -82.5 q-31.5 -51 -46.5 -115 q-15 -64 -15 -129 Z" /><glyph glyph-name="Hbar" unicode="&#x126;" d="M98 1012 q-21 0 -21 25 l0 76 q0 25 21 25 l149 0 l0 77 q0 34 -11 57 q-11 23 -31 37.5 q-20 14.5 -48 21.5 q-28 7 -62 9 q-8 0 -8 8 l0 54 q0 8 7 8 l592 0 q5 0 6.5 -3 q1.5 -3 1.5 -5 l0 -54 q0 -6 -8 -6 q-30 0 -58 -5.5 q-28 -5.5 -49 -20.5 q-21 -15 -34 -42.5 q-13 -27.5 -13 -72.5 l0 -63 l730 0 l0 79 q0 35 -22 58 q-22 23 -55.5 36.5 q-33.5 13.5 -72.5 20 q-39 6.5 -72 8.5 q-8 0 -8 8 l0 54 q0 8 7 8 l667 0 q5 0 6.5 -3 q1.5 -3 1.5 -5 l0 -54 q0 -6 -8 -6 q-30 0 -58.5 -5.5 q-28.5 -5.5 -51 -20.5 q-22.5 -15 -36 -42.5 q-13.5 -27.5 -13.5 -72.5 l0 -63 l156 0 q10 0 15.5 -7.5 q5.5 -7.5 5.5 -17.5 l0 -76 q0 -11 -6 -18 q-6 -7 -15 -7 l-156 0 l0 -801 q0 -26 7.5 -46.5 q7.5 -20.5 23.5 -40.5 q16 -22 52.5 -37 q36.5 -15 103.5 -17 q8 0 8 -8 l0 -54 q0 -8 -8 -8 l-726 0 q-5 0 -6.5 3 q-1.5 3 -1.5 5 l0 54 q0 2 1.5 5 q1.5 3 6.5 3 q30 0 73 4 q43 4 83.5 17.5 q40.5 13.5 69 39 q28.5 25.5 28.5 69.5 l0 432 q0 10 -3 13 q-3 3 -13 3 l-698 0 q-10 0 -13 -3 q-3 -3 -3 -13 l0 -442 q0 -34 15 -57 q15 -23 39.5 -37 q24.5 -14 56.5 -20 q32 -6 66 -6 q6 0 7 -3 q1 -3 1 -5 l0 -54 q0 -2 -1 -5 q-1 -3 -6 -3 l-642 0 q-5 0 -6.5 3 q-1.5 3 -1.5 5 l0 54 q0 2 1.5 5 q1.5 3 6.5 3 q31 0 62.5 4.5 q31.5 4.5 57.5 19.5 q26 15 42.5 43 q16.5 28 16.5 76 l0 799 l-149 0 ZM1246 773 q10 0 13 3 q3 3 3 13 l0 223 l-730 0 l0 -223 q0 -10 3 -13 q3 -3 13 -3 l698 0 Z" /><glyph glyph-name="hbar" unicode="&#x127;" d="M73 1124 q-25 0 -25 25 l0 76 q0 25 25 25 l112 0 l0 114 q0 24 -13 37.5 q-13 13.5 -33 20.5 q-20 7 -43 11.5 q-23 4.5 -44 10.5 q-6 2 -9.5 5.5 q-3.5 3.5 -3.5 14.5 q0 5 3 10 q3 5 12 10 l331 155 q4 2 8.5 4 q4.5 2 6.5 2 q17 0 17 -24 l0 -371 l307 0 q25 0 25 -25 l0 -76 q0 -25 -25 -25 l-307 0 l0 -350 q0 -4 1 -14 q1 -10 6 -10 q7 0 10 3.5 q3 3.5 9 9.5 q29 33 59 62.5 q30 29.5 66 52 q36 22.5 81 35.5 q45 13 105 13 q62 0 122.5 -14.5 q60.5 -14.5 108 -54 q47.5 -39.5 77 -109 q29.5 -69.5 29.5 -179.5 l0 -386 q0 -44 18 -66.5 q18 -22.5 42 -33 q24 -10.5 48 -14 q24 -3.5 37 -9.5 q4 -2 7 -13.5 q3 -11.5 3 -16.5 q0 -6 -2 -17 q-2 -11 -8 -13 l-522 0 q-6 2 -8 13 q-2 11 -2 17 q0 5 3 16.5 q3 11.5 7 13.5 q13 6 37 9.5 q24 3.5 48 14 q24 10.5 42 33 q18 22.5 18 66.5 l0 344 q0 58 -3 109 q-3 51 -20.5 89 q-17.5 38 -56 59.5 q-38.5 21.5 -108.5 21.5 q-36 0 -80 -17.5 q-44 -17.5 -83 -47 q-39 -29.5 -65 -68 q-26 -38.5 -26 -80.5 l0 -410 q0 -44 18 -66.5 q18 -22.5 42 -33 q24 -10.5 48 -14 q24 -3.5 37 -9.5 q4 -2 7 -13.5 q3 -11.5 3 -16.5 q0 -6 -2 -17 q-2 -11 -8 -13 l-522 0 q-6 2 -8 13 q-2 11 -2 17 q0 5 3 16.5 q3 11.5 7 13.5 q13 6 37 9.5 q24 3.5 48 14 q24 10.5 42 33 q18 22.5 18 66.5 l0 941 l-112 0 l0 0 Z" /><glyph glyph-name="dotlessi" unicode="&#x131;" d="M70 0 q-6 2 -8 13.5 q-2 11.5 -2 17.5 q0 5 3 15.5 q3 10.5 7 12.5 q13 6 37 9.5 q24 3.5 48 14 q24 10.5 42 33 q18 22.5 18 66.5 l0 481 q0 24 -13 37.5 q-13 13.5 -33 20.5 q-20 7 -43 11.5 q-23 4.5 -44 10.5 q-6 2 -9.5 5.5 q-3.5 3.5 -3.5 14.5 q0 5 3 10 q3 5 12 10 l331 156 q4 2 8.5 4 q4.5 2 6.5 2 q17 0 17 -24 l0 -739 q0 -44 18 -66.5 q18 -22.5 42 -33 q24 -10.5 48 -14 q24 -3.5 37 -9.5 q4 -2 7 -12.5 q3 -10.5 3 -15.5 q0 -6 -2 -17.5 q-2 -11.5 -8 -13.5 l-522 0 l0 0 Z" /><glyph glyph-name="kgreenlandic" unicode="&#x138;" d="M586 30 q0 -14 -2 -22 q-2 -8 -8 -8 l-522 0 q-10 2 -10 30 q0 26 10 30 q13 6 37 9.5 q24 3.5 48 14 q24 10.5 42 33 q18 22.5 18 66.5 l0 511 q0 24 -13 37.5 q-13 13.5 -33 20.5 q-20 7 -43 11.5 q-23 4.5 -44 10.5 q-6 2 -9.5 5.5 q-3.5 3.5 -3.5 14.5 q0 5 3 10 q3 5 12 10 l331 156 q4 2 8.5 4 q4.5 2 6.5 2 q17 0 17 -24 l0 -324 q0 -30 11.5 -37 q11.5 -7 28.5 -7 q22 0 55 13.5 q33 13.5 70.5 34.5 q37.5 21 75 47 q37.5 26 67 51.5 q29.5 25.5 48.5 47 q19 21.5 19 33.5 q0 20 -19 27 q-19 7 -42.5 11.5 q-23.5 4.5 -42.5 11.5 q-19 7 -19 26 q0 14 13 23.5 q13 9.5 28 9.5 l421 0 q45 0 45 -23 q0 -16 -23 -26.5 q-23 -10.5 -57 -20.5 q-34 -10 -71.5 -23.5 q-37.5 -13.5 -65.5 -35.5 l-287 -224 q0 -8 7 -17.5 q7 -9.5 12 -14.5 l381 -402 q26 -27 57.5 -42 q31.5 -15 59.5 -25 q28 -10 46.5 -17 q18.5 -7 18.5 -19 q0 -12 -2 -21 q-2 -9 -14 -9 l-545 0 q-7 0 -8.5 8 q-1.5 8 -1.5 22 q0 25 10 30 q10 5 21 8 q11 3 19.5 8.5 q8.5 5.5 14 14.5 q5.5 9 5.5 26 q0 11 -14 29.5 q-14 18.5 -29 34.5 l-279 296 q0 1 -1 2 l-1 0 q-6 0 -9 -15 q-3 -15 -3 -34 l0 -247 q0 -44 18 -66.5 q18 -22.5 42 -33 q24 -10.5 48 -14 q24 -3.5 37 -9.5 q10 -4 10 -30 Z" /><glyph glyph-name="Lslash" unicode="&#x141;" d="M128 462 q-5 -3 -11 -3 q-13 0 -20 12 l-44 62 q-6 9 -6 17 q0 10 9 16 l227 159 l0 496 q0 36 -23.5 59 q-23.5 23 -56 36.5 q-32.5 13.5 -66 18.5 q-33.5 5 -53.5 5 l-22 0 q-5 0 -6.5 3.5 q-1.5 3.5 -1.5 4.5 l0 54 q0 2 1.5 5 q1.5 3 6.5 3 l767 0 q5 0 6.5 -3 q1.5 -3 1.5 -5 l0 -54 q0 -2 -1.5 -5 q-1.5 -3 -6.5 -3 l-43 0 q-56 0 -104 -9 q-48 -9 -78 -20 q-23 -8 -29.5 -26.5 q-6.5 -18.5 -6.5 -63.5 l0 -297 l288 202 q5 4 11 4 q12 0 21 -12 l44 -63 q5 -6 5 -16 q0 -11 -8 -16 l-361 -253 l0 -598 q2 -17 18 -32 q16 -15 36 -15 l350 0 q35 0 66.5 15 q31.5 15 58.5 38.5 q27 23.5 50 51.5 q23 28 42 54 q19 26 34 46.5 q15 20.5 26 29.5 q5 3 11.5 6 q6.5 3 15.5 3 q17 0 17 -13 q0 -6 -3 -12 l-166 -326 q-4 -8 -9 -13 q-5 -5 -12 -5 l-1054 0 q-5 0 -6.5 3 q-1.5 3 -1.5 5 l0 54 q0 2 1 5 q1 3 7 3 l24 0 q3 0 19.5 1.5 q16.5 1.5 38 5 q21.5 3.5 44.5 9.5 q23 6 39 15 q35 20 52 51.5 q17 31.5 17 70.5 l0 347 l-155 -108 l0 0 Z" /><glyph glyph-name="lslash" unicode="&#x142;" d="M97 511 q-8 -5 -15 -5 q-12 0 -20 11 l-44 63 q-5 8 -5 15 q0 11 12 19 l201 141 l0 593 q0 24 -13 37.5 q-13 13.5 -33 20.5 q-20 7 -43 11.5 q-23 4.5 -44 10.5 q-13 5 -13 28 q0 5 3 13.5 q3 8.5 12 13.5 l331 156 q4 2 9 4 q5 2 11 2 q8 0 10 -5.5 q2 -5.5 2 -18.5 l0 -704 l162 114 q7 6 15 6 q12 0 20 -12 l43 -62 q6 -8 6 -15 q0 -13 -12 -20 l-234 -164 l0 -582 q0 -44 18 -66.5 q18 -22.5 42 -33 q24 -10.5 48 -14 q24 -3.5 37 -9.5 q4 -2 7 -13 q3 -11 3 -16 q0 -6 -2 -17 q-2 -11 -8 -13 l-522 0 q-6 2 -8 13 q-2 11 -2 17 q0 5 3 16 q3 11 7 13 q13 6 37 9.5 q24 3.5 48 14 q24 10.5 42 33 q18 22.5 18 66.5 l0 419 l-129 -90 l0 0 Z" /><glyph glyph-name="Eng" unicode="&#x14a;" d="M1285 -523 q31 0 53.5 24.5 q22.5 24.5 36 59.5 q13.5 35 20 74 q6.5 39 6.5 68 l0 297 l-978 1081 q-7 7 -10 8.5 q-3 1.5 -8 1.5 q-5 0 -5 -10 l0 -893 q0 -28 13.5 -48.5 q13.5 -20.5 34.5 -35 q21 -14.5 46.5 -23 q25.5 -8.5 50 -13.5 q24.5 -5 44 -6.5 q19.5 -1.5 29.5 -1.5 q5 0 7 -4 q1 -2 1 -4 l0 -44 q0 -2 -1.5 -5 q-1.5 -3 -6.5 -3 l-550 0 q-2 0 -5 2.5 q-3 2.5 -3 5.5 l0 44 q0 8 8 8 q11 0 25 0 q14 0 27.5 1 q13.5 1 24.5 2 q11 1 17 4 q25 12 41 32 q16 20 24.5 46 q8.5 26 11.5 57 q3 31 3 66 l0 999 q0 27 -21.5 43.5 q-21.5 16.5 -50 25 q-28.5 8.5 -58 11.5 q-29.5 3 -44.5 3 q-5 0 -6.5 3 q-1.5 3 -1.5 5 l0 44 q0 2 1.5 5 q1.5 3 6.5 3 l453 0 l862 -954 q5 -5 7 -7.5 q2 -2.5 5 -2.5 q4 0 5 3 q1 3 1 6 l0 594 q0 99 -7 158.5 q-7 59.5 -26 91 q-19 31.5 -51 41.5 q-32 10 -82 10 l-51 0 q-5 0 -6.5 3 q-1.5 3 -1.5 5 l0 44 q0 2 1.5 5 q1.5 3 6.5 3 l550 0 q6 0 7 -3 q1 -3 1 -5 l0 -44 q0 -2 -1.5 -5 q-1.5 -3 -6.5 -3 q-20 0 -51.5 -8 q-31.5 -8 -61.5 -23 q-30 -15 -51.5 -37 q-21.5 -22 -21.5 -50 l0 -1371 q0 -101 -18.5 -188.5 q-18.5 -87.5 -64 -152.5 q-45.5 -65 -121.5 -102.5 q-76 -37.5 -191 -37.5 q-43 0 -82 11 q-39 11 -68 29 q-29 18 -46.5 41 q-17.5 23 -17.5 47 q0 15 6.5 31 q6.5 16 18.5 28.5 q12 12.5 28.5 20.5 q16.5 8 36.5 8 q23 0 49.5 -18.5 q26.5 -18.5 58 -41 q31.5 -22.5 68 -41 q36.5 -18.5 80.5 -18.5 Z" /><glyph glyph-name="eng" unicode="&#x14b;" d="M609 -620 q-36 0 -70 11 q-34 11 -60.5 29 q-26.5 18 -42.5 41 q-16 23 -16 47 q0 15 4.5 31 q4.5 16 13.5 28.5 q9 12.5 22 20.5 q13 8 30 8 q13 0 22.5 -1.5 q9.5 -1.5 23.5 -9.5 q14 -8 38 -26 q24 -18 67 -51 q28 -22 52.5 -31.5 q24.5 -9.5 46.5 -9.5 q34 0 60.5 21 q26.5 21 44.5 55 q18 34 27.5 76 q9.5 42 9.5 84 l0 822 q0 49 -5 97 q-5 48 -23 86 q-18 38 -53 62 q-35 24 -95 24 q-21 0 -38 -1.5 q-17 -1.5 -41 -10 q-24 -8.5 -61.5 -26.5 q-37.5 -18 -100.5 -52 q-8 -5 -16.5 -11.5 q-8.5 -6.5 -9.5 -16.5 l0 -490 q0 -45 18 -68.5 q18 -23.5 42 -34 q24 -10.5 48 -14 q24 -3.5 37 -9.5 q4 -2 7 -13 q3 -11 3 -16 q0 -6 -2 -17.5 q-2 -11.5 -8 -13.5 l-522 0 q-6 2 -8 13.5 q-2 11.5 -2 17.5 q0 5 3 16 q3 11 7 13 q13 6 37 9.5 q24 3.5 48 14 q24 10.5 42 34 q18 23.5 18 68.5 l0 508 q0 24 -13 37.5 q-13 13.5 -33 20.5 q-20 7 -43 11.5 q-23 4.5 -44 10.5 q-6 2 -9.5 5.5 q-3.5 3.5 -3.5 14.5 q0 5 3 10 q3 5 12 10 l331 156 q4 2 8.5 4 q4.5 2 6.5 2 q17 0 17 -24 l0 -156 q3 -10 8 -10 q5 0 8 0.5 q3 0.5 8 3.5 q64 33 108.5 55.5 q44.5 22.5 77 38 q32.5 15.5 58 24 q25.5 8.5 51.5 13 q26 4.5 57 5.5 q31 1 76 1 q49 0 85 -21 q36 -21 60.5 -55.5 q24.5 -34.5 40 -79 q15.5 -44.5 23.5 -91 q8 -46.5 11 -92 q3 -45.5 3 -82.5 l0 -613 q0 -118 -36 -213 q-36 -95 -102 -161.5 q-66 -66.5 -159.5 -102.5 q-93.5 -36 -207.5 -36 Z" /><glyph glyph-name="OE" unicode="&#x152;" d="M902 -26 q-35 0 -87.5 6 q-52.5 6 -115 22 q-62.5 16 -130.5 42 q-68 26 -133.5 66.5 q-65.5 40.5 -124.5 96 q-59 55.5 -103.5 129 q-44.5 73.5 -71 167.5 q-26.5 94 -26.5 211 q0 104 28.5 199 q28.5 95 81.5 177 q53 82 128.5 149 q75.5 67 168.5 114 q93 47 202 73 q109 26 229 26 q68 0 132 -11 q64 -11 125 -31 l766 0 q18 0 26 -6.5 q8 -6.5 10 -28.5 l18 -320 q0 -5 -8.5 -7.5 q-8.5 -2.5 -15.5 -2.5 q-8 0 -16 2 q-8 2 -11 6 q-7 10 -10 29.5 q-3 19.5 -6.5 43.5 q-3.5 24 -10 50 q-6.5 26 -19.5 48 q-13 22 -35.5 38.5 q-22.5 16.5 -57.5 22.5 l-357 0 q-13 0 -13 -13 l0 -477 q0 -10 10 -10 l286 0 q25 0 49.5 6.5 q24.5 6.5 43 23.5 q18.5 17 30 47.5 q11.5 30.5 11.5 78.5 q0 8 8 8 l39 0 q8 0 8 -8 l0 -458 q0 -5 -3 -6.5 q-3 -1.5 -5 -1.5 l-39 0 q-5 0 -6.5 3 q-1.5 3 -1.5 5 q0 56 -11.5 90.5 q-11.5 34.5 -30.5 54 q-19 19.5 -43.5 26 q-24.5 6.5 -51.5 6.5 l-283 0 q-10 0 -10 -10 l0 -437 q0 -29 9 -46.5 q9 -17.5 24.5 -26.5 q15.5 -9 35.5 -12 q20 -3 42 -3 l273 0 q58 0 97 26.5 q39 26.5 63 64.5 q24 38 35.5 79 q11.5 41 14.5 70 q2 13 13 20.5 q11 7.5 25 7.5 q5 0 12 -4 q7 -4 7 -9 l-33 -366 q-2 -5 -5.5 -9.5 q-3.5 -4.5 -8.5 -4.5 l-955 0 q-102 -26 -212 -26 ZM404 751 q0 -81 16.5 -162 q16.5 -81 48.5 -156 q32 -75 79 -140.5 q47 -65.5 107 -114 q60 -48.5 133.5 -76 q73.5 -27.5 159.5 -27.5 q65 0 120 15 q55 15 102 43 q5 12 7.5 27 q2.5 15 2.5 33 l0 1024 q0 11 -1.5 20 q-1.5 9 -3.5 18 q-61 47 -135 73.5 q-74 26.5 -162 26.5 q-77 0 -142 -24 q-65 -24 -117.5 -65.5 q-52.5 -41.5 -92.5 -99 q-40 -57.5 -67 -124.5 q-27 -67 -41 -141.5 q-14 -74.5 -14 -149.5 Z" /><glyph glyph-name="oe" unicode="&#x153;" d="M75 467 q0 94 41.5 180 q41.5 86 111.5 152 q70 66 163 105 q93 39 196 39 q128 0 237.5 -50 q109.5 -50 184.5 -136 q63 88 158.5 137 q95.5 49 223.5 49 q34 0 61 -4.5 q27 -4.5 49.5 -12 q22.5 -7.5 42 -18 q19.5 -10.5 39.5 -22.5 q23 -12 52.5 -43 q29.5 -31 55.5 -72 q26 -41 44 -87.5 q18 -46.5 18 -89.5 q0 -14 -5.5 -30.5 q-5.5 -16.5 -18.5 -16.5 l-590 0 q-10 0 -13.5 -18 q-3.5 -18 -3.5 -44 q0 -88 25.5 -156.5 q25.5 -68.5 68.5 -116 q43 -47.5 99 -72 q56 -24.5 118 -24.5 q39 0 75 10.5 q36 10.5 69 27.5 q33 17 62 38 q29 21 55 42 q6 2 8 2 q3 0 8 -5 q9 -8 18 -18.5 q9 -10.5 14 -17.5 q3 -3 3 -6 q0 -3 -4 -7 q-33 -39 -81 -76.5 q-48 -37.5 -102.5 -67 q-54.5 -29.5 -111.5 -47.5 q-57 -18 -108 -18 q-115 0 -201 46 q-86 46 -140 118 q-71 -77 -173.5 -120.5 q-102.5 -43.5 -227.5 -43.5 q-113 0 -208.5 38.5 q-95.5 38.5 -165 105 q-69.5 66.5 -108.5 156.5 q-39 90 -39 194 ZM331 530 q0 -54 8 -111.5 q8 -57.5 24 -112 q16 -54.5 40.5 -102.5 q24.5 -48 58.5 -84.5 q34 -36.5 77 -57.5 q43 -21 97 -21 q59 0 101.5 30.5 q42.5 30.5 70 79.5 q27.5 49 40.5 110 q13 61 13 122 q0 49 -9 103.5 q-9 54.5 -27 108 q-18 53.5 -44 102.5 q-26 49 -60.5 86.5 q-34.5 37.5 -77 59.5 q-42.5 22 -92.5 22 q-56 0 -97.5 -30.5 q-41.5 -30.5 -68.5 -79 q-27 -48.5 -40.5 -108 q-13.5 -59.5 -13.5 -117.5 ZM1495 624 q26 0 26 23 q0 39 -12.5 73.5 q-12.5 34.5 -35.5 61 q-23 26.5 -55.5 41.5 q-32.5 15 -72.5 15 q-48 0 -84 -20.5 q-36 -20.5 -61 -49.5 q-25 -29 -37.5 -60 q-12.5 -31 -12.5 -53 q0 -17 5 -24 q5 -7 13 -7 l327 0 Z" /><glyph glyph-name="Tbar" unicode="&#x166;" d="M302 644 q-21 0 -21 25 l0 76 q0 25 21 25 l306 0 l0 487 q0 21 -8.5 23.5 q-8.5 2.5 -20.5 4.5 l-339 0 q-37 -8 -58 -29.5 q-21 -21.5 -33 -50.5 q-12 -29 -18 -62.5 q-6 -33.5 -13 -64.5 q-2 -9 -4 -21.5 q-2 -12.5 -4 -14.5 q-2 -3 -7 -3 l-33 0 q-6 0 -6 4 l0 33 l37 342 q2 11 9 21 q7 10 22 10 q7 0 13.5 -4 q6.5 -4 12.5 -9.5 q6 -5.5 11.5 -10.5 q5.5 -5 11.5 -7 q12 -5 22.5 -6.5 q10.5 -1.5 23.5 -1.5 l1048 0 q13 0 23.5 1.5 q10.5 1.5 22.5 6.5 q6 2 11.5 7 q5.5 5 11.5 10.5 q6 5.5 12.5 9.5 q6.5 4 13.5 4 q15 0 22 -10 q7 -10 9 -21 l37 -342 l0 -33 q0 -4 -6 -4 l-33 0 q-5 0 -7 3 q-2 2 -4 14.5 q-2 12.5 -4 21.5 q-7 31 -13 64.5 q-6 33.5 -18 62.5 q-12 29 -33 50.5 q-21 21.5 -58 29.5 l-340 0 q-12 -2 -20.5 -4.5 q-8.5 -2.5 -8.5 -23.5 l0 -487 l306 0 q10 0 15.5 -7.5 q5.5 -7.5 5.5 -17.5 l0 -76 q0 -11 -6 -18 q-6 -7 -15 -7 l-306 0 l0 -449 q0 -30 15 -53.5 q15 -23.5 40.5 -41.5 q25.5 -18 60 -29 q34.5 -11 73.5 -15 q11 -1 28 -1 q17 0 29 0 q5 0 6.5 -3 q1.5 -3 1.5 -5 l0 -39 q0 -2 -1.5 -5 q-1.5 -3 -6.5 -3 l-777 0 q-5 0 -6.5 3 q-1.5 3 -1.5 5 l0 39 q0 2 1.5 5 q1.5 3 6.5 3 q11 0 28.5 0 q17.5 0 28.5 1 q39 4 73.5 15 q34.5 11 60 29 q25.5 18 40.5 41.5 q15 23.5 15 53.5 l0 449 l-306 0 l0 0 Z" /><glyph glyph-name="tbar" unicode="&#x167;" d="M52 394 q-25 0 -25 25 l0 76 q0 25 25 25 l99 0 l0 251 l-75 0 q-14 0 -22 7 q-8 7 -9 15 q0 5 2 11 q2 6 5 8 q20 13 43.5 30.5 q23.5 17.5 46.5 36.5 q23 19 45 38 q22 19 39 35 q10 11 27.5 33 q17.5 22 40 43.5 q22.5 21.5 48.5 38 q26 16.5 53 16.5 q6 0 14 -4 q8 -4 8 -10 q0 -7 -3.5 -21.5 q-3.5 -14.5 -8.5 -32.5 q-5 -18 -11 -38 q-6 -20 -11 -39 q0 -8 2.5 -13 q2.5 -5 13.5 -6 l255 0 q16 0 22 -5.5 q6 -5.5 9 -14.5 q2 -5 4 -20.5 q2 -15.5 4 -34 q2 -18.5 3.5 -37 q1.5 -18.5 1.5 -30.5 q0 -6 -8 -6 l-301 0 q-5 0 -5.5 -2 q-0.5 -2 -0.5 -7 l0 -242 l284 0 q25 0 25 -25 l0 -76 q0 -25 -25 -25 l-284 0 l0 -129 q0 -32 8 -56 q8 -24 20.5 -40 q12.5 -16 28.5 -24 q16 -8 32 -8 q46 0 75 13.5 q29 13.5 50 29.5 q21 16 37 29.5 q16 13.5 36 13.5 q14 0 16.5 -11 q2.5 -11 2.5 -17 q0 -13 -3.5 -20.5 q-3.5 -7.5 -5.5 -11.5 q-1 -2 -11 -17 q-10 -15 -27 -36 q-17 -21 -41.5 -45 q-24.5 -24 -54.5 -44.5 q-30 -20.5 -65.5 -34 q-35.5 -13.5 -74.5 -13.5 q-54 0 -101 20 q-47 20 -81 53.5 q-34 33.5 -53.5 76.5 q-19.5 43 -19.5 89 l0 182 l-99 0 l0 0 Z" /><glyph glyph-name="longs" unicode="&#x17f;" d="M40 30 q0 5 3 16.5 q3 11.5 7 13.5 q13 6 37 9 q24 3 48 13.5 q24 10.5 42 33 q18 22.5 18 66.5 l0 579 q0 11 -12 11 l-109 0 q-12 0 -23 7.5 q-11 7.5 -11 21.5 q0 11 11.5 19 q11.5 8 28.5 16 q17 8 37.5 15.5 q20.5 7.5 37.5 17 q17 9.5 28.5 21.5 q11.5 12 11.5 29 l0 33 q0 140 36 270 q36 130 108.5 230 q72.5 100 181 160 q108.5 60 253.5 60 q14 0 50 -8 q36 -8 74 -22 q38 -14 67 -33 q29 -19 29 -41 q0 -8 -2.5 -14 q-2.5 -6 -5.5 -15 q-2 -5 -10.5 -23 q-8.5 -18 -17.5 -39.5 q-9 -21.5 -17.5 -40.5 q-8.5 -19 -10.5 -24 q-2 -4 -7.5 -10 q-5.5 -6 -11.5 -6 q-2 0 -4.5 1.5 q-2.5 1.5 -12.5 9.5 q-23 19 -52 42 q-29 23 -62 43.5 q-33 20.5 -69 34.5 q-36 14 -73 14 q-79 0 -121.5 -23 q-42.5 -23 -62.5 -60 q-20 -37 -23.5 -82.5 q-3.5 -45.5 -3.5 -91.5 l0 -1082 q0 -44 22 -71.5 q22 -27.5 57.5 -43.5 q35.5 -16 80 -21.5 q44.5 -5.5 88.5 -5.5 q9 -1 13.5 -13 q4.5 -12 4.5 -17 q0 -2 -0.5 -7 q-0.5 -5 -2 -10 q-1.5 -5 -5.5 -9 q-4 -4 -10 -4 l-625 0 q-6 2 -8 13 q-2 11 -2 17 Z" /><glyph glyph-name="uni0180" unicode="&#x180;" d="M37 1124 q-25 0 -25 25 l0 76 q0 25 25 25 l121 0 l0 113 q0 24 -13 37.5 q-13 13.5 -33 20.5 q-20 7 -43 11.5 q-23 4.5 -44 10.5 q-6 2 -9.5 5.5 q-3.5 3.5 -3.5 14.5 q0 5 3 10 q3 5 12 10 l331 156 q4 2 8.5 4 q4.5 2 6.5 2 q17 0 17 -24 l0 -371 l298 0 q25 0 25 -25 l0 -76 q0 -25 -25 -25 l-298 0 l0 -258 q0 -10 2.5 -20.5 q2.5 -10.5 12.5 -10.5 q4 0 16 6 q37 17 69.5 34 q32.5 17 64 30.5 q31.5 13.5 63.5 22 q32 8.5 67 8.5 q79 0 148 -36 q69 -36 120.5 -98 q51.5 -62 81.5 -146.5 q30 -84.5 30 -180.5 q0 -111 -39 -203.5 q-39 -92.5 -108.5 -159 q-69.5 -66.5 -165 -103 q-95.5 -36.5 -207.5 -36.5 q-60 0 -110.5 4.5 q-50.5 4.5 -95.5 12 q-45 7.5 -86 17.5 q-41 10 -81 20 q-9 2 -11.5 8.5 q-2.5 6.5 -2.5 15.5 l0 1073 l-121 0 ZM402 751 q-8 -5 -10 -10.5 q-2 -5.5 -2 -13.5 l0 -483 q10 -95 62 -144 q52 -49 141 -49 q72 0 120 28 q48 28 77.5 78 q29.5 50 42 117.5 q12.5 67.5 12.5 147.5 q0 78 -12 145.5 q-12 67.5 -43 118 q-31 50.5 -84 80 q-53 29.5 -135 29.5 q-27 0 -48.5 -2 q-21.5 -2 -40.5 -6.5 q-19 -4.5 -38 -13.5 q-19 -9 -42 -22 Z" /><glyph glyph-name="florin" unicode="&#x192;" d="M784 825 l-31 -106 l-216 0 q-6 -61 -14 -136 q-8 -75 -19 -157 q-11 -82 -26.5 -166.5 q-15.5 -84.5 -36.5 -163.5 q-21 -79 -49 -148 q-28 -69 -64 -120.5 q-36 -51.5 -81.5 -81.5 q-45.5 -30 -101.5 -30 q-22 0 -53 1 q-31 1 -63.5 5 q-32.5 4 -64.5 13 q-32 9 -57.5 24 q-25.5 15 -41 38 q-15.5 23 -15.5 56 q0 24 9 40 q9 16 24.5 26 q15.5 10 36 14.5 q20.5 4.5 44.5 4.5 q31 0 51 -19 q20 -19 36.5 -42.5 q16.5 -23.5 34 -42.5 q17.5 -19 44.5 -19 q29 0 52 36 q23 36 41 99 q18 63 32.5 149.5 q14.5 86.5 26.5 186.5 q12 100 22 210.5 q10 110.5 19 222.5 l-172 0 l31 106 l158 0 q9 61 24.5 128.5 q15.5 67.5 38.5 132.5 q23 65 55 124.5 q32 59.5 75.5 104.5 q43.5 45 99 71.5 q55.5 26.5 126.5 26.5 q22 0 52.5 -1 q30.5 -1 63.5 -5 q33 -4 65 -13 q32 -9 57.5 -24 q25.5 -15 41 -38 q15.5 -23 15.5 -56 q0 -24 -9 -40 q-9 -16 -25 -26.5 q-16 -10.5 -36.5 -15 q-20.5 -4.5 -44.5 -4.5 q-28 0 -49.5 9.5 q-21.5 9.5 -39 23.5 q-17.5 14 -33 30.5 q-15.5 16.5 -31 30.5 q-15.5 14 -33.5 23.5 q-18 9.5 -41 9.5 q-9 0 -20 -5.5 q-11 -5.5 -22 -14.5 q-11 -9 -20 -19.5 q-9 -10.5 -14 -19.5 q-20 -38 -35 -93.5 q-15 -55.5 -25.5 -116 q-10.5 -60.5 -17 -119.5 q-6.5 -59 -9.5 -104 l235 0 Z" /><glyph glyph-name="uni0195" unicode="&#x195;" d="M40 0 q-6 2 -8 13 q-2 11 -2 17 q0 5 3 16.5 q3 11.5 7 13.5 q13 6 37 9.5 q24 3.5 48 14 q24 10.5 42 33 q18 22.5 18 66.5 l0 1181 q0 24 -13 37.5 q-13 13.5 -33 20.5 q-20 7 -43 11.5 q-23 4.5 -44 10.5 q-6 2 -9.5 5.5 q-3.5 3.5 -3.5 14.5 q0 5 3 10 q3 5 12 10 l331 155 q4 2 8.5 4 q4.5 2 6.5 2 q17 0 17 -24 l0 -847 q0 -4 1 -14 q1 -10 6 -10 q7 0 10 3.5 q3 3.5 9 9.5 q29 33 59 62.5 q30 29.5 66 52 q36 22.5 81 35.5 q45 13 105 13 q62 0 122.5 -14.5 q60.5 -14.5 108 -54 q47.5 -39.5 77 -109 q29.5 -69.5 29.5 -179.5 l0 -369 q0 -27 7 -51.5 q7 -24.5 26.5 -43.5 q19.5 -19 54 -30.5 q34.5 -11.5 90.5 -11.5 q47 0 83.5 20 q36.5 20 63 52.5 q26.5 32.5 44.5 73 q18 40.5 28.5 81.5 q10.5 41 15 78.5 q4.5 37.5 4.5 63.5 q0 64 -4 116 q-4 52 -20.5 95.5 q-16.5 43.5 -49 80 q-32.5 36.5 -89.5 70.5 q-11 6 -24 12 q-13 6 -13 20 q0 18 18 36 q18 18 43 32.5 q25 14.5 51.5 23 q26.5 8.5 43.5 8.5 q55 0 105 -35 q50 -35 87 -92.5 q37 -57.5 59 -132.5 q22 -75 22 -154 q0 -125 -40 -225 q-40 -100 -105 -170 q-65 -70 -147.5 -107 q-82.5 -37 -168.5 -37 q-80 0 -155 10.5 q-75 10.5 -133.5 36.5 q-58.5 26 -93.5 70 q-35 44 -35 112 l0 325 q0 58 -3 109 q-3 51 -20.5 89 q-17.5 38 -56 59.5 q-38.5 21.5 -108.5 21.5 q-36 0 -80 -17.5 q-44 -17.5 -83 -47 q-39 -29.5 -65 -68 q-26 -38.5 -26 -80.5 l0 -410 q0 -44 18 -66.5 q18 -22.5 42 -33 q24 -10.5 48 -14 q24 -3.5 37 -9.5 q4 -2 7 -13.5 q3 -11.5 3 -16.5 q0 -6 -2 -17 q-2 -11 -8 -13 l-522 0 l0 0 Z" /><glyph glyph-name="uni0197" unicode="&#x197;" d="M61 644 q-21 0 -21 25 l0 76 q0 25 21 25 l196 0 l0 450 q0 34 -10.5 57 q-10.5 23 -30 37 q-19.5 14 -48 20 q-28.5 6 -63.5 6 q-8 0 -8 8 l0 54 q0 8 8 8 l591 0 q5 0 6.5 -3 q1.5 -3 1.5 -5 l0 -54 q0 -2 -1.5 -5 q-1.5 -3 -6.5 -3 q-35 0 -63.5 -4.5 q-28.5 -4.5 -48.5 -19.5 q-20 -15 -31 -43 q-11 -28 -11 -76 l0 -427 l192 0 q10 0 15.5 -7.5 q5.5 -7.5 5.5 -17.5 l0 -76 q0 -11 -6 -18 q-6 -7 -15 -7 l-192 0 l0 -454 q0 -34 10.5 -57 q10.5 -23 30 -37 q19.5 -14 48 -20 q28.5 -6 63.5 -6 q8 0 8 -8 l0 -54 q0 -3 -1 -5.5 q-1 -2.5 -7 -2.5 l-591 0 q-5 0 -6.5 3 q-1.5 3 -1.5 5 l0 54 q0 2 1.5 5 q1.5 3 6.5 3 q35 0 63.5 4.5 q28.5 4.5 48.5 19.5 q20 15 31 43 q11 28 11 76 l0 431 l-196 0 l0 0 Z" /><glyph glyph-name="uni0199" unicode="&#x199;" d="M586 30 q0 -14 -2 -22 q-2 -8 -8 -8 l-522 0 q-10 2 -10 30 q0 26 10 30 q13 6 37 9.5 q24 3.5 48 14 q24 10.5 42 33 q18 22.5 18 66.5 l0 910 q0 106 21.5 176 q21.5 70 64 111 q42.5 41 105.5 58 q63 17 147 17 q58 0 107 -10.5 q49 -10.5 84 -33 q35 -22.5 55 -57 q20 -34.5 20 -81.5 q0 -24 -5.5 -44.5 q-5.5 -20.5 -16 -35.5 q-10.5 -15 -24.5 -24 q-14 -9 -30 -9 q-23 0 -41.5 11 q-18.5 11 -34 28 q-15.5 17 -29.5 36.5 q-14 19.5 -28 36.5 q-14 17 -29 28 q-15 11 -33 11 q-32 0 -51.5 -14 q-19.5 -14 -30.5 -40.5 q-11 -26.5 -15 -63.5 q-4 -37 -4 -82 l0 -483 q0 -30 11.5 -37 q11.5 -7 28.5 -7 q22 0 55 13.5 q33 13.5 70.5 34.5 q37.5 21 75 47 q37.5 26 67 51.5 q29.5 25.5 48.5 47 q19 21.5 19 33.5 q0 20 -19 27 q-19 7 -42.5 11.5 q-23.5 4.5 -42.5 11.5 q-19 7 -19 26 q0 14 13 23.5 q13 9.5 28 9.5 l421 0 q45 0 45 -23 q0 -16 -23 -26.5 q-23 -10.5 -57 -20.5 q-34 -10 -71.5 -23.5 q-37.5 -13.5 -65.5 -35.5 l-287 -224 q0 -8 7 -17.5 q7 -9.5 12 -14.5 l381 -402 q26 -27 57.5 -42 q31.5 -15 59.5 -25 q28 -10 46.5 -17 q18.5 -7 18.5 -19 q0 -12 -2 -21 q-2 -9 -14 -9 l-545 0 q-7 0 -8.5 8 q-1.5 8 -1.5 22 q0 25 10 30 q10 5 21 8 q11 3 19.5 8.5 q8.5 5.5 14 14.5 q5.5 9 5.5 26 q0 11 -14 29.5 q-14 18.5 -29 34.5 l-279 296 q0 1 -1 2 l-1 0 q-6 0 -9 -15 q-3 -15 -3 -34 l0 -247 q0 -44 18 -66.5 q18 -22.5 42 -33 q24 -10.5 48 -14 q24 -3.5 37 -9.5 q10 -4 10 -30 Z" /><glyph glyph-name="uni019A" unicode="&#x19a;" d="M39 645 q-25 0 -25 25 l0 76 q0 25 25 25 l208 0 l0 577 q0 24 -13 37.5 q-13 13.5 -33 20.5 q-20 7 -43 11.5 q-23 4.5 -44 10.5 q-13 5 -13 28 q0 5 3 13.5 q3 8.5 12 13.5 l331 156 q4 2 9 4 q5 2 11 2 q8 0 10 -5.5 q2 -5.5 2 -18.5 l0 -850 l211 0 q25 0 25 -25 l0 -76 q0 -25 -25 -25 l-211 0 l0 -463 q0 -44 18 -66.5 q18 -22.5 42 -33 q24 -10.5 48 -14 q24 -3.5 37 -9.5 q4 -2 7 -13 q3 -11 3 -16 q0 -6 -2 -17 q-2 -11 -8 -13 l-522 0 q-6 2 -8 13 q-2 11 -2 17 q0 5 3 16 q3 11 7 13 q13 6 37 9.5 q24 3.5 48 14 q24 10.5 42 33 q18 22.5 18 66.5 l0 463 l-208 0 l0 0 Z" /><glyph glyph-name="uni019E" unicode="&#x19e;" d="M407 970 q4 2 8.5 4 q4.5 2 6.5 2 q17 0 17 -24 l0 -156 q3 -10 8 -10 q5 0 8 0.5 q3 0.5 8 3.5 q64 33 108.5 55.5 q44.5 22.5 77 38 q32.5 15.5 58 24 q25.5 8.5 51.5 13 q26 4.5 57 5.5 q31 1 76 1 q49 0 85 -21 q36 -21 60.5 -55.5 q24.5 -34.5 40 -79 q15.5 -44.5 23.5 -91 q8 -46.5 11 -92 q3 -45.5 3 -82.5 q0 -17 -0.5 -59 q-0.5 -42 -1 -100 q-0.5 -58 -1.5 -128 q-1 -70 -1.5 -144 q-0.5 -74 -1.5 -147.5 q-1 -73.5 -1.5 -139 q-0.5 -65.5 -1 -118 q-0.5 -52.5 -0.5 -84.5 q0 -30 11 -50 q11 -20 28.5 -33 q17.5 -13 38.5 -19.5 q21 -6.5 41 -10.5 q20 -4 36.5 -6.5 q16.5 -2.5 25.5 -6.5 q4 -2 7 -13 q3 -11 3 -16 q0 -6 -2 -17.5 q-2 -11.5 -8 -13.5 l-558 0 q-6 2 -8 13.5 q-2 11.5 -2 17.5 q0 5 3 16 q3 11 7 13 q13 6 34.5 9.5 q21.5 3.5 44 15.5 q22.5 12 41 36.5 q18.5 24.5 24.5 72.5 q1 8 2 40.5 q1 32.5 1.5 81.5 q0.5 49 1 109 q0.5 60 1 123 q0.5 63 1 124.5 q0.5 61.5 1 111.5 q0.5 50 0.5 85 q0 35 0 46 q0 45 -1 96 q-1 51 -1 114 q0 49 -4.5 97 q-4.5 48 -22 86 q-17.5 38 -51.5 62 q-34 24 -94 24 q-21 0 -37.5 -2.5 q-16.5 -2.5 -40 -11.5 q-23.5 -9 -61.5 -27 q-38 -18 -102 -49 q-8 -5 -16.5 -11.5 q-8.5 -6.5 -9.5 -16.5 l0 -490 q0 -45 18 -68.5 q18 -23.5 42 -34 q24 -10.5 48 -14 q24 -3.5 37 -9.5 q4 -2 7 -13 q3 -11 3 -16 q0 -6 -2 -17.5 q-2 -11.5 -8 -13.5 l-522 0 q-6 2 -8 13.5 q-2 11.5 -2 17.5 q0 5 3 16 q3 11 7 13 q13 6 37 9.5 q24 3.5 48 14 q24 10.5 42 34 q18 23.5 18 68.5 l0 508 q0 24 -13 37.5 q-13 13.5 -33 20.5 q-20 7 -43 11.5 q-23 4.5 -44 10.5 q-6 2 -9.5 5.5 q-3.5 3.5 -3.5 14.5 q0 5 3 10 q3 5 12 10 l331 156 Z" /><glyph glyph-name="uni01A6" unicode="&#x1a6;" d="M44 52 q0 1 1 4.5 q1 3.5 7 3.5 q6 0 19 2 q13 2 27 4 q14 2 26 4.5 q12 2.5 17 3.5 q57 13 79.5 42.5 q22.5 29.5 22.5 73.5 l0 1275 q0 34 -10.5 57 q-10.5 23 -30 37 q-19.5 14 -48 20 q-28.5 6 -63.5 6 q-8 0 -8 8 l0 44 q0 8 8 8 l591 0 q5 0 6.5 -3 q1.5 -3 1.5 -5 l0 -44 q0 -2 -1.5 -5 q-1.5 -3 -6.5 -3 q-35 0 -63.5 -4.5 q-28.5 -4.5 -48.5 -19.5 q-20 -15 -31 -43 q-11 -28 -11 -76 l0 -19 q28 1 57 1.5 q29 0.5 61 0.5 l101 0 q79 0 161 -27 q82 -27 148.5 -79.5 q66.5 -52.5 109 -130.5 q42.5 -78 42.5 -180 q0 -66 -18 -117.5 q-18 -51.5 -49.5 -91 q-31.5 -39.5 -75 -69.5 q-43.5 -30 -94.5 -53 l303 -480 q39 -62 91 -112.5 q52 -50.5 121 -70.5 q8 -2 9.5 -5.5 q1.5 -3.5 1.5 -8.5 q0 -15 -8 -20 q-8 -5 -25 -5 q-42 0 -95.5 5.5 q-53.5 5.5 -107.5 18 q-54 12.5 -102.5 32.5 q-48.5 20 -81.5 50 q-32 28 -65 71 q-33 43 -66.5 92.5 q-33.5 49.5 -66 103 q-32.5 53.5 -63 104.5 q-30.5 51 -58.5 95 q-28 44 -51 75 l-156 11 q-1 0 -8 0 q-7 0 -10 -2 q-3 -2 -4 -4 q-1 -2 -1 -8 l0 -426 q0 -27 7 -47 q7 -20 23.5 -34.5 q16.5 -14.5 43 -23.5 q26.5 -9 64.5 -14 q6 -1 17.5 -3 q11.5 -2 25 -4.5 q13.5 -2.5 26.5 -4.5 q13 -2 22 -2 q6 0 7 -3 q1 -3 1 -5 l0 -44 q0 -2 -1.5 -5 q-1.5 -3 -6.5 -3 l-705 0 q-5 0 -6.5 14 q-1.5 14 -1.5 26 l0 12 ZM530 733 q1 -8 4.5 -14.5 q3.5 -6.5 14.5 -7.5 q9 -1 27 -3.5 q18 -2.5 50 -2.5 q88 0 145 27 q57 27 90 72.5 q33 45.5 45.5 104.5 q12.5 59 12.5 123 q0 67 -21 127 q-21 60 -58.5 104 q-37.5 44 -90 70 q-52.5 26 -115.5 26 q-14 0 -22 -0.5 q-8 -0.5 -15.5 -1 q-7.5 -0.5 -17 -1 q-9.5 -0.5 -26.5 -1.5 q-6 0 -15.5 -2.5 q-9.5 -2.5 -9.5 -13.5 l0 -576 l2 -30 Z" /><glyph glyph-name="uni01B5" unicode="&#x1b5;" d="M310 644 q-21 0 -21 25 l0 76 q0 25 21 25 l311 0 l377 487 q4 5 4 10 q0 8 -7 9 q-7 1 -13 1 l-499 0 q-23 0 -48.5 -6.5 q-25.5 -6.5 -48 -19 q-22.5 -12.5 -40.5 -31 q-18 -18.5 -25 -43.5 q-4 -11 -10.5 -41.5 q-6.5 -30.5 -18.5 -91.5 q-2 -10 -16 -14.5 q-14 -4.5 -31 -4.5 q-3 0 -8.5 0 q-5.5 0 -11 1 q-5.5 1 -10.5 2 q-5 1 -6 3 l15 345 q0 3 1 10.5 q1 7.5 3 12.5 q3 8 11 10 q4 1 8 1 l1124 0 q3 0 5.5 -5 q2.5 -5 5 -11.5 q2.5 -6.5 4 -14 q1.5 -7.5 1.5 -12.5 q0 -21 -13 -40 l-431 -557 l257 0 q9 0 15 -7.5 q6 -7.5 6 -17.5 l0 -76 q0 -11 -6 -18 q-6 -7 -15 -7 l-354 0 l-342 -442 q-3 -5 -11.5 -17 q-8.5 -12 -8.5 -20 q0 -14 16 -20.5 q16 -6.5 30 -6.5 l636 0 q56 0 93 33 q37 33 59.5 81.5 q22.5 48.5 32.5 102.5 q10 54 12 96 q1 6 6 9 q5 3 11.5 4.5 q6.5 1.5 13 1.5 q6.5 0 11.5 0 q2 0 8 -1 q6 -1 12 -2.5 q6 -1.5 10.5 -4 q4.5 -2.5 4.5 -4.5 l0 -47 l-21 -348 q-1 -11 -1 -21.5 q0 -10.5 -2.5 -18.5 q-2.5 -8 -8 -13.5 q-5.5 -5.5 -17.5 -5.5 l-1275 0 q-13 0 -20.5 4.5 q-7.5 4.5 -11.5 11.5 q-4 7 -5 14.5 q-1 7.5 -1 12.5 q0 11 4 22.5 q4 11.5 12 20.5 l431 558 l-214 0 l0 0 Z" /><glyph glyph-name="uni01B6" unicode="&#x1b6;" d="M172 394 q-25 0 -25 25 l0 76 q0 25 25 25 l245 0 l144 196 q10 14 17.5 24 q7.5 10 7.5 25 q1 3 -13 4.5 q-14 1.5 -35 2.5 q-21 1 -44 1.5 q-23 0.5 -39 0.5 l-165 0 q-34 0 -57 -15 q-23 -15 -39.5 -37.5 q-16.5 -22.5 -27.5 -49 q-11 -26.5 -20 -49 q-9 -22.5 -17.5 -37.5 q-8.5 -15 -20.5 -15 q-3 0 -14 0.5 q-11 0.5 -11 3.5 l60 353 q2 9 15 10.5 q13 1.5 21 1.5 q7 0 13.5 -7 q6.5 -7 14 -15.5 q7.5 -8.5 16.5 -15.5 q9 -7 22 -7 q15 0 39.5 -1.5 q24.5 -1.5 62 -3 q37.5 -1.5 90.5 -2.5 q53 -1 127 -1 q30 0 70.5 0.5 q40.5 0.5 87 1.5 q46.5 1 96.5 2 q50 1 98 2 q6 -2 8 -9 q2 -7 2 -14 q0 -2 -5 -16.5 q-5 -14.5 -11 -19.5 l-231 -314 l180 0 q25 0 25 -25 l0 -76 q0 -25 -25 -25 l-273 0 l-182 -248 q-4 -6 -7.5 -11 q-3.5 -5 -3.5 -12 q0 -5 0.5 -6.5 q0.5 -1.5 5.5 -1.5 l345 0 q27 0 48.5 11.5 q21.5 11.5 40 29.5 q18.5 18 33.5 38 q15 20 29 38 q14 18 26.5 29.5 q12.5 11.5 25.5 11.5 q6 0 17.5 -3 q11.5 -3 11.5 -9 l-83 -215 q-2 -4 -5 -12 q-3 -8 -7.5 -15.5 q-4.5 -7.5 -11 -13 q-6.5 -5.5 -14.5 -5.5 l-771 0 q-22 0 -22 20 q0 8 0.5 12 q0.5 4 5.5 13 l256 349 l-152 0 l0 0 Z" /><glyph glyph-name="uni01B7" unicode="&#x1b7;" d="M237 1407 q31 0 124.5 -4 q93.5 -4 241.5 -4 q30 0 71 1 q41 1 88 2 q47 1 97 2 q50 1 98 1 q21 0 25.5 -6 q4.5 -6 4.5 -17 q0 -2 -6 -17 q-6 -15 -24 -36 l-408 -485 q2 2 19 4 q17 2 40 2 q84 0 154.5 -12.5 q70.5 -12.5 122 -56 q51.5 -43.5 80.5 -126.5 q29 -83 29 -224 q0 -33 -12 -79.5 q-12 -46.5 -40 -97 q-28 -50.5 -74.5 -101 q-46.5 -50.5 -114 -90.5 q-67.5 -40 -159 -65 q-91.5 -25 -210.5 -25 q-26 0 -60.5 4.5 q-34.5 4.5 -71.5 14 q-37 9.5 -73 24.5 q-36 15 -65 37 q-29 22 -46.5 51.5 q-17.5 29.5 -17.5 66.5 q0 22 9 41.5 q9 19.5 22 34 q13 14.5 28.5 23 q15.5 8.5 29.5 8.5 q42 0 70.5 -15 q28.5 -15 49.5 -37.5 q21 -22.5 38.5 -48.5 q17.5 -26 39 -48.5 q21.5 -22.5 50 -37.5 q28.5 -15 71.5 -15 q56 0 99 20 q43 20 74.5 52.5 q31.5 32.5 52.5 72 q21 39.5 33.5 78.5 q12.5 39 17.5 72.5 q5 33.5 5 54.5 q0 117 -18.5 181.5 q-18.5 64.5 -51 95 q-32.5 30.5 -77 36.5 q-44.5 6 -96.5 6 q-66 0 -106 -9.5 q-40 -9.5 -65.5 -23 q-25.5 -13.5 -42 -29.5 q-16.5 -16 -35.5 -29 q-2 -1 -5 -1 q-9 0 -21 15.5 q-12 15.5 -23 35.5 q-11 20 -18.5 38 q-7.5 18 -7.5 23 q0 1 1 2 q29 20 74.5 59 q45.5 39 97 88 q51.5 49 104 102 q52.5 53 94.5 101.5 q42 48.5 68.5 86.5 q26.5 38 27.5 56 q0 2 -1.5 4.5 q-1.5 2.5 -4.5 2.5 l-352 0 q-34 0 -56.5 -12 q-22.5 -12 -37 -30.5 q-14.5 -18.5 -24 -40 q-9.5 -21.5 -17 -40 q-7.5 -18.5 -15 -30.5 q-7.5 -12 -19.5 -12 q-3 0 -14 0.5 q-11 0.5 -11 3.5 l55 321 q1 9 6 14.5 q5 5.5 11 7.5 q6 2 11.5 2.5 q5.5 0.5 9.5 0.5 q7 0 12 -7 q5 -7 10.5 -15.5 q5.5 -8.5 13 -15.5 q7.5 -7 20.5 -7 Z" /><glyph glyph-name="uni01BF" unicode="&#x1bf;" d="M19 -621 q-7 0 -7 6 l0 42 q0 8 8 11 q31 13 57.5 25.5 q26.5 12.5 46.5 31 q20 18.5 31.5 45 q11.5 26.5 11.5 67.5 l0 1088 q0 24 -13 37.5 q-13 13.5 -33 20.5 q-20 7 -43 11.5 q-23 4.5 -44 10.5 q-6 2 -9.5 5.5 q-3.5 3.5 -3.5 14.5 q0 5 3 10.5 q3 5.5 12 10.5 l331 155 q4 2 8.5 4 q4.5 2 6.5 2 q17 0 17 -24 l0 -127 q0 -5 4.5 -8 q4.5 -3 7.5 -3 q11 0 18 7 q34 32 64.5 52 q30.5 20 61.5 31.5 q31 11.5 64.5 16 q33.5 4.5 72.5 4.5 q78 0 140.5 -22.5 q62.5 -22.5 106.5 -66 q44 -43.5 67.5 -107.5 q23.5 -64 23.5 -147 q0 -53 -28 -115 q-28 -62 -73.5 -127.5 q-45.5 -65.5 -103 -131 q-57.5 -65.5 -117 -125.5 q-59.5 -60 -116 -112 q-56.5 -52 -98.5 -89 q-42 -38 -68.5 -72.5 q-26.5 -34.5 -26.5 -70.5 l0 -110 q0 -38 -23.5 -68 q-23.5 -30 -74.5 -53 q-14 -6 -40.5 -18 q-26.5 -12 -57.5 -26.5 q-31 -14.5 -64 -29.5 q-33 -15 -59.5 -27.5 q-26.5 -12.5 -43.5 -20.5 q-17 -8 -17 -8 ZM400 -76 q10 0 31.5 20 q21.5 20 50.5 55 q29 35 62.5 81 q33.5 46 67 98.5 q33.5 52.5 64.5 108 q31 55.5 55 108.5 q24 53 38.5 100.5 q14.5 47.5 14.5 83.5 q0 131 -44.5 188 q-44.5 57 -126.5 57 q-26 0 -63 -12 q-37 -12 -70.5 -31.5 q-33.5 -19.5 -57 -44 q-23.5 -24.5 -23.5 -48.5 q0 -197 0 -330.5 q0 -133.5 0 -218 q0 -84.5 0.5 -129 q0.5 -44.5 0.5 -64 q0 -19.5 0 -21 q0 -1.5 0 -1.5 Z" /><glyph glyph-name="uni01C0" unicode="&#x1c0;" d="M150 1645 l211 0 l0 -1680 l-211 0 l0 1680 Z" /><glyph glyph-name="uni01C2" unicode="&#x1c2;" d="M461 1169 l0 476 l211 0 l0 -476 l428 0 l0 -207 l-428 0 l0 -223 l428 0 l0 -207 l-428 0 l0 -559 l-211 0 l0 559 l-411 0 l0 207 l411 0 l0 223 l-411 0 l0 207 l411 0 Z" /><glyph glyph-name="Gbar" unicode="&#x1e4;" d="M835 274 q-21 0 -21 25 l0 76 q0 25 21 25 l321 0 q-2 38 -14.5 67.5 q-12.5 29.5 -40.5 50 q-28 20.5 -75 31.5 q-47 11 -117 11 q-6 0 -8.5 11.5 q-2.5 11.5 -2.5 19.5 q0 5 2.5 17 q2.5 12 8.5 12 l696 0 q8 0 9.5 -11.5 q1.5 -11.5 1.5 -17.5 q0 -5 -2 -16 q-2 -11 -9 -15 q-27 -11 -55.5 -19 q-28.5 -8 -52.5 -21 q-24 -13 -39.5 -35.5 q-15.5 -22.5 -15.5 -61.5 l0 -23 l155 0 q9 0 15 -7 q6 -7 6 -18 l0 -76 q0 -11 -6 -18 q-6 -7 -15 -7 l-155 0 l0 -143 q0 -8 -6.5 -13 q-6.5 -5 -20.5 -11 q-56 -27 -127 -51 q-71 -24 -146 -42.5 q-75 -18.5 -149 -29.5 q-74 -11 -135 -11 q-155 0 -290 51.5 q-135 51.5 -236 148 q-101 96.5 -159 234.5 q-58 138 -58 310 q0 101 27 194 q27 93 76 174.5 q49 81.5 117.5 148 q68.5 66.5 150.5 114.5 q82 48 175.5 74 q93.5 26 192.5 26 q53 0 108 -6.5 q55 -6.5 107.5 -16.5 q52.5 -10 99.5 -22 q47 -12 82.5 -22 q35.5 -10 58 -16.5 q22.5 -6.5 25.5 -6.5 l12 0 q8 0 12.5 1.5 q4.5 1.5 8 3.5 q3.5 2 7.5 3.5 q4 1.5 12 1.5 l40 0 q2 0 6.5 -1.5 q4.5 -1.5 4.5 -9.5 l0 -333 q0 -11 -9.5 -15 q-9.5 -4 -16.5 -4 q-9 1 -16 10 q-7 9 -13 20 q-6 11 -10 21 q-4 10 -5 15 q-25 78 -70.5 131.5 q-45.5 53.5 -107 87.5 q-61.5 34 -135 49 q-73.5 15 -154.5 15 q-139 0 -232 -51 q-93 -51 -149.5 -137 q-56.5 -86 -80 -198.5 q-23.5 -112.5 -23.5 -236.5 q0 -85 17 -167 q17 -82 48.5 -155.5 q31.5 -73.5 76.5 -135 q45 -61.5 100.5 -106 q55.5 -44.5 120 -69.5 q64.5 -25 136.5 -25 q81 0 142.5 17.5 q61.5 17.5 99.5 68.5 l0 115 l-322 0 l0 0 Z" /><glyph glyph-name="gbar" unicode="&#x1e5;" d="M23 -356 q-25 0 -25 25 l0 76 q0 25 25 25 l161 0 q20 15 40.5 29.5 q20.5 14.5 40 30.5 q19.5 16 37 33.5 q17.5 17.5 31.5 37.5 q-53 7 -96.5 25 q-43.5 18 -74 42 q-30.5 24 -47.5 52.5 q-17 28.5 -17 57.5 q0 27 14.5 47 q14.5 20 38 35.5 q23.5 15.5 53.5 28.5 q30 13 62 25 q20 8 42.5 17.5 q22.5 9.5 46.5 26.5 q-119 48 -180 125 q-61 77 -61 178 q0 80 36 150 q36 70 99 121.5 q63 51.5 148.5 81 q85.5 29.5 184.5 29.5 q96 0 172 -25 q76 -25 127 -73 q63 2 120.5 7 q57.5 5 123.5 5 q23 0 37.5 -1.5 q14.5 -1.5 22.5 -5 q8 -3.5 12 -9 q4 -5.5 6 -13.5 q7 -25 10 -45 q3 -20 3 -41 q0 -17 -12.5 -22.5 q-12.5 -5.5 -50.5 -5.5 l-183 0 q14 -23 27.5 -54 q13.5 -31 13.5 -79 q0 -69 -31 -134.5 q-31 -65.5 -91 -115.5 q-60 -50 -146.5 -80.5 q-86.5 -30.5 -197.5 -30.5 q-34 0 -55 2.5 q-21 2.5 -44 8.5 q-14 -12 -35 -21.5 q-21 -9.5 -41 -21.5 q-20 -12 -34 -27.5 q-14 -15.5 -14 -39.5 q0 -42 73.5 -60.5 q73.5 -18.5 237.5 -19.5 q125 -1 227.5 -7 q102.5 -6 175.5 -31.5 q73 -25.5 113 -79 q40 -53.5 40 -149.5 l0 -4 l69 0 q25 0 25 -25 l0 -76 q0 -25 -25 -25 l-111 0 q-32 -53 -89 -103.5 q-57 -50.5 -139.5 -91 q-82.5 -40.5 -191 -65 q-108.5 -24.5 -243.5 -24.5 q-105 0 -183 20.5 q-78 20.5 -129 54.5 q-51 34 -76.5 77.5 q-25.5 43.5 -25.5 89.5 q0 22 6 42 l-53 0 ZM771 559 q0 77 -16 137.5 q-16 60.5 -45.5 102 q-29.5 41.5 -69.5 63 q-40 21.5 -88 21.5 q-29 0 -63.5 -11.5 q-34.5 -11.5 -64.5 -42 q-30 -30.5 -50 -83.5 q-20 -53 -20 -136 q0 -53 12 -111 q12 -58 38.5 -107 q26.5 -49 68.5 -80.5 q42 -31.5 102 -31.5 q45 0 81 20.5 q36 20.5 61.5 57 q25.5 36.5 39.5 88 q14 51.5 14 113.5 ZM621 -554 q57 0 111 15.5 q54 15.5 99.5 42 q45.5 26.5 81 62.5 q35.5 36 54.5 78 l-663 0 q10 -38 39 -73.5 q29 -35.5 71 -63 q42 -27.5 95 -44.5 q53 -17 112 -17 ZM443 -116 q-13 -14 -28.5 -27.5 q-15.5 -13.5 -31.5 -27 q-16 -13.5 -31 -28 q-15 -14.5 -27 -31.5 l657 0 q-12 47 -47 71 q-35 24 -79 28 q-21 2 -70 3.5 q-49 1.5 -110 3.5 q-37 1 -73 1.5 q-36 0.5 -66.5 1.5 q-30.5 1 -55 2 q-24.5 1 -38.5 3 Z" /><glyph glyph-name="uni01F6" unicode="&#x1f6;" d="M1262 632 q0 10 -3 13 q-3 3 -13 3 l-698 0 q-10 0 -13 -3 q-3 -3 -3 -13 l0 -442 q0 -34 15 -57 q15 -23 39.5 -37 q24.5 -14 56.5 -20 q32 -6 66 -6 q6 0 7 -3 q1 -3 1 -5 l0 -54 q0 -2 -1 -5 q-1 -3 -6 -3 l-642 0 q-5 0 -6.5 3 q-1.5 3 -1.5 5 l0 54 q0 2 1.5 5 q1.5 3 6.5 3 q31 0 62.5 4.5 q31.5 4.5 57.5 19.5 q26 15 42.5 43 q16.5 28 16.5 76 l0 1002 q0 34 -11 57 q-11 23 -31 37.5 q-20 14.5 -48 21.5 q-28 7 -62 9 q-8 0 -8 8 l0 54 q0 8 7 8 l592 0 q5 0 6.5 -3 q1.5 -3 1.5 -5 l0 -54 q0 -6 -8 -6 q-30 0 -58 -5.5 q-28 -5.5 -49 -20.5 q-21 -15 -34 -42.5 q-13 -27.5 -13 -72.5 l0 -412 q0 -10 3 -13 q3 -3 13 -3 l698 0 q10 0 13 3 q3 3 3 13 l0 428 q0 35 -22 58 q-22 23 -55.5 36.5 q-33.5 13.5 -72.5 20 q-39 6.5 -72 8.5 q-8 0 -8 8 l0 54 q0 8 7 8 l667 0 q5 0 6.5 -3 q1.5 -3 1.5 -5 l0 -54 q0 -6 -8 -6 q-30 0 -58.5 -5.5 q-28.5 -5.5 -51 -20.5 q-22.5 -15 -36 -42.5 q-13.5 -27.5 -13.5 -72.5 l0 -1001 q0 -27 12.5 -51.5 q12.5 -24.5 38.5 -43.5 q26 -19 66 -30.5 q40 -11.5 96 -11.5 q47 0 86 20 q39 20 69.5 52.5 q30.5 32.5 53 73 q22.5 40.5 37 81.5 q14.5 41 21.5 78.5 q7 37.5 7 63.5 q0 64 -4 116 q-4 52 -20.5 95.5 q-16.5 43.5 -49 80 q-32.5 36.5 -89.5 70.5 q-11 6 -24 12 q-13 6 -13 20 q0 18 18 36 q18 18 43 32.5 q25 14.5 51.5 23 q26.5 8.5 43.5 8.5 q55 0 105 -35 q50 -35 87 -92.5 q37 -57.5 59 -132.5 q22 -75 22 -154 q0 -83 -21 -155.5 q-21 -72.5 -57 -132.5 q-36 -60 -84.5 -106.5 q-48.5 -46.5 -103.5 -79 q-55 -32.5 -114 -49 q-59 -16.5 -116 -16.5 q-98 0 -189.5 9.5 q-91.5 9.5 -161.5 37 q-70 27.5 -112 78 q-42 50.5 -42 132.5 l0 402 l0 0 Z" /><glyph glyph-name="uni01F7" unicode="&#x1f7;" d="M214 1220 q0 34 -10.5 57 q-10.5 23 -30 37 q-19.5 14 -48 20 q-28.5 6 -63.5 6 q-8 0 -8 8 l0 54 q0 8 8 8 l415 0 q5 0 6.5 -3 q1.5 -3 1.5 -5 l0 -159 q0 -5 5 -9 q5 -4 9 -4 q5 0 11.5 2.5 q6.5 2.5 10.5 5.5 q48 30 87 55 q39 25 76 43 q37 18 75 28 q38 10 85 10 q93 0 167 -25 q74 -25 125 -76 q51 -51 78.5 -128.5 q27.5 -77.5 27.5 -181.5 q0 -70 -38 -151.5 q-38 -81.5 -98.5 -165.5 q-60.5 -84 -135 -167 q-74.5 -83 -148 -157 q-73.5 -74 -137.5 -135 q-64 -61 -102 -101 q-45 -46 -71.5 -87 q-26.5 -41 -26.5 -84 l0 -177 q0 -46 -28 -81.5 q-28 -35.5 -90 -63.5 q-17 -8 -47.5 -22 q-30.5 -14 -66.5 -30.5 q-36 -16.5 -73 -34 q-37 -17.5 -67 -31.5 q-30 -14 -49.5 -23 q-19.5 -9 -19.5 -9 q-9 0 -9 8 l0 50 q0 6 2.5 9 q2.5 3 7.5 5 q37 15 68 30.5 q31 15.5 53.5 37.5 q22.5 22 35 54 q12.5 32 12.5 80 l0 1503 ZM485 238 q0 -45 0.5 -68.5 q0.5 -23.5 0.5 -22.5 q12 0 38.5 25 q26.5 25 62.5 68 q36 43 78.5 100.5 q42.5 57.5 84.5 122.5 q42 65 81 134.5 q39 69.5 69.5 136.5 q30.5 67 48.5 127.5 q18 60.5 18 107.5 q0 148 -50.5 215.5 q-50.5 67.5 -167.5 67.5 q-47 -6 -94 -22 q-47 -16 -85 -38.5 q-38 -22.5 -61.5 -49 q-23.5 -26.5 -23.5 -53.5 l0 -851 Z" /><glyph glyph-name="Aringacute" unicode="&#x1fa;" d="M648 1826 q0 3 3 6 l226 182 q15 13 29.5 18.5 q14.5 5.5 26.5 5.5 q12 0 23 -7.5 q11 -7.5 19 -18.5 q8 -11 13 -24 q5 -13 5 -24 q0 -29 -18.5 -50 q-18.5 -21 -41.5 -31 l-253 -110 q0 -1 -3 -1 q-5 0 -7 4 l-22 50 ZM603 1600 q0 30 11.5 57 q11.5 27 31.5 47.5 q20 20.5 47 32 q27 11.5 57 11.5 q30 0 56.5 -11.5 q26.5 -11.5 47 -32 q20.5 -20.5 32 -47.5 q11.5 -27 11.5 -57 q0 -30 -11.5 -57 q-11.5 -27 -32 -47 q-20.5 -20 -47 -31.5 q-26.5 -11.5 -56.5 -11.5 q-30 0 -57 11.5 q-27 11.5 -47 31.5 q-20 20 -31.5 47 q-11.5 27 -11.5 57 ZM680 1600 q0 -29 20.5 -49.5 q20.5 -20.5 49.5 -20.5 q29 0 49.5 20.5 q20.5 20.5 20.5 49.5 q0 29 -20.5 49.5 q-20.5 20.5 -49.5 20.5 q-29 0 -49.5 -20.5 q-20.5 -20.5 -20.5 -49.5 ZM5 47 q0 8 8 8 q19 1 44.5 5.5 q25.5 4.5 52 19 q26.5 14.5 51.5 43 q25 28.5 42 78.5 l402 1166 q0 -1 0.5 1 q0.5 2 0.5 4 q0 7 -5.5 17.5 q-5.5 10.5 -5.5 15.5 q0 5 4 5 l290 0 q2 -1 5.5 -2 q3.5 -1 5.5 -6 l423 -1187 q10 -28 19 -48 q9 -20 21.5 -35.5 q12.5 -15.5 31.5 -28 q19 -12.5 49 -25.5 q14 -7 38 -15 q24 -8 46 -8 q5 0 6.5 -3 q1.5 -3 1.5 -6 l0 -38 q0 -2 -1.5 -5 q-1.5 -3 -6.5 -3 l-702 0 q-5 0 -6.5 3 q-1.5 3 -1.5 5 l0 39 q0 2 1.5 5 q1.5 3 6.5 3 q4 0 8 0.5 q4 0.5 6 0.5 q11 1 31.5 2 q20.5 1 44.5 3.5 q24 2.5 48.5 8 q24.5 5.5 44.5 16 q20 10.5 33 27.5 q13 17 13 42 q0 6 -2 14 l-131 361 q-1 2 -3.5 9 q-2.5 7 -8 14.5 q-5.5 7.5 -14 13.5 q-8.5 6 -20.5 6 l-361 0 q-13 0 -22 -6 q-9 -6 -15 -13 q-6 -7 -9.5 -14 q-3.5 -7 -3.5 -8 q-32 -94 -54 -158.5 q-22 -64.5 -36.5 -106.5 q-14.5 -42 -22.5 -65 q-8 -23 -11.5 -33.5 q-3.5 -10.5 -4 -13 q-0.5 -2.5 -0.5 -2.5 q0 -3 1 -6.5 q1 -3.5 2 -6.5 q8 -25 29.5 -41.5 q21.5 -16.5 49.5 -26 q28 -9.5 57.5 -13.5 q29.5 -4 52.5 -4 l26 0 q5 0 6.5 -3 q1.5 -3 1.5 -5 l0 -39 q0 -2 -1.5 -5 q-1.5 -3 -6.5 -3 l-541 0 q-8 0 -8 8 l0 39 ZM529 717 q-2 -5 -3 -10 q-1 -5 -1 -10 q0 -6 3 -9.5 q3 -3.5 12 -3.5 l300 0 q11 0 14.5 4.5 q3.5 4.5 3.5 10.5 q0 5 -1 9 q-1 4 -3 9 l-133 365 q-5 14 -15 20.5 q-10 6.5 -18 6.5 q-8 0 -18 -7.5 q-10 -7.5 -15 -20.5 l-126 -364 Z" /><glyph glyph-name="uni021C" unicode="&#x21c;" d="M128 -27 q-9 0 -14.5 6.5 q-5.5 6.5 -7.5 15.5 q-2 9 -2.5 18 q-0.5 9 -0.5 15 q0 12 2.5 27 q2.5 15 16.5 15 q51 0 113.5 10 q62.5 10 126 30 q63.5 20 123.5 50.5 q60 30.5 106.5 72 q46.5 41.5 74.5 93.5 q28 52 28 116 q0 65 -13 109 q-13 44 -36 71 q-23 27 -53.5 39 q-30.5 12 -64.5 12 q-53 0 -110 -22.5 q-57 -22.5 -105 -54.5 q-5 0 -11 4.5 q-6 4.5 -11.5 11 q-5.5 6.5 -9.5 13.5 q-4 7 -4 12 q0 6 5 20.5 q5 14.5 16 21.5 q75 43 135.5 94 q60.5 51 102.5 109 q42 58 64.5 120.5 q22.5 62.5 22.5 127.5 q0 44 -10 80 q-10 36 -29 62 q-19 26 -45 40.5 q-26 14.5 -57 14.5 q-62 0 -104.5 -22 q-42.5 -22 -69 -59.5 q-26.5 -37.5 -38.5 -88 q-12 -50.5 -12 -107.5 q0 -8 -8 -8 l-105 0 q-8 0 -8 8 l0 397 q0 6 8 6 l97 0 q8 0 8 -6 q0 -8 4.5 -18 q4.5 -10 12.5 -18 q8 -8 18 -13.5 q10 -5.5 22 -5.5 q25 0 42.5 10 q17.5 10 41.5 21.5 q24 11.5 61 21.5 q37 10 101 10 q93 0 157.5 -21.5 q64.5 -21.5 104 -58 q39.5 -36.5 57 -84.5 q17.5 -48 17.5 -102 q0 -44 -20.5 -93 q-20.5 -49 -46 -92.5 q-25.5 -43.5 -48.5 -74 q-23 -30.5 -29 -36.5 q-9 -9 -9 -22 q0 -8 5 -16 q5 -8 19 -16 q39 -26 77.5 -60 q38.5 -34 69.5 -73 q31 -39 50 -82.5 q19 -43.5 19 -89.5 q0 -106 -31.5 -189 q-31.5 -83 -88.5 -145 q-57 -62 -135.5 -105.5 q-78.5 -43.5 -172.5 -70.5 q-94 -27 -200.5 -39 q-106.5 -12 -218.5 -12 Z" /><glyph glyph-name="uni021D" unicode="&#x21d;" d="M100 547 q-4 0 -13.5 0.5 q-9.5 0.5 -10.5 3.5 l0 384 q0 9 13.5 10.5 q13.5 1.5 22.5 1.5 q9 0 15.5 -13 q6.5 -13 14 -28.5 q7.5 -15.5 17.5 -28.5 q10 -13 27 -13 q34 0 71.5 13 q37.5 13 79 28.5 q41.5 15.5 87 28.5 q45.5 13 95.5 13 q82 0 139 -28 q57 -28 92.5 -68 q35.5 -40 51.5 -83.5 q16 -43.5 16 -74.5 q0 -48 -10.5 -85 q-10.5 -37 -29 -67.5 q-18.5 -30.5 -43 -56.5 q-24.5 -26 -53.5 -51.5 q-29 -25.5 -61 -52.5 q-32 -27 -64 -59 q-4 -4 -4 -6 q0 -5 7 -6.5 q7 -1.5 14 -1.5 q79 0 146 -27 q67 -27 116.5 -75.5 q49.5 -48.5 77.5 -116 q28 -67.5 28 -149.5 q0 -88 -24 -165 q-24 -77 -66.5 -141.5 q-42.5 -64.5 -101 -115 q-58.5 -50.5 -127 -85.5 q-68.5 -35 -145 -53.5 q-76.5 -18.5 -154.5 -18.5 q-12 0 -38.5 0.5 q-26.5 0.5 -60 4 q-33.5 3.5 -69 10.5 q-35.5 7 -64.5 19 q-29 12 -48 30.5 q-19 18.5 -19 45.5 q0 35 24 58.5 q24 23.5 61 23.5 q14 0 25 -6.5 q11 -6.5 22.5 -15.5 q11.5 -9 26.5 -20.5 q15 -11.5 37.5 -20.5 q22.5 -9 55 -15.5 q32.5 -6.5 79.5 -6.5 q64 0 125.5 34 q61.5 34 110 91.5 q48.5 57.5 78 133.5 q29.5 76 29.5 161 q0 90 -27.5 145.5 q-27.5 55.5 -72.5 86.5 q-45 31 -102 42 q-57 11 -116 11 q-30 0 -55.5 -3 q-25.5 -3 -49.5 -8 q-24 -5 -49 -11 q-25 -6 -55 -12 q-5 0 -9.5 4.5 q-4.5 4.5 -7.5 11.5 q-3 7 -4.5 14 q-1.5 7 -1.5 12 q0 5 3 15 q3 10 22 18 q94 39 170.5 83 q76.5 44 130.5 94.5 q54 50.5 83 106.5 q29 56 29 119 q0 62 -13 101 q-13 39 -35.5 61 q-22.5 22 -54.5 31 q-32 9 -69 11 q-33 0 -64.5 -4 q-31.5 -4 -60 -15 q-28.5 -11 -52.5 -30 q-24 -19 -42 -50 q-12 -21 -21 -51 q-9 -30 -19 -57 q-10 -27 -22.5 -46.5 q-12.5 -19.5 -33.5 -19.5 Z" /><glyph glyph-name="uni0222" unicode="&#x222;" d="M742 -27 q-124 0 -231.5 33 q-107.5 33 -187 91 q-79.5 58 -125 136.5 q-45.5 78.5 -45.5 170.5 q0 78 28 143.5 q28 65.5 77.5 117 q49.5 51.5 118.5 88 q69 36.5 152 57.5 q-71 21 -115.5 58 q-44.5 37 -72 82.5 q-27.5 45.5 -41.5 97 q-14 51.5 -23 102.5 q-6 33 -8.5 67 q-2.5 34 -5 63 q-2.5 29 -7.5 51 q-5 22 -17 31 q-14 9 -36 12.5 q-22 3.5 -42.5 5 q-20.5 1.5 -35.5 4.5 q-15 3 -15 12 q0 8 6 12 q6 4 16 7 q87 24 135.5 37 q48.5 13 72.5 19 q24 6 30 7 q6 1 8 1 q22 0 34 -24 q12 -24 19 -64 q7 -40 12 -92 q5 -52 12 -108 q7 -56 19.5 -112.5 q12.5 -56.5 34.5 -105.5 q24 -54 63.5 -91 q39.5 -37 97.5 -50 q34 3 72 3 q29 0 61 -3 q52 11 88 37 q36 26 60 63.5 q24 37.5 37 83.5 q13 46 19 96 q6 51 9.5 94 q3.5 43 5.5 82 q2 39 2.5 76 q0.5 37 0.5 76 q0 13 26 18 q31 6 54.5 10.5 q23.5 4.5 43 7 q19.5 2.5 36.5 3.5 q17 1 35 1 q11 0 11 -9 q0 -37 -3.5 -83.5 q-3.5 -46.5 -10 -96.5 q-6.5 -50 -16 -101.5 q-9.5 -51.5 -22 -98 q-12.5 -46.5 -28.5 -86 q-16 -39.5 -34 -66.5 q-27 -38 -70.5 -71.5 q-43.5 -33.5 -109.5 -55.5 q84 -20 154.5 -57.5 q70.5 -37.5 121 -90 q50.5 -52.5 78.5 -118 q28 -65.5 28 -142.5 q0 -92 -45 -171 q-45 -79 -123 -137 q-78 -58 -183 -90.5 q-105 -32.5 -226 -32.5 ZM1109 404 q0 67 -23.5 134 q-23.5 67 -70 120.5 q-46.5 53.5 -115 86.5 q-68.5 33 -158.5 33 q-102 0 -174 -34 q-72 -34 -117.5 -87.5 q-45.5 -53.5 -66.5 -120 q-21 -66.5 -21 -132.5 q0 -70 21.5 -137.5 q21.5 -67.5 67 -120 q45.5 -52.5 117.5 -85 q72 -32.5 173 -32.5 q88 0 156.5 34 q68.5 34 115.5 88 q47 54 71 120.5 q24 66.5 24 132.5 Z" /><glyph glyph-name="uni0223" unicode="&#x223;" d="M558 -28 q-102 0 -190 37 q-88 37 -153 101.5 q-65 64.5 -102.5 152 q-37.5 87.5 -37.5 188.5 q0 87 23 160 q23 73 63.5 130 q40.5 57 97 97.5 q56.5 40.5 124.5 63.5 q-57 24 -94 65 q-37 41 -59.5 91.5 q-22.5 50.5 -34 107.5 q-11.5 57 -18.5 114 q-5 36 -6.5 74 q-1.5 38 -4 71 q-2.5 33 -7 57.5 q-4.5 24.5 -13.5 33.5 q-12 10 -30 13.5 q-18 3.5 -35 5.5 q-17 2 -29 5 q-12 3 -12 14 q0 8 5 12.5 q5 4.5 13 7.5 q71 27 111 41.5 q40 14.5 59.5 21.5 q19.5 7 24.5 8 q5 1 7 1 q17 0 27 -26.5 q10 -26.5 16 -71 q6 -44.5 10 -102.5 q4 -58 10 -120.5 q6 -62.5 16 -125.5 q10 -63 28 -117 q20 -60 52 -101 q32 -41 80 -55 q28 3 59 3 q24 0 50 -3 q43 12 72.5 41 q29.5 29 49 70.5 q19.5 41.5 30 92.5 q10.5 51 15.5 107 q5 57 8 104.5 q3 47.5 4.5 91 q1.5 43.5 2 84.5 q0.5 41 0.5 84 q0 16 21 21 q52 9 79.5 14 q27.5 5 41.5 7 q15 3 18 3 q9 0 9 -10 q-5 -40 -9.5 -91.5 q-4.5 -51.5 -9.5 -107.5 q-5 -56 -12 -113 q-7 -57 -16 -109.5 q-9 -52.5 -20.5 -96.5 q-11.5 -44 -26.5 -73 q-22 -43 -57.5 -80 q-35.5 -37 -89.5 -61 q69 -23 126.5 -64.5 q57.5 -41.5 99 -99.5 q41.5 -58 64.5 -131.5 q23 -73.5 23 -158.5 q0 -102 -37 -190 q-37 -88 -101 -152 q-64 -64 -150 -100.5 q-86 -36.5 -185 -36.5 ZM859 451 q0 75 -19.5 149.5 q-19.5 74.5 -57.5 134 q-38 59.5 -94 96 q-56 36.5 -130 36.5 q-84 0 -143 -37.5 q-59 -37.5 -96.5 -97.5 q-37.5 -60 -54.5 -134 q-17 -74 -17 -147 q0 -78 17.5 -152.5 q17.5 -74.5 55.5 -133 q38 -58.5 96.5 -94.5 q58.5 -36 141.5 -36 q72 0 128.5 37.5 q56.5 37.5 94.5 97.5 q38 60 58 134 q20 74 20 147 Z" /><glyph glyph-name="uni0224" unicode="&#x224;" d="M77 43 q0 11 4 22.5 q4 11.5 12 20.5 l905 1171 q4 5 4 10 q0 8 -7 9 q-7 1 -13 1 l-499 0 q-23 0 -48.5 -6.5 q-25.5 -6.5 -48 -19 q-22.5 -12.5 -40.5 -31 q-18 -18.5 -25 -43.5 q-4 -11 -10.5 -41.5 q-6.5 -30.5 -18.5 -91.5 q-2 -10 -16 -14.5 q-14 -4.5 -31 -4.5 q-3 0 -8.5 0 q-5.5 0 -11 1 q-5.5 1 -10.5 2 q-5 1 -6 3 l15 345 q0 3 1 10.5 q1 7.5 3 12.5 q3 8 11 10 q4 1 8 1 l1124 0 q3 0 5.5 -5 q2.5 -5 5 -11.5 q2.5 -6.5 4 -14 q1.5 -7.5 1.5 -12.5 q0 -21 -13 -40 l-870 -1125 q-3 -5 -11.5 -17 q-8.5 -12 -8.5 -20 q0 -14 16 -20.5 q16 -6.5 30 -6.5 l656 0 q45 0 98.5 -7 q53.5 -7 99 -30 q45.5 -23 76 -66 q30.5 -43 30.5 -114 q0 -51 -16.5 -102.5 q-16.5 -51.5 -45 -97.5 q-28.5 -46 -66.5 -85.5 q-38 -39.5 -80 -66.5 l-132 0 q72 67 109 148.5 q37 81.5 37 167.5 q0 21 -3.5 42 q-3.5 21 -13.5 37 q-10 16 -27 26 q-17 10 -45 10 l-1092 0 q-13 0 -20.5 4.5 q-7.5 4.5 -11.5 11.5 q-4 7 -5 14.5 q-1 7.5 -1 12.5 Z" /><glyph glyph-name="uni0225" unicode="&#x225;" d="M62 20 q0 8 0.5 12 q0.5 4 5.5 13 l493 671 q10 14 17.5 24 q7.5 10 7.5 25 q1 3 -13 4.5 q-14 1.5 -35 2.5 q-21 1 -44 1.5 q-23 0.5 -39 0.5 l-165 0 q-34 0 -57 -15 q-23 -15 -39.5 -37.5 q-16.5 -22.5 -27.5 -49 q-11 -26.5 -20 -49 q-9 -22.5 -17.5 -37.5 q-8.5 -15 -20.5 -15 q-3 0 -14 0.5 q-11 0.5 -11 3.5 l60 353 q2 9 15 10.5 q13 1.5 21 1.5 q7 0 13.5 -7 q6.5 -7 14 -15.5 q7.5 -8.5 16.5 -15.5 q9 -7 22 -7 q15 0 39.5 -1.5 q24.5 -1.5 62 -3 q37.5 -1.5 90.5 -2.5 q53 -1 127 -1 q30 0 70.5 0.5 q40.5 0.5 87 1.5 q46.5 1 96.5 2 q50 1 98 2 q6 -2 8 -9 q2 -7 2 -14 q0 -2 -5 -16.5 q-5 -14.5 -11 -19.5 l-506 -688 q-4 -6 -7.5 -11 q-3.5 -5 -3.5 -12 q0 -5 0.5 -6.5 q0.5 -1.5 5.5 -1.5 l377 0 q107 0 167 -54.5 q60 -54.5 60 -170.5 q0 -46 -19.5 -94 q-19.5 -48 -49.5 -92 q-30 -44 -67 -82 q-37 -38 -72 -63 l-112 0 q35 29 65 66 q30 37 52.5 78 q22.5 41 35 83.5 q12.5 42.5 12.5 81.5 q0 28 -7.5 52 q-7.5 24 -22.5 42 q-15 18 -36 28 q-21 10 -48 10 l-650 0 q-22 0 -22 20 Z" /><glyph glyph-name="uni0237" unicode="&#x237;" d="M415 937 q4 2 8.5 4 q4.5 2 6.5 2 q17 0 17 -24 l0 -1026 q0 -126 -36 -221.5 q-36 -95.5 -102 -160.5 q-66 -65 -159.5 -98 q-93.5 -33 -207.5 -33 q-36 0 -70 11 q-34 11 -60.5 29 q-26.5 18 -42.5 41 q-16 23 -16 47 q0 15 5 31 q5 16 15 28.5 q10 12.5 25 20.5 q15 8 35 8 q6 0 12.5 -1.5 q6.5 -1.5 21 -9.5 q14.5 -8 39.5 -26 q25 -18 68 -51 q13 -11 26 -17 q13 -6 28 -9 q15 -3 34.5 -4 q19.5 -1 46.5 -1 q35 0 56 24.5 q21 24.5 32 59.5 q11 35 14.5 74 q3.5 39 3.5 68 l0 958 q0 24 -13 37.5 q-13 13.5 -33 20.5 q-20 7 -43 11.5 q-23 4.5 -44 10.5 q-6 2 -9.5 5.5 q-3.5 3.5 -3.5 14.5 q0 5 3 10 q3 5 12 10 l331 156 Z" /><glyph glyph-name="uni0250" unicode="&#x250;" d="M530 896 q33 23 78 36 q45 13 90 13 q122 0 185.5 -55 q63.5 -55 63.5 -149 q0 -54 -24.5 -93 q-24.5 -39 -72.5 -69 q-48 -30 -118.5 -54.5 q-70.5 -24.5 -163.5 -48.5 q-50 -13 -80.5 -28 q-30.5 -15 -56.5 -29 q-17 -9 -19.5 -16 q-2.5 -7 -2.5 -13 l0 -174 q0 -33 9.5 -61.5 q9.5 -28.5 28.5 -49.5 q19 -21 45.5 -33 q26.5 -12 61.5 -12 q29 0 54 10 q25 10 43 29 q18 19 28.5 45 q10.5 26 10.5 59 q0 3 -0.5 9 q-0.5 6 -1.5 12.5 q-1 6.5 -2 11.5 q-1 5 -1 6 q1 2 16.5 8 q15.5 6 38 13.5 q22.5 7.5 49.5 15 q27 7.5 51.5 14.5 q24.5 7 43 12 q18.5 5 25.5 7 q11 0 13.5 -11.5 q2.5 -11.5 2.5 -22.5 q0 -58 -35.5 -113 q-35.5 -55 -94 -97.5 q-58.5 -42.5 -134 -68.5 q-75.5 -26 -156.5 -26 q-72 0 -129 18.5 q-57 18.5 -97 51 q-40 32.5 -61 75 q-21 42.5 -21 90.5 l0 477 q0 26 -19.5 46.5 q-19.5 20.5 -50.5 20.5 q-18 0 -33 -6.5 q-15 -6.5 -26 -15 q-11 -8.5 -19 -15 q-8 -6.5 -14 -6.5 q-8 0 -9 6.5 q-1 6.5 -1 11.5 q0 17 4.5 34.5 q4.5 17.5 15.5 25.5 q49 37 87 66.5 q38 29.5 68.5 50.5 q30.5 21 55.5 32 q25 11 48 11 q20 0 35.5 -11 q15.5 -11 27 -27 q11.5 -16 19.5 -34.5 q8 -18.5 13.5 -34.5 q5.5 -16 8.5 -26 q3 -10 5 -9 l117 91 ZM714 717 q0 27 -10.5 44 q-10.5 17 -27.5 26 q-17 9 -38.5 12.5 q-21.5 3.5 -44.5 3.5 q-21 0 -52 -10.5 q-31 -10.5 -60.5 -28 q-29.5 -17.5 -50.5 -40 q-21 -22.5 -21 -45.5 l0 -165 q0 -11 8 -11 q2 0 4 1 l232 108 q14 10 25.5 18.5 q11.5 8.5 19.5 19.5 q8 11 12 27 q4 16 4 40 Z" /><glyph glyph-name="uni0251" unicode="&#x251;" d="M414 -29 q-19 0 -55 5 q-36 5 -79.5 23 q-43.5 18 -88.5 51 q-45 33 -82 90 q-37 57 -60.5 140 q-23.5 83 -23.5 200 q0 123 31 208 q31 85 82.5 138.5 q51.5 53.5 119 77 q67.5 23.5 140.5 23.5 q69 0 139.5 -8.5 q70.5 -8.5 128.5 -34.5 l134 28 l0 -747 q0 -26 24.5 -41.5 q24.5 -15.5 55.5 -15.5 q18 0 31 5 q13 5 22.5 11.5 q9.5 6.5 16 11.5 q6.5 5 12.5 5 q8 0 9 -6.5 q1 -6.5 1 -11.5 q0 -17 -4.5 -24.5 q-4.5 -7.5 -15.5 -15.5 l-107 -78 q-17 -13 -44 -22.5 q-27 -9.5 -52 -9.5 q-21 0 -36 11 q-15 11 -26.5 27 q-11.5 16 -19.5 34.5 q-8 18.5 -13.5 34.5 q-5.5 16 -8.5 26 q-3 10 -5 9 l-104 -99 q-17 -11 -29.5 -19 q-12.5 -8 -25.5 -14 q-13 -6 -29 -9 q-16 -3 -38 -3 ZM644 664 q0 39 -12.5 77 q-12.5 38 -41.5 68 q-29 30 -78 48.5 q-49 18.5 -122 18.5 q-36 0 -65.5 -17 q-29.5 -17 -52 -46 q-22.5 -29 -38.5 -67.5 q-16 -38.5 -26.5 -82 q-10.5 -43.5 -15.5 -89.5 q-5 -46 -5 -89 q0 -39 7.5 -84.5 q7.5 -45.5 22 -91 q14.5 -45.5 34.5 -88 q20 -42.5 46 -75 q26 -32.5 57 -52 q31 -19.5 66 -19.5 q36 0 75.5 10.5 q39.5 10.5 72.5 28 q33 17.5 54.5 40 q21.5 22.5 21.5 45.5 l0 465 Z" /><glyph glyph-name="uni0252" unicode="&#x252;" d="M583 927 q19 0 55 -5 q36 -5 79.5 -23 q43.5 -18 88.5 -51 q45 -33 82 -90 q37 -57 60.5 -140 q23.5 -83 23.5 -200 q0 -123 -31 -208 q-31 -85 -83 -138.5 q-52 -53.5 -119 -77 q-67 -23.5 -140 -23.5 q-69 0 -139.5 8.5 q-70.5 8.5 -128.5 34.5 l-134 -28 l0 747 q0 26 -24.5 41.5 q-24.5 15.5 -55.5 15.5 q-18 0 -31 -5 q-13 -5 -22.5 -11.5 q-9.5 -6.5 -16 -11.5 q-6.5 -5 -12.5 -5 q-8 0 -9 6.5 q-1 6.5 -1 11.5 q0 17 4.5 24.5 q4.5 7.5 15.5 15.5 l107 78 q17 13 44 22.5 q27 9.5 52 9.5 q20 0 35.5 -11 q15.5 -11 27 -27 q11.5 -16 19.5 -34.5 q8 -18.5 13.5 -34.5 q5.5 -16 8.5 -26 q3 -10 5 -9 l104 99 q16 10 29 18.5 q13 8.5 26 14.5 q13 6 28.5 9 q15.5 3 38.5 3 ZM353 234 q0 -39 12.5 -77 q12.5 -38 41.5 -68 q29 -30 78 -48.5 q49 -18.5 122 -18.5 q36 0 65.5 17 q29.5 17 52 46 q22.5 29 38.5 67.5 q16 38.5 26.5 82 q10.5 43.5 15.5 89.5 q5 46 5 89 q0 39 -7.5 84.5 q-7.5 45.5 -22 91 q-14.5 45.5 -34.5 88 q-20 42.5 -46 75 q-26 32.5 -57 52 q-31 19.5 -66 19.5 q-36 0 -75.5 -10.5 q-39.5 -10.5 -72.5 -28 q-33 -17.5 -54.5 -40 q-21.5 -22.5 -21.5 -45.5 l0 -465 Z" /><glyph glyph-name="uni0253" unicode="&#x253;" d="M314 837 q0 -10 2.5 -20.5 q2.5 -10.5 12.5 -10.5 q3 0 23.5 10 q20.5 10 43.5 22 q27 14 60 33 q40 17 69.5 28 q29.5 11 51.5 17 q22 6 38.5 8.5 q16.5 2.5 31.5 2.5 q79 0 142 -40 q63 -40 107.5 -104.5 q44.5 -64.5 68.5 -145.5 q24 -81 24 -162 q0 -100 -33 -191 q-33 -91 -95.5 -160 q-62.5 -69 -152 -110 q-89.5 -41 -201.5 -41 q-60 0 -105 4.5 q-45 4.5 -82.5 12 q-37.5 7.5 -72.5 17.5 q-35 10 -75 20 q-9 2 -11.5 8.5 q-2.5 6.5 -2.5 15.5 l0 1073 q0 79 29.5 140 q29.5 61 75.5 103 q46 42 100 63.5 q54 21.5 104 21.5 q50 0 96.5 -4.5 q46.5 -4.5 82.5 -18.5 q36 -14 57.5 -39.5 q21.5 -25.5 21.5 -66.5 q0 -32 -17 -53.5 q-17 -21.5 -41 -21.5 q-14 0 -29 14 q-15 14 -34 31.5 q-19 17.5 -45 31.5 q-26 14 -62 14 q-37 0 -70 -6.5 q-33 -6.5 -58 -22 q-25 -15.5 -40 -41.5 q-15 -26 -15 -64 l0 -368 ZM326 741 q-8 -5 -10 -10.5 q-2 -5.5 -2 -13.5 l0 -473 q5 -47 26.5 -83 q21.5 -36 54.5 -60.5 q33 -24.5 74.5 -37 q41.5 -12.5 85.5 -12.5 q72 0 126 34 q54 34 90.5 87 q36.5 53 55 119 q18.5 66 18.5 131 q0 66 -18 134 q-18 68 -56 123.5 q-38 55.5 -97 90.5 q-59 35 -141 35 q-55 0 -107.5 -18.5 q-52.5 -18.5 -99.5 -45.5 Z" /><glyph glyph-name="uni0255" unicode="&#x255;" d="M90 395 q1 151 39 253.5 q38 102.5 105.5 164.5 q67.5 62 159 88.5 q91.5 26.5 199.5 26.5 q32 0 68.5 -1.5 q36.5 -1.5 70.5 -9 q34 -7.5 62.5 -25 q28.5 -17.5 46.5 -48.5 q5 -8 9.5 -18 q4.5 -10 4.5 -19 q0 -38 -23.5 -54 q-23.5 -16 -57.5 -16 q-25 0 -44.5 9.5 q-19.5 9.5 -36.5 23.5 q-17 14 -32.5 30.5 q-15.5 16.5 -32.5 30.5 q-17 14 -37 23.5 q-20 9.5 -45 9.5 q-26 0 -55.5 -10.5 q-29.5 -10.5 -50.5 -24.5 q-48 -27 -81.5 -65.5 q-33.5 -38.5 -55 -84 q-21.5 -45.5 -31.5 -97 q-10 -51.5 -10 -103.5 q0 -53 8 -103 q8 -50 25 -94.5 q17 -44.5 43.5 -81.5 q26.5 -37 63.5 -63 q42 34 85.5 64.5 q43.5 30.5 88 53.5 q44.5 23 89 37 q44.5 14 87.5 14 q34 0 56 -10.5 q22 -10.5 34.5 -25.5 q12.5 -15 17 -32 q4.5 -17 4.5 -29 q0 -27 -17.5 -55 q-17.5 -28 -47.5 -54.5 q-30 -26.5 -69 -49.5 q-39 -23 -82.5 -40 q-43.5 -17 -88.5 -27 q-45 -10 -86 -10 q-70 0 -131 23 q-34 -33 -61 -63 q-27 -30 -47 -53 l-56 49 q22 22 47 47.5 q25 25.5 53 51.5 q-44 28 -79 67.5 q-35 39.5 -59 87.5 q-24 48 -37 101.5 q-13 53.5 -13 110.5 ZM761 253 q-35 0 -72.5 -11.5 q-37.5 -11.5 -75.5 -32 q-38 -20.5 -76.5 -47.5 q-38.5 -27 -75.5 -57 q54 -21 126 -21 q40 0 81 14.5 q41 14.5 74.5 36 q33.5 21.5 54.5 45 q21 23.5 21 41.5 q0 12 -6.5 18.5 q-6.5 6.5 -15.5 9.5 q-9 3 -18.5 3.5 q-9.5 0.5 -16.5 0.5 Z" /><glyph glyph-name="uni0256" unicode="&#x256;" d="M760 89 q0 10 -7 10 q-3 0 -9 -3 q-35 -20 -72 -42 q-37 -22 -75.5 -40 q-38.5 -18 -79 -29.5 q-40.5 -11.5 -82.5 -11.5 q-90 0 -156 40 q-66 40 -109 103.5 q-43 63.5 -64 143 q-21 79.5 -21 158.5 q0 98 36.5 185.5 q36.5 87.5 101 153.5 q64.5 66 151.5 105 q87 39 188 39 q31 0 61.5 -3.5 q30.5 -3.5 61.5 -12.5 q12 -3 29 -9 q17 -6 34 -6 q3 0 5 1 q1 0 3 1 l4 11 l0 516 q0 24 -13 37.5 q-13 13.5 -33 20.5 q-20 7 -43 11.5 q-23 4.5 -44 10.5 q-6 2 -9.5 5.5 q-3.5 3.5 -3.5 14.5 q0 5 3 10 q3 5 12 10 l255 120 q4 2 8.5 4 q4.5 2 6.5 2 q17 0 17 -24 l0 -1743 q0 -32 8 -56 q8 -24 20.5 -40 q12.5 -16 28.5 -24 q16 -8 32 -8 q46 0 73.5 13.5 q27.5 13.5 46 29.5 q18.5 16 31.5 29.5 q13 13.5 29 13.5 q8 0 14.5 -6 q6.5 -6 6.5 -17 q0 -8 -16.5 -35.5 q-16.5 -27.5 -46.5 -57.5 q-30 -30 -72.5 -53.5 q-42.5 -23.5 -93.5 -23.5 q-54 0 -95 20 q-41 20 -68 53.5 q-27 33.5 -40.5 76.5 q-13.5 43 -13.5 89 l0 207 ZM236 463 q0 -72 19.5 -141.5 q19.5 -69.5 59.5 -123.5 q40 -54 99.5 -87 q59.5 -33 139.5 -33 q7 0 25.5 3.5 q18.5 3.5 41.5 9 q23 5.5 47.5 13.5 q24.5 8 45 17.5 q20.5 9.5 33.5 19 q13 9.5 13 19.5 l0 516 q0 3 -2 10 q-2 7 -4 10 q-2 2 -9.5 12 q-7.5 10 -10.5 13 q-37 51 -89.5 80.5 q-52.5 29.5 -115.5 29.5 q-75 0 -130 -33 q-55 -33 -91 -85.5 q-36 -52.5 -54 -118.5 q-18 -66 -18 -131 Z" /><glyph glyph-name="uni0257" unicode="&#x257;" d="M916 197 q5 -44 25 -63 q20 -19 65 -19 l58 4 q4 0 5 -5.5 q1 -5.5 1 -11.5 q0 -2 -2.5 -5 q-2.5 -3 -12.5 -8 l-266 -110 q-2 -1 -10 -3.5 q-8 -2.5 -9 -2.5 q-7 0 -8.5 8.5 q-1.5 8.5 -1.5 16.5 l0 91 q0 10 -7 10 q-3 0 -9 -3 q-35 -20 -72 -42 q-37 -22 -75.5 -40 q-38.5 -18 -79 -29.5 q-40.5 -11.5 -82.5 -11.5 q-90 0 -156 40 q-66 40 -109 103.5 q-43 63.5 -64 143 q-21 79.5 -21 158.5 q0 98 36.5 185.5 q36.5 87.5 101 153.5 q64.5 66 151.5 105 q87 39 188 39 q31 0 61.5 -3.5 q30.5 -3.5 61.5 -12.5 q12 -3 29 -9 q17 -6 34 -6 q3 0 5 1 q1 0 3 1 l4 11 l0 271 q0 79 21.5 135.5 q21.5 56.5 57 92.5 q35.5 36 80 53 q44.5 17 90.5 17 q50 0 92 -6 q42 -6 72 -21 q30 -15 47 -40 q17 -25 17 -62 q0 -32 -17 -53.5 q-17 -21.5 -41 -21.5 q-10 0 -15.5 8 q-5.5 8 -11 20.5 q-5.5 12.5 -11.5 27 q-6 14.5 -16 27 q-10 12.5 -26 20.5 q-16 8 -40 8 q-37 0 -64 -6.5 q-27 -6.5 -44.5 -22 q-17.5 -15.5 -26 -41.5 q-8.5 -26 -8.5 -64 l0 -1028 ZM236 463 q0 -72 19.5 -141.5 q19.5 -69.5 59.5 -123.5 q40 -54 99.5 -87 q59.5 -33 139.5 -33 q7 0 25.5 3.5 q18.5 3.5 41.5 9 q23 5.5 47.5 13.5 q24.5 8 45 17.5 q20.5 9.5 33.5 19 q13 9.5 13 19.5 l0 516 q0 3 -2 10 q-2 7 -4 10 q-2 2 -9.5 12 q-7.5 10 -10.5 13 q-37 51 -89.5 80.5 q-52.5 29.5 -115.5 29.5 q-75 0 -130 -33 q-55 -33 -91 -85.5 q-36 -52.5 -54 -118.5 q-18 -66 -18 -131 Z" /><glyph glyph-name="uni0259" unicode="&#x259;" d="M945 511 q0 -117 -33 -215.5 q-33 -98.5 -95 -170.5 q-62 -72 -151.5 -112 q-89.5 -40 -203.5 -40 q-34 0 -61 4.5 q-27 4.5 -49.5 12 q-22.5 7.5 -42 18 q-19.5 10.5 -39.5 22.5 q-23 12 -52.5 43 q-29.5 31 -55.5 72 q-26 41 -44 87 q-18 46 -18 90 q0 7 1 15 q1 8 4 15 q3 7 7.5 12 q4.5 5 11.5 5 l590 0 q10 0 13.5 18 q3.5 18 3.5 44 q0 88 -25.5 156.5 q-25.5 68.5 -68.5 115.5 q-43 47 -99.5 72 q-56.5 25 -117.5 25 q-39 0 -75 -10.5 q-36 -10.5 -69 -27.5 q-33 -17 -62 -38 q-29 -21 -55 -42 q-6 -2 -8 -2 q-3 0 -8 5 q-9 8 -18 18.5 q-9 10.5 -14 17.5 q-3 3 -3 6 q0 3 4 7 q33 39 81 76.5 q48 37.5 102.5 67 q54.5 29.5 111.5 47.5 q57 18 108 18 q103 0 183 -37.5 q80 -37.5 135 -98.5 q55 -61 83.5 -138.5 q28.5 -77.5 28.5 -157.5 ZM358 292 q-26 0 -26 -23 q0 -39 12.5 -73.5 q12.5 -34.5 35.5 -61 q23 -26.5 55.5 -41.5 q32.5 -15 72.5 -15 q48 0 84 20.5 q36 20.5 61 49.5 q25 29 37.5 60 q12.5 31 12.5 53 q0 17 -5 24 q-5 7 -13 7 l-327 0 Z" /><glyph glyph-name="uni025A" unicode="&#x25a;" d="M797 272 q-23 -63 -59.5 -118 q-36.5 -55 -86 -95 q-49.5 -40 -112 -63 q-62.5 -23 -137.5 -23 q-46 0 -89 8 q-43 8 -83 33 q-15 8 -33 27 q-18 19 -35.5 43.5 q-17.5 24.5 -34 53 q-16.5 28.5 -29.5 56 q-13 27.5 -20.5 51.5 q-7.5 24 -7.5 41 q0 14 5 25.5 q5 11.5 19 11.5 l580 0 q6 0 9 12 q3 12 4.5 27 q1.5 15 2 29 q0.5 14 0.5 18 q0 35 -4 75 q-4 40 -12 74 q-13 57 -44 104 q-31 47 -74 81 q-43 34 -96 52.5 q-53 18.5 -110 18.5 q-37 0 -76.5 -14 q-39.5 -14 -70.5 -37 q-7 -3 -20.5 -13 q-13.5 -10 -28.5 -21.5 q-15 -11.5 -27.5 -22 q-12.5 -10.5 -18.5 -13.5 q-2 -2 -5 -2 q-3 0 -5 0 q-6 0 -10.5 6 q-4.5 6 -9.5 9 q0 15 13.5 29 q13.5 14 23.5 22 q4 5 16.5 16 q12.5 11 27 22.5 q14.5 11.5 27.5 21.5 q13 10 19 14 q54 40 117.5 68 q63.5 28 132.5 28 q84 0 154 -37.5 q70 -37.5 120.5 -98.5 q50.5 -61 78 -138.5 q27.5 -77.5 27.5 -157.5 q0 -34 -3.5 -66 q-3.5 -32 -9.5 -64 l190 0 l-29 -343 q0 -14 7.5 -25 q7.5 -11 18.5 -18.5 q11 -7.5 22.5 -12 q11.5 -4.5 20.5 -4.5 q17 0 30 6 q13 6 22 15 q9 9 14 20 q5 11 7 21 l12 78 l65 0 l0 -72 q0 -21 -13 -43.5 q-13 -22.5 -37 -42 q-24 -19.5 -57.5 -32 q-33.5 -12.5 -74.5 -12.5 q-27 0 -52.5 10.5 q-25.5 10.5 -45.5 25.5 q-20 15 -32 32.5 q-12 17.5 -12 31.5 q-1 52 -1 102 l0 170 l-80 0 ZM663 257 q0 8 -5 13.5 q-5 5.5 -13 5.5 l-367 0 q-26 0 -26 -23 q0 -39 15.5 -77 q15.5 -38 42.5 -67.5 q27 -29.5 62.5 -48 q35.5 -18.5 75.5 -18.5 q40 0 75.5 16.5 q35.5 16.5 64 44.5 q28.5 28 48 65 q19.5 37 27.5 77 l0 12 Z" /><glyph glyph-name="uni025D" unicode="&#x25d;" d="M430 -29 q-56 0 -112.5 2.5 q-56.5 2.5 -109.5 17.5 q-37 10 -65 34.5 q-28 24.5 -46.5 52.5 q-18.5 28 -28.5 53 q-10 25 -11 37 q5 -5 16 -7.5 q11 -2.5 16 -7.5 q36 -42 70.5 -63.5 q34.5 -21.5 78.5 -21.5 q33 0 72 1 q39 1 77 6.5 q38 5.5 72.5 16.5 q34.5 11 58.5 31 q42 35 64.5 78 q22.5 43 22.5 88 q0 34 -12 54 q-12 20 -31 37 q-20 19 -41 25 q-21 6 -44 6 q-24 0 -44 -1 q-20 -1 -40.5 -2.5 q-20.5 -1.5 -43.5 -3 q-23 -1.5 -53 -3.5 q-18 -2 -36 -3 q-18 -1 -36 -1 q-18 0 -39 9 q-21 9 -40 24 q-19 15 -31.5 34 q-12.5 19 -12.5 38 q0 4 6.5 7 q6.5 3 16 4.5 q9.5 1.5 21.5 2 q12 0.5 23 0.5 q38 0 73.5 4.5 q35.5 4.5 71.5 4.5 q42 0 80.5 -7 q38.5 -7 79.5 -7 q22 0 42 17 q20 17 34.5 43 q14.5 26 23 58.5 q8.5 32.5 8.5 64.5 q0 29 -8 54 q-8 25 -27 41 q-36 30 -76 40.5 q-40 10.5 -84 10.5 q-27 0 -57 -2.5 q-30 -2.5 -60 -8.5 q-30 -6 -58 -15.5 q-28 -9.5 -50 -22.5 l-108 79 q25 15 49.5 24.5 q24.5 9.5 55.5 16.5 q38 8 78 13 q40 5 81 5 q90 -6 161.5 -26.5 q71.5 -20.5 121.5 -53.5 q50 -33 77 -76.5 q27 -43.5 27 -96.5 q0 -78 -14.5 -143 q-14.5 -65 -62.5 -125 q30 -31 45 -58 q15 -27 22 -55 l211 0 l-27 -343 q0 -14 7.5 -25 q7.5 -11 18.5 -18.5 q11 -7.5 22.5 -12 q11.5 -4.5 20.5 -4.5 q17 0 30 6 q13 6 22 15 q9 9 14 20 q5 11 7 21 l12 78 l65 0 l0 -72 q0 -21 -13 -43.5 q-13 -22.5 -37 -42 q-24 -19.5 -57.5 -32 q-33.5 -12.5 -74.5 -12.5 q-27 0 -52.5 10.5 q-25.5 10.5 -45.5 25.5 q-20 15 -32 32.5 q-12 17.5 -12 31.5 q-1 52 -1 102 l0 170 l-72 0 q-7 -109 -76 -170 q-69 -61 -194 -61 Z" /><glyph glyph-name="uni025E" unicode="&#x25e;" d="M416 929 q96 0 171.5 -12.5 q75.5 -12.5 128 -42.5 q52.5 -30 80 -78.5 q27.5 -48.5 27.5 -120.5 q0 -30 -5.5 -58.5 q-5.5 -28.5 -18.5 -54 q-13 -25.5 -33.5 -47 q-20.5 -21.5 -51.5 -36.5 q-11 -3 -11 -7 q0 -1 4 -1 l3 0 q35 -19 57.5 -42.5 q22.5 -23.5 35.5 -52 q13 -28.5 18 -62.5 q5 -34 5 -76 q0 -57 -22 -105.5 q-22 -48.5 -70 -84 q-48 -35.5 -123.5 -55.5 q-75.5 -20 -183.5 -20 q-59 0 -111 22 q-52 22 -95.5 58.5 q-43.5 36.5 -78 84.5 q-34.5 48 -58.5 101 q-24 53 -36.5 107 q-12.5 54 -12.5 102 q0 97 26.5 184.5 q26.5 87.5 76 153.5 q49.5 66 120 104.5 q70.5 38.5 158.5 38.5 ZM493 507 q29 0 55.5 2.5 q26.5 2.5 57.5 6.5 q21 3 37 18.5 q16 15.5 27 38 q11 22.5 16.5 49 q5.5 26.5 5.5 50.5 q0 51 -18 83.5 q-18 32.5 -50.5 51.5 q-32.5 19 -77.5 26 q-45 7 -99 7 q-60 0 -110 -25.5 q-50 -25.5 -86 -75 q-36 -49.5 -56 -123.5 q-20 -74 -20 -171 q0 -89 23.5 -159 q23.5 -70 61.5 -118.5 q38 -48.5 86.5 -74 q48.5 -25.5 98.5 -25.5 q52 0 99 11 q47 11 81.5 33 q34.5 22 55 55 q20.5 33 20.5 77 q0 48 -17.5 80.5 q-17.5 32.5 -46 52 q-28.5 19.5 -66 28 q-37.5 8.5 -77.5 8.5 q-29 0 -56.5 -1.5 q-27.5 -1.5 -47.5 -2.5 q-17 1 -25 17.5 q-8 16.5 -8 36.5 q0 29 10.5 41 q10.5 12 31.5 12 q23 0 45.5 -4.5 q22.5 -4.5 48.5 -4.5 Z" /><glyph glyph-name="uni025F" unicode="&#x25f;" d="M660 890 q0 -5 -3 -16.5 q-3 -11.5 -7 -13.5 q-13 -6 -37 -9 q-24 -3 -48 -13.5 q-24 -10.5 -42 -33 q-18 -22.5 -18 -66.5 l0 -467 q0 -11 12 -11 l109 0 q12 0 23 -7.5 q11 -7.5 11 -21.5 q0 -11 -11.5 -19 q-11.5 -8 -28.5 -16 q-17 -8 -37.5 -15.5 q-20.5 -7.5 -37.5 -17 q-17 -9.5 -28.5 -22 q-11.5 -12.5 -11.5 -28.5 l0 -33 q0 -140 -36 -270 q-36 -130 -108.5 -230 q-72.5 -100 -181 -160 q-108.5 -60 -253.5 -60 q-14 0 -50 8 q-36 8 -74 22 q-38 14 -67 33 q-29 19 -29 41 q0 8 2.5 14 q2.5 6 5.5 15 q2 4 10.5 22.5 q8.5 18.5 17.5 40 q9 21.5 17.5 40.5 q8.5 19 10.5 24 q2 4 7.5 10 q5.5 6 11.5 6 q2 0 4.5 -1.5 q2.5 -1.5 12.5 -9.5 q22 -19 51.5 -42 q29.5 -23 62.5 -43.5 q33 -20.5 69 -34.5 q36 -14 73 -14 q79 0 121.5 23 q42.5 23 62.5 59.5 q20 36.5 23.5 82.5 q3.5 46 3.5 92 l0 356 q0 6 -2.5 7 q-2.5 1 -7.5 1 l-195 0 q-28 0 -36.5 5.5 q-8.5 5.5 -12.5 20.5 q-6 23 -9 51 q-3 28 -3 50 q0 13 5 17 q5 4 21 4 l227 0 q2 0 7.5 1 q5.5 1 5.5 9 l0 448 q0 44 -22 71.5 q-22 27.5 -57.5 43.5 q-35.5 16 -80 21.5 q-44.5 5.5 -88.5 5.5 q-9 1 -13.5 13 q-4.5 12 -4.5 17 q0 2 0.5 7 q0.5 5 2 10 q1.5 5 5.5 9 q4 4 10 4 l625 0 q6 -2 8 -13 q2 -11 2 -17 Z" /><glyph glyph-name="uni0260" unicode="&#x260;" d="M777 100 q0 5 -1 5.5 q-1 0.5 -3 0.5 q-5 0 -18 -8 q-53 -30 -93.5 -53 q-40.5 -23 -76.5 -39 q-36 -16 -71 -24.5 q-35 -8.5 -77 -8.5 q-51 0 -96 19.5 q-45 19.5 -82 53.5 q-37 34 -67 79 q-30 45 -50 95.5 q-20 50.5 -31 104 q-11 53.5 -11 103.5 q0 101 37.5 191.5 q37.5 90.5 103 159 q65.5 68.5 153 108.5 q87.5 40 187.5 40 q53 0 101.5 -11 q48.5 -11 94.5 -31 l0 37 q0 79 21.5 135.5 q21.5 56.5 57 92.5 q35.5 36 80 53 q44.5 17 90.5 17 q50 0 92 -6 q42 -6 72 -21 q30 -15 47 -40 q17 -25 17 -62 q0 -32 -17 -53.5 q-17 -21.5 -41 -21.5 q-10 0 -15.5 8 q-5.5 8 -11 20.5 q-5.5 12.5 -11.5 27 q-6 14.5 -16 27 q-10 12.5 -26 20.5 q-16 8 -40 8 q-37 0 -64 -6.5 q-27 -6.5 -44.5 -22 q-17.5 -15.5 -26 -41.5 q-8.5 -26 -8.5 -64 l0 -1120 q0 -47 -7 -97 q-7 -50 -21.5 -99 q-14.5 -49 -37.5 -94.5 q-23 -45.5 -55 -82.5 q-32 -43 -67 -70.5 q-35 -27.5 -75.5 -43 q-40.5 -15.5 -89 -21 q-48.5 -5.5 -106.5 -5.5 q-24 0 -51 11 q-27 11 -50.5 29 q-23.5 18 -39.5 41 q-16 23 -18 47 q0 15 6.5 31 q6.5 16 18.5 28.5 q12 12.5 28.5 20.5 q16.5 8 36.5 8 q2 0 6.5 -1.5 q4.5 -1.5 18 -9.5 q13.5 -8 38.5 -26 q25 -18 68 -51 q20 -15 50.5 -23 q30.5 -8 84.5 -8 q34 8 55 33.5 q21 25.5 32.5 58.5 q11.5 33 15 69 q3.5 36 3.5 65 l0 417 ZM251 415 q0 -75 27.5 -136 q27.5 -61 71 -104.5 q43.5 -43.5 97 -67 q53.5 -23.5 105.5 -23.5 q66 0 131 28 q10 4 25 12 q15 8 29 17 q14 9 25 17.5 q11 8.5 15 13.5 l0 466 q0 60 -20 104 q-20 44 -53 72 q-33 28 -75.5 41.5 q-42.5 13.5 -86.5 13.5 q-64 0 -117.5 -33 q-53.5 -33 -92 -93 q-38.5 -60 -60 -143 q-21.5 -83 -21.5 -183 l0 -2 Z" /><glyph glyph-name="uni0261" unicode="&#x261;" d="M777 100 q0 5 -1 5.5 q-1 0.5 -3 0.5 q-5 0 -18 -8 q-53 -30 -93.5 -53 q-40.5 -23 -76.5 -39 q-36 -16 -71 -24.5 q-35 -8.5 -77 -8.5 q-51 0 -96 19.5 q-45 19.5 -82 53.5 q-37 34 -67 79 q-30 45 -50 95.5 q-20 50.5 -31 104 q-11 53.5 -11 103.5 q0 101 37.5 191.5 q37.5 90.5 103 159 q65.5 68.5 153 108.5 q87.5 40 187.5 40 q66 0 125 -16.5 q59 -16.5 116 -47.5 l7 0 q13 0 26 11 q13 11 25 24.5 q12 13.5 21.5 25 q9.5 11.5 15.5 11.5 l10 0 q2 0 4 -0.5 q2 -0.5 2 -5.5 l0 -1056 q0 -47 -7 -97 q-7 -50 -21.5 -99 q-14.5 -49 -37.5 -94.5 q-23 -45.5 -55 -82.5 q-32 -43 -67 -70.5 q-35 -27.5 -75.5 -43 q-40.5 -15.5 -89 -21 q-48.5 -5.5 -106.5 -5.5 q-24 0 -51 11 q-27 11 -50.5 29 q-23.5 18 -39.5 41 q-16 23 -18 47 q0 15 6.5 31 q6.5 16 18.5 28.5 q12 12.5 28.5 20.5 q16.5 8 36.5 8 q2 0 6.5 -1.5 q4.5 -1.5 18 -9.5 q13.5 -8 38.5 -26 q25 -18 68 -51 q20 -15 50.5 -23 q30.5 -8 84.5 -8 q34 8 55 33.5 q21 25.5 32.5 58.5 q11.5 33 15 69 q3.5 36 3.5 65 l0 417 ZM251 415 q0 -75 27.5 -136 q27.5 -61 71 -104.5 q43.5 -43.5 97 -67 q53.5 -23.5 105.5 -23.5 q66 0 131 28 q10 4 25 12 q15 8 29 17 q14 9 25 17.5 q11 8.5 15 13.5 l0 454 q0 64 -19.5 110 q-19.5 46 -52.5 75.5 q-33 29.5 -75.5 43.5 q-42.5 14 -87.5 14 q-64 0 -117.5 -33 q-53.5 -33 -92 -93 q-38.5 -60 -60 -143 q-21.5 -83 -21.5 -183 l0 -2 Z" /><glyph glyph-name="uni0263" unicode="&#x263;" d="M514 -484 q-49 0 -90.5 15.5 q-41.5 15.5 -71.5 42.5 q-30 27 -46.5 63.5 q-16.5 36.5 -16.5 77.5 q0 34 14.5 80.5 q14.5 46.5 42.5 89 q28 42.5 69.5 72.5 q41.5 30 95.5 30 q-5 15 -8.5 25 q-3.5 10 -11.5 20 l-330 689 q-17 46 -49 80.5 q-32 34.5 -78 49.5 q-7 2 -17 3 q-10 1 -19.5 3 q-9.5 2 -16 7 q-6.5 5 -6.5 16 q0 20 24 20 l445 0 q6 0 7 -7 q1 -7 1 -10 q0 -13 -11.5 -18 q-11.5 -5 -29.5 -7 q-18 -2 -38 -2.5 q-20 -0.5 -38 -3 q-18 -2.5 -29.5 -9.5 q-11.5 -7 -11.5 -21 q0 -11 6 -24 l267 -579 q2 -5 6.5 -14.5 q4.5 -9.5 12.5 -9.5 q4 0 8.5 4.5 q4.5 4.5 7.5 10.5 q3 6 5 11.5 q2 5.5 3 7.5 q46 118 78.5 201.5 q32.5 83.5 53.5 140 q21 56.5 33 90.5 q12 34 18 53.5 q6 19.5 7 28.5 q1 9 1 16 q0 35 -22 57.5 q-22 22.5 -54 34.5 q-9 2 -22.5 2 q-13.5 0 -26 2 q-12.5 2 -22 8 q-9.5 6 -9.5 20 q0 8 7 12.5 q7 4.5 15 4.5 l379 0 q8 -2 9.5 -7.5 q1.5 -5.5 1.5 -10.5 q0 -7 -2 -10.5 q-2 -3.5 -9.5 -6 q-7.5 -2.5 -21 -4.5 q-13.5 -2 -35.5 -6 q-22 -4 -39 -20.5 q-17 -16.5 -30.5 -38 q-13.5 -21.5 -24 -45.5 q-10.5 -24 -17.5 -43 l-267 -662 q17 -36 38 -72.5 q21 -36.5 39.5 -75 q18.5 -38.5 31 -78.5 q12.5 -40 12.5 -83 q0 -36 -10.5 -75 q-10.5 -39 -36 -71.5 q-25.5 -32.5 -67.5 -53.5 q-42 -21 -104 -21 ZM411 -250 q0 -31 5 -58.5 q5 -27.5 17 -47.5 q12 -20 31 -32 q19 -12 47 -12 q28 0 47 12 q19 12 31 32 q12 20 17 47.5 q5 27.5 5 58.5 q0 31 -8 58.5 q-8 27.5 -21.5 47.5 q-13.5 20 -31.5 32 q-18 12 -39 12 q-21 0 -39 -12 q-18 -12 -31.5 -32 q-13.5 -20 -21.5 -47.5 q-8 -27.5 -8 -58.5 Z" /><glyph glyph-name="uni0264" unicode="&#x264;" d="M307 211 q0 24 6 48 q6 24 19.5 50 q13.5 26 34 55 q20.5 29 50.5 64 l-312 393 q-8 9 -22.5 16.5 q-14.5 7.5 -29.5 14 q-15 6.5 -25.5 13.5 q-10.5 7 -10.5 15 q2 20 24 20 l372 0 q6 0 7 -7 q1 -7 1 -10 q-1 -8 -16 -11.5 q-15 -3.5 -33 -9 q-18 -5.5 -33 -16.5 q-15 -11 -15 -33 q0 -9 2 -18 q2 -9 7 -14 l155 -192 q8 -8 15 -15 q7 -7 14 -13 l4 0 q3 0 13 8 l147 171 q13 15 19 26.5 q6 11.5 6 30.5 q0 30 -16 41.5 q-16 11.5 -35.5 17 q-19.5 5.5 -35.5 10.5 q-16 5 -16 22 q0 4 1.5 8 q1.5 4 9.5 4 l307 0 q6 0 7 -2.5 q1 -2.5 1 -14.5 q0 -4 -1 -10 q-1 -6 -7 -9 q-29 -8 -50 -17.5 q-21 -9.5 -39 -22.5 q-18 -13 -34.5 -30.5 q-16.5 -17.5 -36.5 -41.5 q-49 -59 -83 -100 q-34 -41 -56 -68 q-22 -27 -33.5 -42 q-11.5 -15 -17 -23 q-5.5 -8 -6.5 -10.5 q-1 -2.5 -1 -4.5 q42 -60 67 -103.5 q25 -43.5 38 -77 q13 -33.5 16.5 -60 q3.5 -26.5 3.5 -52.5 q0 -75 -18 -121.5 q-18 -46.5 -45.5 -72.5 q-27.5 -26 -59.5 -35 q-32 -9 -60 -9 q-28 0 -62.5 12 q-34.5 12 -65 39.5 q-30.5 27.5 -51 73 q-20.5 45.5 -20.5 113.5 ZM378 187 q0 -26 13 -53 q13 -27 31.5 -49 q18.5 -22 40 -36.5 q21.5 -14.5 38.5 -14.5 q17 0 32 11 q15 11 26.5 29 q11.5 18 18.5 41.5 q7 23.5 7 48.5 q0 28 -13.5 61 q-13.5 33 -32 62 q-18.5 29 -38.5 52 q-20 23 -33 32 q-13 -6 -29 -23 q-16 -17 -29.5 -41.5 q-13.5 -24.5 -22.5 -55.5 q-9 -31 -9 -64 Z" /><glyph glyph-name="uni0265" unicode="&#x265;" d="M704 890 q0 6 2 17 q2 11 8 13 l522 0 q7 0 8.5 -12 q1.5 -12 1.5 -18 q0 -5 -3 -16.5 q-3 -11.5 -7 -13.5 q-13 -6 -37 -9.5 q-24 -3.5 -48 -14 q-24 -10.5 -42 -33 q-18 -22.5 -18 -66.5 l0 -1096 q0 -24 13 -37.5 q13 -13.5 33 -20.5 q20 -7 43 -11.5 q23 -4.5 44 -10.5 q6 -2 9.5 -5.5 q3.5 -3.5 3.5 -14.5 q0 -5 -3 -10 q-3 -5 -12 -10 l-331 -155 q-4 -2 -8.5 -4 q-4.5 -2 -6.5 -2 q-17 0 -17 24 l0 762 q0 4 -1 14 q-1 10 -6 10 q-7 0 -10 -3.5 q-3 -3.5 -9 -9.5 q-29 -33 -59 -62.5 q-30 -29.5 -66 -52 q-36 -22.5 -81 -35.5 q-45 -13 -105 -13 q-62 0 -122.5 14.5 q-60.5 14.5 -108 54 q-47.5 39.5 -77 109 q-29.5 69.5 -29.5 179.5 l0 386 q0 44 -18 66.5 q-18 22.5 -42 33 q-24 10.5 -48 14 q-24 3.5 -37 9.5 q-4 2 -7 13.5 q-3 11.5 -3 16.5 q0 6 2 18 q2 12 8 12 l522 0 q6 -2 8 -13 q2 -11 2 -17 q0 -5 -3 -16.5 q-3 -11.5 -7 -13.5 q-13 -6 -37 -9.5 q-24 -3.5 -48 -14 q-24 -10.5 -42 -33 q-18 -22.5 -18 -66.5 l0 -344 q0 -59 3 -109.5 q3 -50.5 20.5 -88.5 q17.5 -38 55.5 -59.5 q38 -21.5 109 -21.5 q36 0 80 17.5 q44 17.5 83 47 q39 29.5 65 68 q26 38.5 26 80.5 l0 410 q0 44 -18 66.5 q-18 22.5 -42 33 q-24 10.5 -48 14 q-24 3.5 -37 9.5 q-4 2 -7 13.5 q-3 11.5 -3 16.5 Z" /><glyph glyph-name="uni0266" unicode="&#x266;" d="M341 774 q0 -4 1 -14 q1 -10 6 -10 q7 0 10 3.5 q3 3.5 9 9.5 q29 33 58.5 62.5 q29.5 29.5 61.5 52 q32 22.5 69.5 35.5 q37.5 13 83.5 13 q62 0 116.5 -14.5 q54.5 -14.5 95 -54 q40.5 -39.5 64 -109 q23.5 -69.5 23.5 -179.5 l0 -417 q0 -44 18 -66.5 q18 -22.5 42 -33 q24 -10.5 48 -14 q24 -3.5 37 -9.5 q10 -4 10 -13 q0 -14 -10 -16 l-446 0 q-10 2 -10 16 q0 9 10 13 q13 6 37 9.5 q24 3.5 48 14 q24 10.5 42 33 q18 22.5 18 66.5 l0 407 q0 58 -3 109 q-3 51 -20.5 89 q-17.5 38 -56 59.5 q-38.5 21.5 -108.5 21.5 q-36 0 -80 -17.5 q-44 -17.5 -83 -47 q-39 -29.5 -65 -68 q-26 -38.5 -26 -80.5 l0 -473 q0 -44 18 -66.5 q18 -22.5 42 -33 q24 -10.5 48 -14 q24 -3.5 37 -9.5 q10 -4 10 -13 q0 -14 -10 -16 l-446 0 q-10 2 -10 16 q0 9 10 13 q13 6 37 9.5 q24 3.5 48 14 q24 10.5 42 33 q18 22.5 18 66.5 l0 1002 q0 79 21.5 135.5 q21.5 56.5 57 92.5 q35.5 36 80 53 q44.5 17 90.5 17 q50 0 92 -6 q42 -6 72 -21 q30 -15 47 -40 q17 -25 17 -62 q0 -32 -17 -53.5 q-17 -21.5 -41 -21.5 q-9 0 -15 8 q-6 8 -11.5 20.5 q-5.5 12.5 -11.5 27 q-6 14.5 -16 27 q-10 12.5 -26 20.5 q-16 8 -40 8 q-37 0 -64 -6.5 q-27 -6.5 -44.5 -22 q-17.5 -15.5 -26 -41.5 q-8.5 -26 -8.5 -64 l0 -451 Z" /><glyph glyph-name="uni0267" unicode="&#x267;" d="M341 774 q0 -4 1 -14 q1 -10 6 -10 q7 0 10 3.5 q3 3.5 9 9.5 q29 33 58.5 62.5 q29.5 29.5 61.5 52 q32 22.5 69.5 35.5 q37.5 13 83.5 13 q62 0 116.5 -14.5 q54.5 -14.5 95 -54 q40.5 -39.5 64 -109 q23.5 -69.5 23.5 -179.5 l0 -696 q0 -47 -7 -97 q-7 -50 -21.5 -99 q-14.5 -49 -37.5 -94.5 q-23 -45.5 -55 -82.5 q-32 -43 -67 -70.5 q-35 -27.5 -75.5 -43 q-40.5 -15.5 -89 -21 q-48.5 -5.5 -106.5 -5.5 q-24 0 -51 11 q-27 11 -50.5 29 q-23.5 18 -39.5 41 q-16 23 -18 47 q0 15 6.5 31 q6.5 16 18.5 28.5 q12 12.5 28.5 20.5 q16.5 8 36.5 8 q2 0 6.5 -1.5 q4.5 -1.5 18 -9.5 q13.5 -8 38.5 -26 q25 -18 68 -51 q20 -15 50.5 -23 q30.5 -8 84.5 -8 q34 8 55 33.5 q21 25.5 32.5 58.5 q11.5 33 15 69 q3.5 36 3.5 65 l0 876 q0 58 -3 109 q-3 51 -20.5 89 q-17.5 38 -56 59.5 q-38.5 21.5 -108.5 21.5 q-36 0 -80 -17.5 q-44 -17.5 -83 -47 q-39 -29.5 -65 -68 q-26 -38.5 -26 -80.5 l0 -473 q0 -44 18 -66.5 q18 -22.5 42 -33 q24 -10.5 48 -14 q24 -3.5 37 -9.5 q10 -4 10 -13 q0 -14 -10 -16 l-446 0 q-10 2 -10 16 q0 9 10 13 q13 6 37 9.5 q24 3.5 48 14 q24 10.5 42 33 q18 22.5 18 66.5 l0 1002 q0 79 21.5 135.5 q21.5 56.5 57 92.5 q35.5 36 80 53 q44.5 17 90.5 17 q50 0 92 -6 q42 -6 72 -21 q30 -15 47 -40 q17 -25 17 -62 q0 -32 -17 -53.5 q-17 -21.5 -41 -21.5 q-9 0 -15 8 q-6 8 -11.5 20.5 q-5.5 12.5 -11.5 27 q-6 14.5 -16 27 q-10 12.5 -26 20.5 q-16 8 -40 8 q-37 0 -64 -6.5 q-27 -6.5 -44.5 -22 q-17.5 -15.5 -26 -41.5 q-8.5 -26 -8.5 -64 l0 -451 Z" /><glyph glyph-name="uni0268" unicode="&#x268;" d="M-3 394 q-25 0 -25 25 l0 76 q0 25 25 25 l218 0 l0 143 q0 24 -13 37.5 q-13 13.5 -33 20.5 q-20 7 -43 11.5 q-23 4.5 -44 10.5 q-6 2 -9.5 5.5 q-3.5 3.5 -3.5 14.5 q0 5 3 10 q3 5 12 10 l331 156 q4 2 8.5 4 q4.5 2 6.5 2 q17 0 17 -24 l0 -401 l205 0 q25 0 25 -25 l0 -76 q0 -25 -25 -25 l-205 0 l0 -211 q0 -44 18 -66.5 q18 -22.5 42 -33 q24 -10.5 48 -14 q24 -3.5 37 -9.5 q4 -2 7 -13 q3 -11 3 -16 q0 -6 -2 -17.5 q-2 -11.5 -8 -13.5 l-522 0 q-6 2 -8 13.5 q-2 11.5 -2 17.5 q0 5 3 16 q3 11 7 13 q13 6 37 9.5 q24 3.5 48 14 q24 10.5 42 33 q18 22.5 18 66.5 l0 211 l-218 0 ZM172 1307 q0 64 38 102 q38 38 102 38 q64 0 102 -38 q38 -38 38 -102 q0 -64 -38 -101.5 q-38 -37.5 -102 -37.5 q-64 0 -102 37.5 q-38 37.5 -38 101.5 Z" /><glyph glyph-name="uni026A" unicode="&#x26a;" d="M350 102 q0 -43 31.5 -59.5 q31.5 -16.5 85.5 -16.5 q5 0 5.5 -2 q0.5 -2 0.5 -4 l0 -15 q0 -2 -0.5 -3.5 q-0.5 -1.5 -5.5 -1.5 l-391 0 q-7 0 -7 5 l0 15 q0 2 1 4 q1 2 6 2 q27 0 49 3 q22 3 37 12.5 q15 9.5 23.5 27.5 q8.5 18 8.5 48 l0 681 q0 43 -31.5 59.5 q-31.5 16.5 -85.5 16.5 q-5 0 -5.5 1.5 q-0.5 1.5 -0.5 3.5 l0 16 q0 2 0.5 3.5 q0.5 1.5 5.5 1.5 l393 0 q6 0 6 -5 l0 -16 q0 -1 -1 -3 q-1 -2 -5 -2 q-27 0 -49.5 -3 q-22.5 -3 -38 -12.5 q-15.5 -9.5 -24 -27.5 q-8.5 -18 -8.5 -48 l0 -681 l0 0 Z" /><glyph glyph-name="uni026B" unicode="&#x26b;" d="M629 918 q5 0 7.5 -5 q2.5 -5 4 -11.5 q1.5 -6.5 2 -13.5 q0.5 -7 0.5 -11 q0 -33 -11 -67 q-11 -34 -32 -62 q-21 -28 -51 -45.5 q-30 -17.5 -68 -17.5 q-31 0 -59 9 l0 -542 q0 -44 18 -66.5 q18 -22.5 42 -33 q24 -10.5 48 -14 q24 -3.5 37 -9.5 q10 -4 10 -13 q0 -14 -10 -16 l-446 0 q-10 2 -10 16 q0 9 10 13 q13 6 37 9.5 q24 3.5 48 14 q24 10.5 42 33 q18 22.5 18 66.5 l0 616 q-22 9 -43.5 15 q-21.5 6 -44.5 6 q-14 0 -29.5 -9 q-15.5 -9 -28.5 -24.5 q-13 -15.5 -21.5 -36.5 q-8.5 -21 -8.5 -45 q0 -8 -5 -10 q-5 -2 -11 -2 l-21 0 q-8 0 -8 16 q0 46 11 88 q11 42 31 73 q20 31 49 49.5 q29 18.5 65 18.5 q17 0 32.5 -3 q15.5 -3 32.5 -8 l0 503 q0 24 -13 37.5 q-13 13.5 -33 20.5 q-20 7 -43 11.5 q-23 4.5 -44 10.5 q-6 2 -9.5 5.5 q-3.5 3.5 -3.5 14.5 q0 5 3 10 q3 5 12 10 l255 120 q4 2 8.5 4 q4.5 2 6.5 2 q17 0 17 -24 l0 -795 q24 -11 48.5 -17.5 q24.5 -6.5 49.5 -6.5 q18 0 32 10 q14 10 23.5 25.5 q9.5 15.5 14 33.5 q4.5 18 4.5 33 q0 6 5 10 q5 4 11 4 l19 0 Z" /><glyph glyph-name="uni026C" unicode="&#x26c;" d="M564 16 q0 -14 -10 -16 l-446 0 q-10 2 -10 16 q0 9 10 13 q13 6 37 9.5 q24 3.5 48 14 q24 10.5 42 33 q18 22.5 18 66.5 l0 483 l-4 0 q-86 0 -139.5 8 q-53.5 8 -83.5 23 q-30 15 -40.5 37 q-10.5 22 -10.5 49 q0 17 13 35 q13 18 33.5 33 q20.5 15 46 24.5 q25.5 9.5 51.5 9.5 q27 0 51 -8.5 q24 -8.5 42 -19.5 q18 -11 29 -21 q11 -10 12 -12 l0 606 q0 24 -13 37.5 q-13 13.5 -33 20.5 q-20 7 -43 11.5 q-23 4.5 -44 10.5 q-6 2 -9.5 5.5 q-3.5 3.5 -3.5 14.5 q0 5 3 10 q3 5 12 10 l255 120 q4 2 8.5 4 q4.5 2 6.5 2 q17 0 17 -24 l0 -894 q39 14 71 33 q32 19 56 39.5 q24 20.5 40.5 41 q16.5 20.5 26.5 38.5 l34 -47 q-48 -76 -106.5 -117 q-58.5 -41 -121.5 -60 l0 -503 q0 -44 18 -66.5 q18 -22.5 42 -33 q24 -10.5 48 -14 q24 -3.5 37 -9.5 q10 -4 10 -13 ZM220 696 q8 0 16.5 0 q8.5 0 16.5 1 l0 65 q-4 5 -19 12.5 q-15 7.5 -34 15 q-19 7.5 -38 12.5 q-19 5 -32 5 q-9 0 -24 -3 q-15 -3 -29.5 -9 q-14.5 -6 -25 -15 q-10.5 -9 -10.5 -21 q0 -19 13.5 -31 q13.5 -12 37.5 -19 q24 -7 57 -10 q33 -3 71 -3 Z" /><glyph glyph-name="uni026D" unicode="&#x26d;" d="M175 1399 q0 24 -13 37.5 q-13 13.5 -33 20.5 q-20 7 -43 11.5 q-23 4.5 -44 10.5 q-6 2 -9.5 5.5 q-3.5 3.5 -3.5 14.5 q0 5 3 10 q3 5 12 10 l255 120 q4 2 8.5 4 q4.5 2 6.5 2 q17 0 17 -24 l0 -1743 q0 -32 8 -56 q8 -24 20.5 -40 q12.5 -16 28.5 -24 q16 -8 32 -8 q46 0 73.5 13.5 q27.5 13.5 46 29.5 q18.5 16 31.5 29.5 q13 13.5 29 13.5 q8 0 14.5 -6 q6.5 -6 6.5 -17 q0 -8 -16.5 -35.5 q-16.5 -27.5 -46.5 -57.5 q-30 -30 -72.5 -53.5 q-42.5 -23.5 -93.5 -23.5 q-54 0 -95 20 q-41 20 -68 53.5 q-27 33.5 -40.5 76.5 q-13.5 43 -13.5 89 l0 1517 Z" /><glyph glyph-name="uni026E" unicode="&#x26e;" d="M562 30 q0 -6 -2 -17 q-2 -11 -8 -13 l-522 0 q-6 2 -8 13 q-2 11 -2 17 q0 5 3 16 q3 11 7 13 q13 6 37 9.5 q24 3.5 48 14 q24 10.5 42 33 q18 22.5 18 66.5 l0 1166 q0 24 -13 37.5 q-13 13.5 -33 20.5 q-20 7 -43 11.5 q-23 4.5 -44 10.5 q-13 5 -13 28 q0 5 3 13.5 q3 8.5 12 13.5 l331 156 q4 2 9 4 q5 2 11 2 q8 0 10 -5.5 q2 -5.5 2 -18.5 l0 -701 q4 20 15 23.5 q11 3.5 31 3.5 q25 0 35 -8 q10 -8 16 -18 q3 -6 6 -11.5 q3 -5.5 2 -6.5 q9 -1 19 -1 q10 0 24 -1 q35 -2 94 -4 q59 -2 157 -2 q37 0 89.5 0.5 q52.5 0.5 112.5 2.5 q36 1 76.5 2 q40.5 1 76.5 1 q13 0 21 -4.5 q8 -4.5 12.5 -11 q4.5 -6.5 6.5 -13.5 q2 -7 2 -12 q0 -1 -2.5 -6.5 q-2.5 -5.5 -6.5 -13 q-4 -7.5 -8 -15 q-4 -7.5 -8 -11.5 l-381 -460 q107 -23 184.5 -56.5 q77.5 -33.5 128 -88 q50.5 -54.5 75 -134.5 q24.5 -80 24.5 -195 q0 -33 -12.5 -84 q-12.5 -51 -41 -109 q-28.5 -58 -75.5 -116 q-47 -58 -117 -105 q-70 -47 -164.5 -76.5 q-94.5 -29.5 -217.5 -29.5 q-18 0 -47 5 q-29 5 -61.5 18 q-32.5 13 -66 35 q-33.5 22 -61.5 56 q-18 22 -30 48 q-12 26 -12 49 q0 18 9 34 q9 16 24.5 27.5 q15.5 11.5 35.5 18 q20 6.5 42 6.5 q31 0 54.5 -14.5 q23.5 -14.5 44 -36.5 q20.5 -22 40 -47.5 q19.5 -25.5 41 -47.5 q21.5 -22 47.5 -36.5 q26 -14.5 61 -14.5 q48 0 87.5 25.5 q39.5 25.5 70 65 q30.5 39.5 52.5 88.5 q22 49 36 95 q14 46 21 84 q7 38 7 57 q0 114 -17 182.5 q-17 68.5 -46 104.5 q-29 36 -69 47.5 q-40 11.5 -85 11.5 q-41 0 -70.5 -5.5 q-29.5 -5.5 -51 -14 q-21.5 -8.5 -36 -19 q-14.5 -10.5 -26.5 -19.5 q-3 -3 -9 -8 q-6 -5 -13 -10 q-7 -5 -16 -9 q-9 -4 -18 -4 q-16 0 -33 11 q-17 11 -30.5 26.5 q-13.5 15.5 -22.5 32 q-9 16.5 -9 27.5 q26 18 72 59 q46 41 99.5 92.5 q53.5 51.5 110 110 q56.5 58.5 104.5 112 q48 53.5 81.5 97 q33.5 43.5 42.5 67.5 l-387 0 q-20 0 -34.5 -12 q-14.5 -12 -25 -30 q-10.5 -18 -17.5 -40 q-7 -22 -12 -42 q-7 -27 -16 -47.5 q-9 -20.5 -35 -25.5 l0 -388 q0 -44 18 -66.5 q18 -22.5 42 -33 q24 -10.5 48 -14 q24 -3.5 37 -9.5 q4 -2 7 -13 q3 -11 3 -16 Z" /></font>
</defs>
</svg>
